SplineFontDB: 3.0
FontName: PortLligatSlab-Regular
FullName: Port Lligat Slab
FamilyName: Port Lligat Slab
Weight: Book
Copyright: Copyright (c) 2011, Tipo (http://www.tipo.net.ar), with Reserved Font Name "Port Lligat Slab"
Version: 1.001
ItalicAngle: 0
UnderlinePosition: -50
UnderlineWidth: 50
Ascent: 800
Descent: 200
sfntRevision: 0x00010042
LayerCount: 2
Layer: 0 1 "Back"  1
Layer: 1 1 "Fore"  0
XUID: [1021 731 481365563 12141426]
FSType: 0
OS2Version: 2
OS2_WeightWidthSlopeOnly: 0
OS2_UseTypoMetrics: 1
CreationTime: 1326325478
ModificationTime: 1326322699
PfmFamily: 17
TTFWeight: 400
TTFWidth: 5
LineGap: 0
VLineGap: 0
Panose: 2 0 0 0 0 0 0 0 0 0
OS2TypoAscent: 60
OS2TypoAOffset: 1
OS2TypoDescent: -11
OS2TypoDOffset: 1
OS2TypoLinegap: 0
OS2WinAscent: 0
OS2WinAOffset: 1
OS2WinDescent: 0
OS2WinDOffset: 1
HheadAscent: 0
HheadAOffset: 1
HheadDescent: 0
HheadDOffset: 1
OS2SubXSize: 700
OS2SubYSize: 650
OS2SubXOff: 0
OS2SubYOff: 140
OS2SupXSize: 700
OS2SupYSize: 650
OS2SupXOff: 0
OS2SupYOff: 477
OS2StrikeYSize: 50
OS2StrikeYPos: 250
OS2Vendor: 'pyrs'
OS2CodePages: 20000001.00000000
OS2UnicodeRanges: 800000af.4000204b.00000000.00000000
Lookup: 258 0 0 "'kern' Horizontal Kerning in Latin lookup 0"  {"'kern' Horizontal Kerning in Latin lookup 0 subtable"  } ['kern' ('DFLT' <'dflt' > 'latn' <'dflt' > ) ]
DEI: 91125
TtTable: prep
PUSHW_1
 511
SCANCTRL
PUSHB_1
 4
SCANTYPE
EndTTInstrs
ShortTable: maxp 16
  1
  0
  262
  94
  7
  0
  0
  2
  0
  1
  1
  0
  64
  0
  0
  0
EndShort
LangName: 1033 "" "" "" "Tipo: Port Lligat Slab: 2011" "" "Version 1.001" "" "Port Lligat Slab is a trademark of Tipo." "Tipo" "Dario Muhafara, Eduardo Rodriguez Tunni" "" "http://www.tipo.net.ar" "http://www.tipo.net.ar" "This Font Software is licensed under the SIL Open Font License, Version 1.1. This license is available with a FAQ at: http://scripts.sil.org/OFL" "http://scripts.sil.org/OFL" 
GaspTable: 1 65535 15 1
Encoding: UnicodeBmp
UnicodeInterp: none
NameList: Adobe Glyph List

StartChar: exclam
Encoding: 33 33 4
Width: 270
GlyphClass: 2
Flags: W
LayerCount: 2
Fore
SplineSet
121 375 m 0,0,1
 121 559 121 559 95 663 c 1,2,3
 125 674 125 674 153 674 c 128,-1,4
 181 674 181 674 205 668 c 1,5,6
 185 479 185 479 185 245 c 0,7,8
 185 212 185 212 187 180 c 1,9,10
 168 174 168 174 153 174 c 128,-1,11
 138 174 138 174 119 180 c 1,12,13
 121 286 121 286 121 375 c 0,0,1
220 55 m 0,14,15
 220 25 220 25 202 5 c 128,-1,16
 184 -15 184 -15 147 -15 c 0,17,18
 90 -15 90 -15 90 43 c 0,19,20
 90 115 90 115 163 115 c 0,21,22
 220 115 220 115 220 55 c 0,14,15
EndSplineSet
EndChar

StartChar: quotedbl
Encoding: 34 34 5
Width: 351
GlyphClass: 2
Flags: W
LayerCount: 2
Fore
SplineSet
60 677 m 1,0,1
 83 682 83 682 112.5 682 c 128,-1,2
 142 682 142 682 151 679 c 1,3,4
 140 558 140 558 140 447 c 1,5,6
 122 441 122 441 104.5 441 c 128,-1,7
 87 441 87 441 75 444 c 1,8,9
 75 575 75 575 60 677 c 1,0,1
200 677 m 1,10,11
 223 682 223 682 252.5 682 c 128,-1,12
 282 682 282 682 291 679 c 1,13,14
 280 558 280 558 280 447 c 1,15,16
 262 441 262 441 244.5 441 c 128,-1,17
 227 441 227 441 215 444 c 1,18,19
 215 575 215 575 200 677 c 1,10,11
EndSplineSet
EndChar

StartChar: numbersign
Encoding: 35 35 6
Width: 763
GlyphClass: 2
Flags: W
LayerCount: 2
Fore
SplineSet
475 -46 m 0,0,1
 436 -46 436 -46 407 -27 c 1,2,3
 431 63 431 63 451 153 c 1,4,5
 409 154 409 154 357.5 154 c 128,-1,6
 306 154 306 154 246 152 c 1,7,8
 237 97 237 97 217 -44 c 1,9,10
 199 -46 199 -46 195 -46 c 0,11,12
 156 -46 156 -46 127 -27 c 1,13,14
 145 41 145 41 170 149 c 1,15,16
 88 146 88 146 55 140 c 1,17,18
 50 155 50 155 50 179 c 128,-1,19
 50 203 50 203 61 228 c 1,20,21
 111 223 111 223 186 221 c 1,22,23
 210 341 210 341 224 418 c 1,24,25
 139 415 139 415 107 409 c 1,26,27
 102 424 102 424 102 448 c 128,-1,28
 102 472 102 472 113 497 c 1,29,30
 164 492 164 492 237 490 c 1,31,32
 253 587 253 587 267 687 c 1,33,34
 275 688 275 688 301 688 c 128,-1,35
 327 688 327 688 356 670 c 1,36,37
 333 585 333 585 311 488 c 1,38,-1
 447 488 l 2,39,40
 487 488 487 488 517 489 c 1,41,42
 534 590 534 590 547 687 c 1,43,44
 555 688 555 688 581 688 c 128,-1,45
 607 688 607 688 636 670 c 1,46,47
 619 609 619 609 592 492 c 1,48,49
 689 498 689 498 708 502 c 1,50,51
 713 487 713 487 713 463 c 128,-1,52
 713 439 713 439 702 414 c 1,53,54
 633 419 633 419 576 420 c 1,55,56
 553 307 553 307 538 223 c 1,57,58
 637 229 637 229 656 233 c 1,59,60
 661 218 661 218 661 194 c 128,-1,61
 661 170 661 170 650 145 c 1,62,63
 583 150 583 150 526 151 c 1,64,65
 517 96 517 96 497 -44 c 1,66,67
 479 -46 479 -46 475 -46 c 0,0,1
395 219 m 2,68,69
 436 219 436 219 466 220 c 1,70,71
 488 323 488 323 505 422 c 1,72,73
 462 423 462 423 410 423 c 128,-1,74
 358 423 358 423 296 421 c 1,75,76
 276 327 276 327 257 219 c 1,77,-1
 395 219 l 2,68,69
EndSplineSet
EndChar

StartChar: dollar
Encoding: 36 36 7
Width: 550
GlyphClass: 2
Flags: W
LayerCount: 2
Fore
SplineSet
167 176 m 128,-1,1
 184 157 184 157 184 129.5 c 128,-1,2
 184 102 184 102 175 85 c 1,3,4
 219 49 219 49 276.5 49 c 128,-1,5
 334 49 334 49 363 75.5 c 128,-1,6
 392 102 392 102 392 148 c 128,-1,7
 392 194 392 194 360 227 c 128,-1,8
 328 260 328 260 282.5 282 c 128,-1,9
 237 304 237 304 192 328.5 c 128,-1,10
 147 353 147 353 115 394 c 128,-1,11
 83 435 83 435 83 497 c 128,-1,12
 83 559 83 559 123.5 601 c 128,-1,13
 164 643 164 643 236 652 c 1,14,15
 234 709 234 709 232 736 c 1,16,17
 254 749 254 749 294 749 c 0,18,19
 304 749 304 749 323 746 c 1,20,21
 319 712 319 712 313 652 c 1,22,23
 375 642 375 642 418.5 605.5 c 128,-1,24
 462 569 462 569 462 509.5 c 128,-1,25
 462 450 462 450 410 450 c 0,26,27
 379 450 379 450 362 469 c 128,-1,28
 345 488 345 488 345 518 c 128,-1,29
 345 548 345 548 357 564 c 1,30,31
 322 596 322 596 271 596 c 128,-1,32
 220 596 220 596 194.5 570 c 128,-1,33
 169 544 169 544 169 505 c 128,-1,34
 169 466 169 466 192 438.5 c 128,-1,35
 215 411 215 411 249 393.5 c 128,-1,36
 283 376 283 376 323 353.5 c 128,-1,37
 363 331 363 331 397 309 c 128,-1,38
 431 287 431 287 454 249.5 c 128,-1,39
 477 212 477 212 477 164 c 0,40,41
 477 87 477 87 425.5 37.5 c 128,-1,42
 374 -12 374 -12 291 -15 c 1,43,44
 291 -61 291 -61 296 -79 c 1,45,46
 269 -92 269 -92 244.5 -92 c 128,-1,47
 220 -92 220 -92 205 -89 c 1,48,49
 211 -38 211 -38 213 -7 c 1,50,51
 150 6 150 6 108.5 42.5 c 128,-1,52
 67 79 67 79 67 137 c 128,-1,53
 67 195 67 195 119 195 c 0,54,0
 150 195 150 195 167 176 c 128,-1,1
EndSplineSet
EndChar

StartChar: percent
Encoding: 37 37 8
Width: 889
GlyphClass: 2
Flags: W
LayerCount: 2
Fore
SplineSet
335 -46 m 0,0,1
 301 -46 301 -46 278 -27 c 1,2,3
 402 265 402 265 532 686 c 1,4,5
 548 688 548 688 558 688 c 0,6,7
 586 688 586 688 611 670 c 1,8,9
 490 391 490 391 356 -44 c 1,10,11
 340 -46 340 -46 335 -46 c 0,0,1
839 193 m 128,-1,13
 839 -9 839 -9 692 -9 c 128,-1,14
 545 -9 545 -9 545 193 c 128,-1,15
 545 395 545 395 692 395 c 128,-1,12
 839 395 839 395 839 193 c 128,-1,13
615 193 m 128,-1,17
 615 44 615 44 692.5 44 c 128,-1,18
 770 44 770 44 770 193 c 128,-1,19
 770 342 770 342 692.5 342 c 128,-1,16
 615 342 615 342 615 193 c 128,-1,17
344 451 m 128,-1,21
 344 249 344 249 197 249 c 128,-1,22
 50 249 50 249 50 451 c 128,-1,23
 50 653 50 653 197 653 c 128,-1,20
 344 653 344 653 344 451 c 128,-1,21
120 451 m 128,-1,25
 120 302 120 302 197.5 302 c 128,-1,26
 275 302 275 302 275 451 c 128,-1,27
 275 600 275 600 197.5 600 c 128,-1,24
 120 600 120 600 120 451 c 128,-1,25
EndSplineSet
EndChar

StartChar: ampersand
Encoding: 38 38 9
Width: 594
GlyphClass: 2
Flags: W
LayerCount: 2
Fore
SplineSet
392 284 m 1,0,1
 390 298 390 298 390 312 c 128,-1,2
 390 326 390 326 393 340 c 1,3,4
 416 339 416 339 480 339 c 128,-1,5
 544 339 544 339 569 340 c 1,6,7
 572 325 572 325 572 309.5 c 128,-1,8
 572 294 572 294 570 284 c 1,9,-1
 515 281 l 1,10,11
 497 196 497 196 460 135 c 1,12,13
 515 74 515 74 568 5 c 1,14,15
 534 -12 534 -12 499 -12 c 128,-1,16
 464 -12 464 -12 457 -11 c 1,17,18
 435 18 435 18 420.5 37.5 c 128,-1,19
 406 57 406 57 402 62 c 1,20,21
 319 -15 319 -15 213 -15 c 0,22,23
 139 -15 139 -15 93 32.5 c 128,-1,24
 47 80 47 80 47 156 c 0,25,26
 47 258 47 258 149 338 c 1,27,28
 93 413 93 413 93 501 c 0,29,30
 93 571 93 571 140.5 613 c 128,-1,31
 188 655 188 655 259.5 655 c 128,-1,32
 331 655 331 655 369.5 617.5 c 128,-1,33
 408 580 408 580 408 525.5 c 128,-1,34
 408 471 408 471 375.5 430 c 128,-1,35
 343 389 343 389 265 337 c 1,36,37
 286 311 286 311 409 187 c 1,38,39
 429 232 429 232 436 281 c 1,40,-1
 392 284 l 1,0,1
235 57 m 0,41,42
 298 57 298 57 358 114 c 1,43,44
 327 151 327 151 194 285 c 1,45,46
 129 232 129 232 129 178 c 128,-1,47
 129 124 129 124 158.5 90.5 c 128,-1,48
 188 57 188 57 235 57 c 0,41,42
172 513 m 0,49,50
 172 459 172 459 223 388 c 1,51,52
 281 425 281 425 305 453 c 128,-1,53
 329 481 329 481 329 515 c 128,-1,54
 329 549 329 549 306 574 c 128,-1,55
 283 599 283 599 248.5 599 c 128,-1,56
 214 599 214 599 193 575 c 128,-1,57
 172 551 172 551 172 513 c 0,49,50
EndSplineSet
EndChar

StartChar: quotesingle
Encoding: 39 39 10
Width: 211
GlyphClass: 2
Flags: W
LayerCount: 2
Fore
SplineSet
60 677 m 1,0,1
 83 682 83 682 112.5 682 c 128,-1,2
 142 682 142 682 151 679 c 1,3,4
 140 558 140 558 140 447 c 1,5,6
 122 441 122 441 104.5 441 c 128,-1,7
 87 441 87 441 75 444 c 1,8,9
 75 575 75 575 60 677 c 1,0,1
EndSplineSet
EndChar

StartChar: parenleft
Encoding: 40 40 11
Width: 309
GlyphClass: 2
Flags: W
LayerCount: 2
Fore
SplineSet
147 329 m 128,-1,1
 147 114 147 114 279 -60 c 1,2,3
 235 -74 235 -74 214 -74 c 128,-1,4
 193 -74 193 -74 186 -73 c 1,5,6
 65 107 65 107 65 329.5 c 128,-1,7
 65 552 65 552 186 732 c 1,8,9
 193 733 193 733 214 733 c 128,-1,10
 235 733 235 733 279 719 c 1,11,0
 147 544 147 544 147 329 c 128,-1,1
EndSplineSet
EndChar

StartChar: parenright
Encoding: 41 41 12
Width: 309
GlyphClass: 2
Flags: W
LayerCount: 2
Fore
SplineSet
30 719 m 1,0,1
 74 733 74 733 95 733 c 128,-1,2
 116 733 116 733 123 732 c 1,3,4
 244 552 244 552 244 329.5 c 128,-1,5
 244 107 244 107 123 -73 c 1,6,7
 116 -74 116 -74 95 -74 c 128,-1,8
 74 -74 74 -74 30 -60 c 1,9,10
 162 114 162 114 162 329 c 128,-1,11
 162 544 162 544 30 719 c 1,0,1
EndSplineSet
EndChar

StartChar: asterisk
Encoding: 42 42 13
Width: 398
GlyphClass: 2
Flags: W
LayerCount: 2
Fore
SplineSet
158 670 m 1,0,1
 179 675 179 675 203.5 675 c 128,-1,2
 228 675 228 675 237 670 c 1,3,4
 230 615 230 615 228 555 c 1,5,6
 283 575 283 575 335 601 c 1,7,8
 339 594 339 594 348 572.5 c 128,-1,9
 357 551 357 551 358 525 c 1,10,11
 300 518 300 518 241 499 c 1,12,13
 280 448 280 448 321 410 c 1,14,15
 278 367 278 367 257 363 c 1,16,17
 221 432 221 432 196 465 c 1,18,19
 168 426 168 426 138 365 c 1,20,21
 110 377 110 377 93 389.5 c 128,-1,22
 76 402 76 402 73 409 c 1,23,24
 119 457 119 457 150 500 c 1,25,26
 98 517 98 517 38 525 c 1,27,28
 39 551 39 551 48.5 574 c 128,-1,29
 58 597 58 597 61 601 c 1,30,31
 115 573 115 573 171 554 c 1,32,33
 170 602 170 602 158 670 c 1,0,1
EndSplineSet
EndChar

StartChar: plus
Encoding: 43 43 14
Width: 601
GlyphClass: 2
Flags: W
LayerCount: 2
Fore
SplineSet
259 534 m 1,0,1
 281 541 281 541 307 541 c 128,-1,2
 333 541 333 541 347 538 c 1,3,4
 342 521 342 521 337.5 457.5 c 128,-1,5
 333 394 333 394 333 360 c 1,6,7
 367 360 367 360 430.5 364.5 c 128,-1,8
 494 369 494 369 511 374 c 1,9,10
 514 360 514 360 514 334 c 128,-1,11
 514 308 514 308 507 286 c 1,12,13
 431 293 431 293 333 295 c 1,14,15
 333 187 333 187 342 121 c 1,16,17
 320 114 320 114 294 114 c 128,-1,18
 268 114 268 114 254 117 c 1,19,20
 265 161 265 161 268 295 c 1,21,22
 134 292 134 292 90 281 c 1,23,24
 87 295 87 295 87 321 c 128,-1,25
 87 347 87 347 94 369 c 1,26,27
 160 360 160 360 268 360 c 1,28,29
 266 458 266 458 259 534 c 1,0,1
EndSplineSet
EndChar

StartChar: comma
Encoding: 44 44 15
Width: 261
GlyphClass: 2
Flags: W
LayerCount: 2
Fore
SplineSet
75 -152 m 1,0,1
 70 -137 70 -137 70 -127.5 c 128,-1,2
 70 -118 70 -118 73 -103 c 1,3,4
 140 -103 140 -103 140 -34 c 0,5,6
 140 -9 140 -9 114 -6 c 0,7,8
 76 -3 76 -3 76 43 c 0,9,10
 76 78 76 78 92.5 96.5 c 128,-1,11
 109 115 109 115 152 115 c 0,12,13
 211 115 211 115 211 35 c 128,-1,14
 211 -45 211 -45 179 -98.5 c 128,-1,15
 147 -152 147 -152 75 -152 c 1,0,1
EndSplineSet
EndChar

StartChar: hyphen
Encoding: 45 45 16
Width: 354
GlyphClass: 2
Flags: W
LayerCount: 2
Fore
SplineSet
66 196 m 1,0,1
 60 210 60 210 60 227 c 128,-1,2
 60 244 60 244 66 268 c 1,3,4
 255 281 255 281 288 289 c 1,5,6
 294 275 294 275 294 258 c 128,-1,7
 294 241 294 241 288 217 c 1,8,9
 99 204 99 204 66 196 c 1,0,1
EndSplineSet
EndChar

StartChar: period
Encoding: 46 46 17
Width: 270
GlyphClass: 2
Flags: W
LayerCount: 2
Fore
SplineSet
220 55 m 0,0,1
 220 25 220 25 202 5 c 128,-1,2
 184 -15 184 -15 147 -15 c 0,3,4
 90 -15 90 -15 90 43 c 0,5,6
 90 115 90 115 163 115 c 0,7,8
 220 115 220 115 220 55 c 0,0,1
EndSplineSet
EndChar

StartChar: slash
Encoding: 47 47 18
Width: 566
GlyphClass: 2
Flags: W
LayerCount: 2
Fore
SplineSet
162 -46 m 0,0,1
 123 -46 123 -46 96 -27 c 1,2,3
 246 275 246 275 393 686 c 1,4,5
 411 688 411 688 433.5 688 c 128,-1,6
 456 688 456 688 485 670 c 1,7,8
 337 378 337 378 187 -44 c 1,9,10
 169 -46 169 -46 162 -46 c 0,0,1
EndSplineSet
EndChar

StartChar: zero
Encoding: 48 48 19
Width: 587
GlyphClass: 2
Flags: W
LayerCount: 2
Fore
SplineSet
527 320 m 128,-1,1
 527 -15 527 -15 293.5 -15 c 128,-1,2
 60 -15 60 -15 60 320 c 128,-1,3
 60 655 60 655 293.5 655 c 128,-1,0
 527 655 527 655 527 320 c 128,-1,1
145 320 m 128,-1,5
 145 50 145 50 293.5 50 c 128,-1,6
 442 50 442 50 442 320 c 128,-1,7
 442 590 442 590 293.5 590 c 128,-1,4
 145 590 145 590 145 320 c 128,-1,5
EndSplineSet
EndChar

StartChar: one
Encoding: 49 49 20
Width: 410
GlyphClass: 2
Flags: W
LayerCount: 2
Fore
SplineSet
232 648 m 1,0,1
 241 649 241 649 254 649 c 128,-1,2
 267 649 267 649 278 648 c 128,-1,3
 289 647 289 647 297 647 c 1,4,5
 283 539 283 539 283 348.5 c 128,-1,6
 283 158 283 158 291 63 c 1,7,-1
 388 55 l 1,8,9
 390 39 390 39 390 27.5 c 128,-1,10
 390 16 390 16 387 -1 c 1,11,12
 328 0 328 0 246 0 c 128,-1,13
 164 0 164 0 106 -1 c 1,14,15
 103 14 103 14 103 25.5 c 128,-1,16
 103 37 103 37 105 55 c 1,17,-1
 200 63 l 1,18,19
 208 170 208 170 208 328.5 c 128,-1,20
 208 487 208 487 202 553 c 1,21,22
 90 479 90 479 71 460 c 1,23,24
 32 503 32 503 25 540 c 1,25,26
 89 566 89 566 232 648 c 1,0,1
EndSplineSet
EndChar

StartChar: two
Encoding: 50 50 21
Width: 538
GlyphClass: 2
Flags: W
LayerCount: 2
Fore
SplineSet
129.5 622 m 128,-1,1
 179 655 179 655 261.5 655 c 128,-1,2
 344 655 344 655 402 609.5 c 128,-1,3
 460 564 460 564 460 480 c 0,4,5
 460 431 460 431 426.5 373.5 c 128,-1,6
 393 316 393 316 351 272 c 0,7,8
 205 119 205 119 169 69 c 1,9,10
 202 68 202 68 265 68 c 128,-1,11
 328 68 328 68 414 75 c 1,12,-1
 417 149 l 1,13,14
 434 152 434 152 447.5 152 c 128,-1,15
 461 152 461 152 473 151 c 1,16,17
 476 69 476 69 482 -1 c 1,18,-1
 477 -6 l 1,19,20
 400 3 400 3 310.5 3 c 128,-1,21
 221 3 221 3 145.5 -2 c 128,-1,22
 70 -7 70 -7 49 -11 c 1,23,24
 45 1 45 1 45 24 c 1,25,26
 90 105 90 105 203 221 c 0,27,28
 245 264 245 264 284 308 c 0,29,30
 372 404 372 404 372 477 c 0,31,32
 372 521 372 521 345 558.5 c 128,-1,33
 318 596 318 596 256 596 c 128,-1,34
 194 596 194 596 156 555 c 1,35,36
 168 540 168 540 168 513.5 c 128,-1,37
 168 487 168 487 153.5 468.5 c 128,-1,38
 139 450 139 450 109 450 c 0,39,40
 62 450 62 450 62 504 c 0,41,42
 62 524 62 524 65 533 c 0,43,0
 80 589 80 589 129.5 622 c 128,-1,1
EndSplineSet
EndChar

StartChar: three
Encoding: 51 51 22
Width: 529
GlyphClass: 2
Flags: W
LayerCount: 2
Fore
SplineSet
240 -15 m 0,0,1
 164 -15 164 -15 102 22.5 c 128,-1,2
 40 60 40 60 40 130 c 0,3,4
 40 190 40 190 92 190 c 0,5,6
 125 190 125 190 141 169.5 c 128,-1,7
 157 149 157 149 157 120.5 c 128,-1,8
 157 92 157 92 145 75 c 1,9,10
 176 49 176 49 243 49 c 128,-1,11
 310 49 310 49 351 82.5 c 128,-1,12
 392 116 392 116 392 166.5 c 128,-1,13
 392 217 392 217 370.5 250 c 128,-1,14
 349 283 349 283 310 296 c 1,15,16
 255 292 255 292 226.5 292 c 128,-1,17
 198 292 198 292 175 295 c 1,18,19
 170 313 170 313 170 330 c 128,-1,20
 170 347 170 347 180 365 c 1,21,22
 203 358 203 358 255.5 358.5 c 128,-1,23
 308 359 308 359 340.5 392 c 128,-1,24
 373 425 373 425 373 476.5 c 128,-1,25
 373 528 373 528 338 562 c 128,-1,26
 303 596 303 596 247.5 596 c 128,-1,27
 192 596 192 596 160 566 c 1,28,29
 174 549 174 549 174 518.5 c 128,-1,30
 174 488 174 488 157 469 c 128,-1,31
 140 450 140 450 109 450 c 0,32,33
 57 450 57 450 57 510 c 0,34,35
 57 534 57 534 63 549 c 0,36,37
 104 655 104 655 249 655 c 0,38,39
 345 655 345 655 400.5 608 c 128,-1,40
 456 561 456 561 456 480 c 0,41,42
 456 369 456 369 366 332 c 1,43,44
 479 289 479 289 479 173 c 0,45,46
 479 82 479 82 417 33.5 c 128,-1,47
 355 -15 355 -15 240 -15 c 0,0,1
EndSplineSet
EndChar

StartChar: four
Encoding: 52 52 23
Width: 511
GlyphClass: 2
Flags: W
LayerCount: 2
Fore
SplineSet
254 639 m 1,0,1
 284 649 284 649 316 649 c 128,-1,2
 348 649 348 649 400 645 c 1,3,4
 386 534 386 534 386 405 c 128,-1,5
 386 276 386 276 387 244 c 1,6,7
 437 248 437 248 447 251 c 1,8,9
 451 235 451 235 451 211 c 128,-1,10
 451 187 451 187 443 163 c 1,11,12
 407 167 407 167 389 168 c 1,13,14
 391 102 391 102 395 58 c 1,15,-1
 431 55 l 1,16,17
 433 39 433 39 433 27.5 c 128,-1,18
 433 16 433 16 430 -1 c 1,19,20
 395 0 395 0 349 0 c 128,-1,21
 303 0 303 0 269 -1 c 1,22,23
 266 14 266 14 266 25.5 c 128,-1,24
 266 37 266 37 268 55 c 1,25,-1
 303 58 l 1,26,27
 307 111 307 111 309 171 c 1,28,29
 278 172 278 172 166.5 172 c 128,-1,30
 55 172 55 172 3 166 c 1,31,32
 0 175 0 175 0 202 c 1,33,34
 15 225 15 225 49.5 280.5 c 128,-1,35
 84 336 84 336 98 358 c 128,-1,36
 112 380 112 380 139 424.5 c 128,-1,37
 166 469 166 469 182 497 c 0,38,39
 224 574 224 574 254 639 c 1,0,1
110 238 m 1,40,41
 147 237 147 237 196 237 c 128,-1,42
 245 237 245 237 311 239 c 1,43,-1
 311 307 l 2,44,45
 311 504 311 504 303 579 c 1,46,47
 230 477 230 477 110 238 c 1,40,41
EndSplineSet
EndChar

StartChar: five
Encoding: 53 53 24
Width: 531
GlyphClass: 2
Flags: W
LayerCount: 2
Fore
SplineSet
170 386 m 1,0,1
 220 395 220 395 266.5 395 c 128,-1,2
 313 395 313 395 359.5 376.5 c 128,-1,3
 406 358 406 358 432 327 c 0,4,5
 481 267 481 267 481 182 c 128,-1,6
 481 97 481 97 422.5 41 c 128,-1,7
 364 -15 364 -15 245 -15 c 0,8,9
 173 -15 173 -15 113 22.5 c 128,-1,10
 53 60 53 60 53 130 c 0,11,12
 53 190 53 190 105 190 c 0,13,14
 138 190 138 190 154 169.5 c 128,-1,15
 170 149 170 149 170 120.5 c 128,-1,16
 170 92 170 92 158 75 c 1,17,18
 189 49 189 49 253.5 49 c 128,-1,19
 318 49 318 49 356 89 c 128,-1,20
 394 129 394 129 394 185.5 c 128,-1,21
 394 242 394 242 360.5 287 c 128,-1,22
 327 332 327 332 247.5 332 c 128,-1,23
 168 332 168 332 124 302 c 1,24,25
 96 302 96 302 80 308 c 1,26,27
 93 345 93 345 100 437.5 c 128,-1,28
 107 530 107 530 107 580.5 c 128,-1,29
 107 631 107 631 106 646 c 1,30,31
 168 640 168 640 278.5 640 c 128,-1,32
 389 640 389 640 446 648 c 1,33,-1
 451 643 l 1,34,35
 444 566 444 566 442 501 c 1,36,37
 430 500 430 500 416 500 c 128,-1,38
 402 500 402 500 386 503 c 1,39,-1
 383 571 l 1,40,41
 323 574 323 574 282 573.5 c 128,-1,42
 241 573 241 573 188 573 c 1,43,44
 172 472 172 472 170 386 c 1,0,1
EndSplineSet
EndChar

StartChar: six
Encoding: 54 54 25
Width: 549
GlyphClass: 2
Flags: W
LayerCount: 2
Fore
SplineSet
376 470.5 m 128,-1,1
 360 491 360 491 360 520.5 c 128,-1,2
 360 550 360 550 374 567 c 1,3,4
 343 596 343 596 284 596 c 128,-1,5
 225 596 225 596 186.5 524 c 128,-1,6
 148 452 148 452 148 327 c 1,7,8
 202 398 202 398 307 398 c 0,9,10
 386 398 386 398 442.5 344 c 128,-1,11
 499 290 499 290 499 197.5 c 128,-1,12
 499 105 499 105 436.5 45 c 128,-1,13
 374 -15 374 -15 280 -15 c 0,14,15
 160 -15 160 -15 112.5 61.5 c 128,-1,16
 65 138 65 138 65 299 c 0,17,18
 65 485 65 485 124 574 c 0,19,20
 147 608 147 608 189.5 631.5 c 128,-1,21
 232 655 232 655 297.5 655 c 128,-1,22
 363 655 363 655 420 617 c 128,-1,23
 477 579 477 579 477 514.5 c 128,-1,24
 477 450 477 450 425 450 c 0,25,0
 392 450 392 450 376 470.5 c 128,-1,1
372.5 86 m 128,-1,27
 414 122 414 122 414 192.5 c 128,-1,28
 414 263 414 263 380 300 c 128,-1,29
 346 337 346 337 290.5 337 c 128,-1,30
 235 337 235 337 193.5 297.5 c 128,-1,31
 152 258 152 258 152 189 c 128,-1,32
 152 120 152 120 187 85 c 128,-1,33
 222 50 222 50 276.5 50 c 128,-1,26
 331 50 331 50 372.5 86 c 128,-1,27
EndSplineSet
EndChar

StartChar: seven
Encoding: 55 55 26
Width: 446
GlyphClass: 2
Flags: W
LayerCount: 2
Fore
SplineSet
304 573 m 1,0,1
 279 574 279 574 223 574 c 128,-1,2
 167 574 167 574 83 567 c 1,3,-1
 80 503 l 1,4,5
 64 500 64 500 50 500 c 128,-1,6
 36 500 36 500 24 501 c 1,7,8
 22 566 22 566 15 643 c 1,9,-1
 20 648 l 1,10,11
 56 639 56 639 221 639 c 2,12,-1
 250 639 l 2,13,14
 287 639 287 639 348 644 c 128,-1,15
 409 649 409 649 427 653 c 1,16,17
 431 635 431 635 431 618 c 1,18,19
 351 471 351 471 282.5 294 c 128,-1,20
 214 117 214 117 199 2 c 1,21,22
 170 -8 170 -8 145.5 -8 c 128,-1,23
 121 -8 121 -8 97 -4 c 1,24,25
 156 192 156 192 304 573 c 1,0,1
EndSplineSet
EndChar

StartChar: eight
Encoding: 56 56 27
Width: 565
GlyphClass: 2
Flags: W
LayerCount: 2
Fore
SplineSet
187 333 m 1,0,1
 78 396 78 396 78 491 c 0,2,3
 78 562 78 562 128.5 608.5 c 128,-1,4
 179 655 179 655 284 655 c 0,5,6
 489 655 489 655 489 487 c 0,7,8
 489 404 489 404 388 320 c 1,9,10
 505 258 505 258 505 160 c 0,11,12
 505 76 505 76 438 30.5 c 128,-1,13
 371 -15 371 -15 282 -15 c 0,14,15
 172 -15 172 -15 110 36 c 0,16,17
 60 77 60 77 60 157 c 128,-1,18
 60 237 60 237 187 333 c 1,0,1
282 59 m 0,19,20
 346 59 346 59 381.5 92 c 128,-1,21
 417 125 417 125 417 163 c 0,22,23
 417 194 417 194 401 210.5 c 128,-1,24
 385 227 385 227 376 235 c 128,-1,25
 367 243 367 243 346 254 c 2,26,-1
 314 270 l 2,27,28
 304 276 304 276 277.5 288 c 128,-1,29
 251 300 251 300 241 305 c 1,30,31
 148 229 148 229 148 155 c 0,32,33
 148 59 148 59 282 59 c 0,19,20
164 500 m 0,34,35
 164 431 164 431 254 384 c 0,36,37
 299 360 299 360 329 348 c 1,38,39
 370 375 370 375 388 414 c 128,-1,40
 406 453 406 453 406 487 c 0,41,42
 406 596 406 596 285 596 c 0,43,44
 236 596 236 596 200 571 c 128,-1,45
 164 546 164 546 164 500 c 0,34,35
EndSplineSet
EndChar

StartChar: nine
Encoding: 57 57 28
Width: 549
GlyphClass: 2
Flags: W
LayerCount: 2
Fore
SplineSet
163 169.5 m 128,-1,1
 179 149 179 149 179 119.5 c 128,-1,2
 179 90 179 90 166 74 c 1,3,4
 198 45 198 45 263 45 c 128,-1,5
 328 45 328 45 364.5 115 c 128,-1,6
 401 185 401 185 401 313 c 1,7,8
 347 242 347 242 242 242 c 0,9,10
 163 242 163 242 106.5 296 c 128,-1,11
 50 350 50 350 50 442.5 c 128,-1,12
 50 535 50 535 112.5 595 c 128,-1,13
 175 655 175 655 269 655 c 0,14,15
 389 655 389 655 436.5 578.5 c 128,-1,16
 484 502 484 502 484 341 c 0,17,18
 484 151 484 151 424 66 c 0,19,20
 400 32 400 32 357 8.5 c 128,-1,21
 314 -15 314 -15 249 -15 c 128,-1,22
 184 -15 184 -15 136 14 c 128,-1,23
 88 43 88 43 68 91 c 0,24,25
 62 104 62 104 62 130 c 0,26,27
 62 190 62 190 114 190 c 0,28,0
 147 190 147 190 163 169.5 c 128,-1,1
355.5 340 m 128,-1,30
 397 377 397 377 397 448.5 c 128,-1,31
 397 520 397 520 363 558 c 128,-1,32
 329 596 329 596 273.5 596 c 128,-1,33
 218 596 218 596 176.5 555.5 c 128,-1,34
 135 515 135 515 135 445 c 128,-1,35
 135 375 135 375 170.5 339 c 128,-1,36
 206 303 206 303 260 303 c 128,-1,29
 314 303 314 303 355.5 340 c 128,-1,30
EndSplineSet
EndChar

StartChar: colon
Encoding: 58 58 29
Width: 264
GlyphClass: 2
Flags: W
LayerCount: 2
Fore
SplineSet
217 55 m 0,0,1
 217 25 217 25 199 5 c 128,-1,2
 181 -15 181 -15 144 -15 c 0,3,4
 87 -15 87 -15 87 43 c 0,5,6
 87 115 87 115 160 115 c 0,7,8
 217 115 217 115 217 55 c 0,0,1
217 418 m 0,9,10
 217 388 217 388 199 368 c 128,-1,11
 181 348 181 348 144 348 c 0,12,13
 87 348 87 348 87 406 c 0,14,15
 87 478 87 478 160 478 c 0,16,17
 217 478 217 478 217 418 c 0,9,10
EndSplineSet
EndChar

StartChar: semicolon
Encoding: 59 59 30
Width: 271
GlyphClass: 2
Flags: W
LayerCount: 2
Fore
SplineSet
217 418 m 0,0,1
 217 388 217 388 199 368 c 128,-1,2
 181 348 181 348 144 348 c 0,3,4
 87 348 87 348 87 406 c 0,5,6
 87 478 87 478 160 478 c 0,7,8
 217 478 217 478 217 418 c 0,0,1
86 -152 m 1,9,10
 81 -137 81 -137 81 -127.5 c 128,-1,11
 81 -118 81 -118 84 -103 c 1,12,13
 151 -103 151 -103 151 -34 c 0,14,15
 151 -9 151 -9 125 -6 c 0,16,17
 87 -3 87 -3 87 43 c 0,18,19
 87 78 87 78 103.5 96.5 c 128,-1,20
 120 115 120 115 163 115 c 0,21,22
 222 115 222 115 222 35 c 128,-1,23
 222 -45 222 -45 190 -98.5 c 128,-1,24
 158 -152 158 -152 86 -152 c 1,9,10
EndSplineSet
EndChar

StartChar: less
Encoding: 60 60 31
Width: 601
GlyphClass: 2
Flags: W
LayerCount: 2
Fore
SplineSet
74 287 m 1,0,1
 67 301 67 301 67 326.5 c 128,-1,2
 67 352 67 352 74 367 c 1,3,4
 198 414 198 414 368 518 c 0,5,6
 426 553 426 553 440 566 c 1,7,8
 449 555 449 555 461.5 530.5 c 128,-1,9
 474 506 474 506 478 486 c 1,10,11
 402 456 402 456 290.5 398 c 128,-1,12
 179 340 179 340 156 327 c 1,13,14
 203 301 203 301 298 251.5 c 128,-1,15
 393 202 393 202 478 168 c 1,16,17
 474 148 474 148 461.5 123.5 c 128,-1,18
 449 99 449 99 440 88 c 1,19,20
 426 101 426 101 368 136 c 0,21,22
 201 238 201 238 74 287 c 1,0,1
EndSplineSet
EndChar

StartChar: equal
Encoding: 61 61 32
Width: 601
GlyphClass: 2
Flags: W
LayerCount: 2
Fore
SplineSet
507 386 m 1,0,1
 415 395 415 395 328.5 395 c 128,-1,2
 242 395 242 395 175 390.5 c 128,-1,3
 108 386 108 386 90 381 c 1,4,5
 87 394 87 394 87 420.5 c 128,-1,6
 87 447 87 447 94 469 c 1,7,8
 163 460 163 460 261 460 c 0,9,10
 461 460 461 460 511 474 c 1,11,12
 514 461 514 461 514 434.5 c 128,-1,13
 514 408 514 408 507 386 c 1,0,1
507 186 m 1,14,15
 415 195 415 195 328.5 195 c 128,-1,16
 242 195 242 195 175 190.5 c 128,-1,17
 108 186 108 186 90 181 c 1,18,19
 87 195 87 195 87 221 c 128,-1,20
 87 247 87 247 94 269 c 1,21,22
 163 260 163 260 261 260 c 0,23,24
 461 260 461 260 511 274 c 1,25,26
 514 261 514 261 514 234.5 c 128,-1,27
 514 208 514 208 507 186 c 1,14,15
EndSplineSet
EndChar

StartChar: greater
Encoding: 62 62 33
Width: 601
GlyphClass: 2
Flags: W
LayerCount: 2
Fore
SplineSet
471 367 m 1,0,1
 478 352 478 352 478 326.5 c 128,-1,2
 478 301 478 301 471 287 c 1,3,4
 344 238 344 238 176 136 c 0,5,6
 119 101 119 101 105 88 c 1,7,8
 96 99 96 99 83.5 123.5 c 128,-1,9
 71 148 71 148 67 168 c 1,10,11
 152 202 152 202 247 251.5 c 128,-1,12
 342 301 342 301 389 327 c 1,13,14
 343 353 343 353 279 385 c 1,15,16
 152 452 152 452 67 486 c 1,17,18
 71 506 71 506 83.5 530.5 c 128,-1,19
 96 555 96 555 105 566 c 1,20,21
 119 553 119 553 176 518 c 0,22,23
 344 416 344 416 471 367 c 1,0,1
EndSplineSet
EndChar

StartChar: question
Encoding: 63 63 34
Width: 459
GlyphClass: 2
Flags: W
LayerCount: 2
Fore
SplineSet
235 617 m 128,-1,1
 199 617 199 617 177 598 c 1,2,3
 186 583 186 583 186 559 c 128,-1,4
 186 535 186 535 171 516.5 c 128,-1,5
 156 498 156 498 127 498 c 0,6,7
 80 498 80 498 80 554.5 c 128,-1,8
 80 611 80 611 128 642 c 128,-1,9
 176 673 176 673 238.5 673 c 128,-1,10
 301 673 301 673 353 635 c 128,-1,11
 405 597 405 597 405 531 c 0,12,13
 405 468 405 468 347 417 c 0,14,15
 323 396 323 396 298 376 c 0,16,17
 240 330 240 330 240 285.5 c 128,-1,18
 240 241 240 241 271 207 c 1,19,20
 246 174 246 174 210 170 c 1,21,22
 172 240 172 240 172 289.5 c 128,-1,23
 172 339 172 339 226 396 c 0,24,25
 234 405 234 405 257.5 428.5 c 128,-1,26
 281 452 281 452 291 464 c 0,27,28
 322 501 322 501 322 535 c 128,-1,29
 322 569 322 569 296.5 593 c 128,-1,0
 271 617 271 617 235 617 c 128,-1,1
298 55 m 0,30,31
 298 25 298 25 280 5 c 128,-1,32
 262 -15 262 -15 225 -15 c 0,33,34
 168 -15 168 -15 168 43 c 0,35,36
 168 115 168 115 241 115 c 0,37,38
 298 115 298 115 298 55 c 0,30,31
EndSplineSet
EndChar

StartChar: at
Encoding: 64 64 35
Width: 858
GlyphClass: 2
Flags: W
LayerCount: 2
Fore
SplineSet
541 -34 m 1,0,1
 545 -42 545 -42 545 -66 c 128,-1,2
 545 -90 545 -90 537 -112 c 1,3,4
 465 -137 465 -137 359 -137 c 0,5,6
 211 -137 211 -137 135.5 -59.5 c 128,-1,7
 60 18 60 18 60 170 c 0,8,9
 60 393 60 393 168.5 514 c 128,-1,10
 277 635 277 635 477 635 c 0,11,12
 633 635 633 635 715.5 554.5 c 128,-1,13
 798 474 798 474 798 322 c 0,14,15
 798 204 798 204 728 117 c 128,-1,16
 658 30 658 30 562 30 c 0,17,18
 517 30 517 30 503 97 c 1,19,20
 428 30 428 30 358 30 c 0,21,22
 306 30 306 30 278.5 71.5 c 128,-1,23
 251 113 251 113 251 191 c 0,24,25
 251 318 251 318 304 395.5 c 128,-1,26
 357 473 357 473 444.5 473 c 128,-1,27
 532 473 532 473 615 450 c 1,28,29
 572 268 572 268 572 142 c 0,30,31
 572 91 572 91 601 91 c 0,32,33
 645 91 645 91 682.5 163 c 128,-1,34
 720 235 720 235 720 319 c 0,35,36
 720 450 720 450 659.5 512.5 c 128,-1,37
 599 575 599 575 471 575 c 0,38,39
 311 575 311 575 226.5 471.5 c 128,-1,40
 142 368 142 368 142 173 c 0,41,42
 142 -73 142 -73 348 -73 c 0,43,44
 427 -73 427 -73 541 -34 c 1,0,1
439 423 m 128,-1,46
 390 423 390 423 359 360 c 128,-1,47
 328 297 328 297 328 198 c 128,-1,48
 328 99 328 99 392 99 c 0,49,50
 416 99 416 99 446.5 114 c 128,-1,51
 477 129 477 129 501 153 c 1,52,53
 505 183 505 183 530 402 c 1,54,45
 488 423 488 423 439 423 c 128,-1,46
EndSplineSet
EndChar

StartChar: A
Encoding: 65 65 36
Width: 561
GlyphClass: 2
Flags: W
LayerCount: 2
Fore
SplineSet
151 613 m 128,-1,1
 151 632 151 632 152 638 c 1,2,3
 240 649 240 649 283 649 c 128,-1,4
 326 649 326 649 356 639 c 1,5,6
 380 451 380 451 523 58 c 1,7,-1
 560 55 l 1,8,9
 562 33 562 33 562 24.5 c 128,-1,10
 562 16 562 16 559 -1 c 1,11,12
 531 0 531 0 472 0 c 128,-1,13
 413 0 413 0 390 -1 c 1,14,15
 387 14 387 14 387 27.5 c 128,-1,16
 387 41 387 41 389 55 c 1,17,-1
 424 58 l 1,18,19
 419 82 419 82 408 127.5 c 128,-1,20
 397 173 397 173 396 178 c 1,21,22
 339 181 339 181 272.5 181 c 128,-1,23
 206 181 206 181 148 177 c 1,24,-1
 120 58 l 1,25,-1
 158 55 l 1,26,27
 160 33 160 33 160 24.5 c 128,-1,28
 160 16 160 16 157 -1 c 1,29,30
 133 0 133 0 78.5 0 c 128,-1,31
 24 0 24 0 2 -1 c 1,32,33
 -1 14 -1 14 -1 27.5 c 128,-1,34
 -1 41 -1 41 1 55 c 1,35,-1
 36 58 l 1,36,37
 156 387 156 387 194 579 c 1,38,-1
 154 582 l 1,39,0
 151 594 151 594 151 613 c 128,-1,1
166 247 m 1,40,41
 200 246 200 246 268 246 c 128,-1,42
 336 246 336 246 378 249 c 1,43,44
 331 427 331 427 279 578 c 1,45,-1
 273 578 l 1,46,47
 214 435 214 435 166 247 c 1,40,41
EndSplineSet
EndChar

StartChar: B
Encoding: 66 66 37
Width: 575
GlyphClass: 2
Flags: W
LayerCount: 2
Fore
SplineSet
108 61 m 1,0,1
 117 163 117 163 117 331.5 c 128,-1,2
 117 500 117 500 107 579 c 1,3,-1
 68 582 l 1,4,5
 65 594 65 594 65 613 c 128,-1,6
 65 632 65 632 66 638 c 1,7,8
 130 639 130 639 180 647 c 128,-1,9
 230 655 230 655 286 655 c 0,10,11
 387 655 387 655 439.5 608.5 c 128,-1,12
 492 562 492 562 492 468 c 128,-1,13
 492 374 492 374 428 326 c 1,14,15
 535 283 535 283 535 173 c 0,16,17
 535 80 535 80 477 32.5 c 128,-1,18
 419 -15 419 -15 306 -15 c 0,19,20
 243 -15 243 -15 189 -7 c 1,21,22
 94 0 94 0 66 2 c 1,23,24
 65 8 65 8 65 26 c 128,-1,25
 65 44 65 44 68 58 c 1,26,-1
 108 61 l 1,0,1
250 372 m 1,27,28
 272 357 272 357 314.5 357 c 128,-1,29
 357 357 357 357 381 385.5 c 128,-1,30
 405 414 405 414 405 471.5 c 128,-1,31
 405 529 405 529 373 563.5 c 128,-1,32
 341 598 341 598 282 598 c 0,33,34
 245 598 245 598 200 580 c 1,35,36
 192 497 192 497 192 338 c 128,-1,37
 192 179 192 179 200 77 c 1,38,39
 259 54 259 54 307 54 c 0,40,41
 448 54 448 54 448 173 c 0,42,43
 448 273 448 273 355 295 c 1,44,45
 325 290 325 290 296.5 290 c 128,-1,46
 268 290 268 290 229 305 c 1,47,48
 229 351 229 351 250 372 c 1,27,28
EndSplineSet
EndChar

StartChar: C
Encoding: 67 67 38
Width: 536
GlyphClass: 2
Flags: W
LayerCount: 2
Fore
SplineSet
395 469 m 128,-1,1
 378 488 378 488 378 518.5 c 128,-1,2
 378 549 378 549 391 566 c 1,3,4
 359 596 359 596 303 596 c 0,5,6
 221 596 221 596 179 527.5 c 128,-1,7
 137 459 137 459 137 326 c 0,8,9
 137 59 137 59 303 59 c 0,10,11
 343 59 343 59 384.5 78.5 c 128,-1,12
 426 98 426 98 455 130 c 1,13,14
 486 105 486 105 495 51 c 1,15,16
 406 -15 406 -15 303 -15 c 0,17,18
 172 -15 172 -15 113.5 66 c 128,-1,19
 55 147 55 147 55 318 c 0,20,21
 55 655 55 655 303 655 c 0,22,23
 378 655 378 655 436.5 615.5 c 128,-1,24
 495 576 495 576 495 513 c 128,-1,25
 495 450 495 450 443 450 c 0,26,0
 412 450 412 450 395 469 c 128,-1,1
EndSplineSet
EndChar

StartChar: D
Encoding: 68 68 39
Width: 607
GlyphClass: 2
Flags: W
LayerCount: 2
Fore
SplineSet
299 -15 m 0,0,1
 236 -15 236 -15 181.5 -8 c 128,-1,2
 127 -1 127 -1 66 2 c 1,3,4
 65 8 65 8 65 26 c 128,-1,5
 65 44 65 44 68 58 c 1,6,-1
 108 61 l 1,7,8
 117 163 117 163 117 331.5 c 128,-1,9
 117 500 117 500 107 579 c 1,10,-1
 68 582 l 1,11,12
 65 594 65 594 65 613 c 128,-1,13
 65 632 65 632 66 638 c 1,14,15
 132 639 132 639 185 647 c 128,-1,16
 238 655 238 655 299 655 c 0,17,18
 426 655 426 655 494 569.5 c 128,-1,19
 562 484 562 484 562 325 c 0,20,21
 562 -15 562 -15 299 -15 c 0,0,1
299 56 m 0,22,23
 385 56 385 56 430.5 125 c 128,-1,24
 476 194 476 194 476 324.5 c 128,-1,25
 476 455 476 455 430 525.5 c 128,-1,26
 384 596 384 596 298 596 c 0,27,28
 248 596 248 596 199 577 c 1,29,30
 192 492 192 492 192 330 c 128,-1,31
 192 168 192 168 200 77 c 1,32,33
 247 56 247 56 299 56 c 0,22,23
EndSplineSet
EndChar

StartChar: E
Encoding: 69 69 40
Width: 519
GlyphClass: 2
Flags: W
LayerCount: 2
Fore
SplineSet
369 406 m 1,0,1
 391 408 391 408 399 408 c 128,-1,2
 407 408 407 408 425 405 c 1,3,4
 424 374 424 374 424 325 c 128,-1,5
 424 276 424 276 425 261 c 1,6,7
 410 258 410 258 396 258 c 128,-1,8
 382 258 382 258 369 260 c 1,9,-1
 366 295 l 1,10,11
 312 297 312 297 277 297 c 128,-1,12
 242 297 242 297 188 295 c 1,13,14
 188 164 188 164 195 76 c 1,15,16
 230 73 230 73 294.5 73 c 128,-1,17
 359 73 359 73 396 78 c 1,18,-1
 399 146 l 1,19,20
 416 149 416 149 430.5 149 c 128,-1,21
 445 149 445 149 455 148 c 1,22,23
 456 70 456 70 464 0 c 1,24,-1
 459 -5 l 1,25,26
 410 0 410 0 244.5 0 c 128,-1,27
 79 0 79 0 70 -1 c 1,28,29
 67 14 67 14 67 27.5 c 128,-1,30
 67 41 67 41 69 55 c 1,31,-1
 104 58 l 1,32,33
 113 213 113 213 113 338.5 c 128,-1,34
 113 464 113 464 101 581 c 1,35,-1
 67 584 l 1,36,37
 65 597 65 597 65 611 c 128,-1,38
 65 625 65 625 68 640 c 1,39,40
 93 639 93 639 251 639 c 128,-1,41
 409 639 409 639 454 648 c 1,42,-1
 459 643 l 1,43,44
 451 555 451 555 450 501 c 1,45,46
 440 500 440 500 425 500 c 128,-1,47
 410 500 410 500 394 503 c 1,48,-1
 391 571 l 1,49,50
 340 574 340 574 285 574 c 128,-1,51
 230 574 230 574 194 571 c 1,52,53
 188 508 188 508 188 365 c 1,54,55
 204 364 204 364 253 364 c 128,-1,56
 302 364 302 364 366 368 c 1,57,-1
 369 406 l 1,0,1
EndSplineSet
EndChar

StartChar: F
Encoding: 70 70 41
Width: 479
GlyphClass: 2
Flags: W
LayerCount: 2
Fore
SplineSet
359 396 m 1,0,1
 381 398 381 398 389 398 c 128,-1,2
 397 398 397 398 415 395 c 1,3,4
 414 365 414 365 414 319 c 128,-1,5
 414 273 414 273 415 251 c 1,6,7
 400 248 400 248 386 248 c 128,-1,8
 372 248 372 248 359 250 c 1,9,-1
 356 285 l 1,10,11
 302 287 302 287 273 287 c 128,-1,12
 244 287 244 287 188 285 c 1,13,14
 190 133 190 133 197 58 c 1,15,-1
 252 54 l 1,16,-1
 254 30 l 1,17,18
 254 14 254 14 251 -1 c 1,19,20
 225 0 225 0 157.5 0 c 128,-1,21
 90 0 90 0 69 -1 c 1,22,23
 66 14 66 14 66 27.5 c 128,-1,24
 66 41 66 41 68 55 c 1,25,-1
 105 58 l 1,26,27
 113 156 113 156 113 310 c 128,-1,28
 113 464 113 464 101 581 c 1,29,-1
 67 584 l 1,30,31
 65 597 65 597 65 611 c 128,-1,32
 65 625 65 625 68 640 c 1,33,34
 93 639 93 639 246 639 c 128,-1,35
 399 639 399 639 444 648 c 1,36,-1
 449 643 l 1,37,38
 441 555 441 555 440 501 c 1,39,40
 430 500 430 500 415 500 c 128,-1,41
 400 500 400 500 384 503 c 1,42,-1
 381 571 l 1,43,44
 330 574 330 574 281.5 574 c 128,-1,45
 233 574 233 574 194 571 c 1,46,47
 188 505 188 505 188 354 c 1,48,-1
 237 354 l 2,49,50
 292 354 292 354 356 358 c 1,51,-1
 359 396 l 1,0,1
EndSplineSet
EndChar

StartChar: G
Encoding: 71 71 42
Width: 570
GlyphClass: 2
Flags: W
LayerCount: 2
Fore
SplineSet
505 51 m 1,0,1
 416 -15 416 -15 295 -15 c 128,-1,2
 174 -15 174 -15 114.5 67 c 128,-1,3
 55 149 55 149 55 318 c 0,4,5
 55 655 55 655 306 655 c 0,6,7
 376 655 376 655 425 627.5 c 128,-1,8
 474 600 474 600 495 549 c 1,9,10
 501 531 501 531 501 510 c 0,11,12
 501 450 501 450 449 450 c 0,13,14
 418 450 418 450 401 469 c 128,-1,15
 384 488 384 488 384 518 c 128,-1,16
 384 548 384 548 396 565 c 1,17,18
 364 596 364 596 306 596 c 0,19,20
 223 596 223 596 180 527.5 c 128,-1,21
 137 459 137 459 137 326 c 0,22,23
 137 59 137 59 303 59 c 0,24,25
 384 59 384 59 440 105 c 1,26,27
 439 185 439 185 433 242 c 1,28,29
 313 238 313 238 272 231 c 1,30,31
 267 258 267 258 267 283 c 128,-1,32
 267 308 267 308 268 317 c 1,33,34
 319 309 319 309 396 309 c 128,-1,35
 473 309 473 309 515 312 c 1,36,37
 505 206 505 206 505 51 c 1,0,1
EndSplineSet
EndChar

StartChar: H
Encoding: 72 72 43
Width: 647
GlyphClass: 2
Flags: W
LayerCount: 2
Fore
SplineSet
230 55 m 1,0,1
 232 39 232 39 232 27.5 c 128,-1,2
 232 16 232 16 229 -1 c 1,3,4
 194 0 194 0 148 0 c 128,-1,5
 102 0 102 0 68 -1 c 1,6,7
 65 14 65 14 65 25.5 c 128,-1,8
 65 37 65 37 67 55 c 1,9,-1
 102 58 l 1,10,11
 110 166 110 166 110 333.5 c 128,-1,12
 110 501 110 501 101 584 c 1,13,-1
 67 587 l 1,14,15
 65 603 65 603 65 614.5 c 128,-1,16
 65 626 65 626 68 643 c 1,17,18
 103 642 103 642 149 642 c 128,-1,19
 195 642 195 642 229 643 c 1,20,21
 232 628 232 628 232 616.5 c 128,-1,22
 232 605 232 605 230 587 c 1,23,-1
 192 584 l 1,24,25
 185 496 185 496 185 359 c 1,26,27
 239 353 239 353 315 353 c 128,-1,28
 391 353 391 353 460 361 c 1,29,30
 458 520 458 520 451 584 c 1,31,-1
 417 587 l 1,32,33
 415 603 415 603 415 614.5 c 128,-1,34
 415 626 415 626 418 643 c 1,35,36
 453 642 453 642 499 642 c 128,-1,37
 545 642 545 642 579 643 c 1,38,39
 582 628 582 628 582 616.5 c 128,-1,40
 582 605 582 605 580 587 c 1,41,-1
 542 584 l 1,42,43
 535 503 535 503 535 333 c 128,-1,44
 535 163 535 163 544 58 c 1,45,-1
 580 55 l 1,46,47
 582 39 582 39 582 27.5 c 128,-1,48
 582 16 582 16 579 -1 c 1,49,50
 544 0 544 0 498 0 c 128,-1,51
 452 0 452 0 418 -1 c 1,52,53
 415 14 415 14 415 25.5 c 128,-1,54
 415 37 415 37 417 55 c 1,55,-1
 452 58 l 1,56,57
 458 145 458 145 460 281 c 1,58,59
 396 288 396 288 315 288 c 128,-1,60
 234 288 234 288 185 281 c 1,61,62
 187 139 187 139 194 58 c 1,63,-1
 230 55 l 1,0,1
EndSplineSet
EndChar

StartChar: I
Encoding: 73 73 44
Width: 317
GlyphClass: 2
Flags: W
LayerCount: 2
Fore
SplineSet
202 584 m 1,0,1
 195 503 195 503 195 333 c 128,-1,2
 195 163 195 163 204 58 c 1,3,-1
 240 55 l 1,4,5
 242 39 242 39 242 27.5 c 128,-1,6
 242 16 242 16 239 -1 c 1,7,8
 204 0 204 0 158 0 c 128,-1,9
 112 0 112 0 78 -1 c 1,10,11
 75 14 75 14 75 25.5 c 128,-1,12
 75 37 75 37 77 55 c 1,13,-1
 112 58 l 1,14,15
 120 166 120 166 120 333.5 c 128,-1,16
 120 501 120 501 111 584 c 1,17,-1
 77 587 l 1,18,19
 75 603 75 603 75 614.5 c 128,-1,20
 75 626 75 626 78 643 c 1,21,22
 113 642 113 642 159 642 c 128,-1,23
 205 642 205 642 239 643 c 1,24,25
 242 628 242 628 242 616.5 c 128,-1,26
 242 605 242 605 240 587 c 1,27,-1
 202 584 l 1,0,1
EndSplineSet
EndChar

StartChar: J
Encoding: 74 74 45
Width: 281
GlyphClass: 2
Flags: W
LayerCount: 2
Fore
SplineSet
61 587 m 1,0,1
 59 609 59 609 59 617 c 128,-1,2
 59 625 59 625 62 643 c 1,3,4
 89 642 89 642 143.5 642 c 128,-1,5
 198 642 198 642 223 643 c 1,6,7
 226 628 226 628 226 620.5 c 128,-1,8
 226 613 226 613 224 587 c 1,9,-1
 189 584 l 1,10,11
 182 489 182 489 182 255 c 2,12,-1
 182 102 l 2,13,14
 182 -59 182 -59 148 -119.5 c 128,-1,15
 114 -180 114 -180 23 -180 c 0,16,17
 -12 -180 -12 -180 -51 -167 c 128,-1,18
 -90 -154 -90 -154 -117 -134 c 1,19,20
 -113 -110 -113 -110 -103 -90 c 128,-1,21
 -93 -70 -93 -70 -85 -62 c 2,22,-1
 -77 -55 l 1,23,24
 -39 -106 -39 -106 16 -106 c 128,-1,25
 71 -106 71 -106 89 -58.5 c 128,-1,26
 107 -11 107 -11 107 121 c 2,27,-1
 107 290 l 2,28,29
 107 496 107 496 98 584 c 1,30,-1
 61 587 l 1,0,1
EndSplineSet
EndChar

StartChar: K
Encoding: 75 75 46
Width: 532
GlyphClass: 2
Flags: W
LayerCount: 2
Fore
SplineSet
345 586 m 1,0,1
 343 608 343 608 343 616 c 128,-1,2
 343 624 343 624 346 642 c 1,3,4
 370 641 370 641 429.5 641 c 128,-1,5
 489 641 489 641 511 642 c 1,6,7
 514 627 514 627 514 619.5 c 128,-1,8
 514 612 514 612 512 586 c 1,9,-1
 475 583 l 1,10,-1
 280 352 l 1,11,12
 381 198 381 198 414 151 c 128,-1,13
 447 104 447 104 482 63 c 1,14,-1
 529 60 l 1,15,16
 531 44 531 44 531 30 c 128,-1,17
 531 16 531 16 528 2 c 1,18,-1
 409 -3 l 1,19,20
 402 30 402 30 284 204 c 0,21,22
 234 278 234 278 229 287 c 1,23,-1
 186 232 l 1,24,25
 188 130 188 130 194 58 c 1,26,-1
 230 55 l 1,27,28
 232 33 232 33 232 24.5 c 128,-1,29
 232 16 232 16 229 -1 c 1,30,31
 201 0 201 0 147 0 c 128,-1,32
 93 0 93 0 68 -1 c 1,33,34
 65 14 65 14 65 27.5 c 128,-1,35
 65 41 65 41 67 55 c 1,36,-1
 102 58 l 1,37,38
 110 168 110 168 110 335.5 c 128,-1,39
 110 503 110 503 101 584 c 1,40,-1
 67 587 l 1,41,42
 65 609 65 609 65 617 c 128,-1,43
 65 625 65 625 68 643 c 1,44,45
 95 642 95 642 149.5 642 c 128,-1,46
 204 642 204 642 229 643 c 1,47,48
 232 628 232 628 232 620.5 c 128,-1,49
 232 613 232 613 230 587 c 1,50,-1
 192 584 l 1,51,52
 185 496 185 496 185 319 c 1,53,54
 344 522 344 522 382 583 c 1,55,-1
 345 586 l 1,0,1
EndSplineSet
EndChar

StartChar: L
Encoding: 76 76 47
Width: 443
GlyphClass: 2
Flags: W
LayerCount: 2
Fore
SplineSet
102 58 m 1,0,1
 111 196 111 196 111 349 c 128,-1,2
 111 502 111 502 102 584 c 1,3,-1
 68 587 l 1,4,5
 66 603 66 603 66 614.5 c 128,-1,6
 66 626 66 626 69 643 c 1,7,8
 104 642 104 642 150 642 c 128,-1,9
 196 642 196 642 230 643 c 1,10,11
 233 628 233 628 233 616.5 c 128,-1,12
 233 605 233 605 231 587 c 1,13,-1
 193 584 l 1,14,15
 186 490 186 490 186 325.5 c 128,-1,16
 186 161 186 161 193 76 c 1,17,18
 224 73 224 73 283.5 73 c 128,-1,19
 343 73 343 73 374 78 c 1,20,-1
 377 146 l 1,21,22
 394 149 394 149 407.5 149 c 128,-1,23
 421 149 421 149 433 148 c 1,24,25
 436 72 436 72 442 0 c 1,26,-1
 437 -5 l 1,27,28
 390 0 390 0 246 0 c 128,-1,29
 102 0 102 0 68 -1 c 1,30,31
 65 14 65 14 65 25.5 c 128,-1,32
 65 37 65 37 67 55 c 1,33,-1
 102 58 l 1,0,1
EndSplineSet
EndChar

StartChar: M
Encoding: 77 77 48
Width: 790
GlyphClass: 2
Flags: W
LayerCount: 2
Fore
SplineSet
716 613 m 128,-1,1
 716 596 716 596 713 582 c 1,2,-1
 675 579 l 1,3,4
 674 551 674 551 674 496 c 0,5,6
 674 251 674 251 696 58 c 1,7,-1
 733 55 l 1,8,9
 735 39 735 39 735 27.5 c 128,-1,10
 735 16 735 16 732 -1 c 1,11,12
 697 0 697 0 651 0 c 128,-1,13
 605 0 605 0 571 -1 c 1,14,15
 568 14 568 14 568 25.5 c 128,-1,16
 568 37 568 37 570 55 c 1,17,-1
 603 58 l 1,18,19
 605 130 605 130 605 222.5 c 128,-1,20
 605 315 605 315 596 480 c 1,21,22
 586 459 586 459 546 378 c 0,23,24
 457 201 457 201 424 117 c 1,25,26
 404 109 404 109 381.5 109 c 128,-1,27
 359 109 359 109 351 110 c 1,28,29
 316 194 316 194 251.5 313.5 c 128,-1,30
 187 433 187 433 175 455 c 1,31,32
 167 313 167 313 167 214.5 c 128,-1,33
 167 116 167 116 169 58 c 1,34,-1
 206 55 l 1,35,36
 208 39 208 39 208 27.5 c 128,-1,37
 208 16 208 16 205 -1 c 1,38,39
 173 0 173 0 131 0 c 128,-1,40
 89 0 89 0 58 -1 c 1,41,42
 55 14 55 14 55 25.5 c 128,-1,43
 55 37 55 37 57 55 c 1,44,-1
 92 58 l 1,45,46
 113 240 113 240 113 489 c 0,47,48
 113 537 113 537 110 579 c 1,49,-1
 73 582 l 1,50,51
 70 596 70 596 70 613 c 128,-1,52
 70 630 70 630 71 638 c 1,53,54
 153 640 153 640 195 643 c 1,55,56
 212 551 212 551 397 210 c 1,57,58
 550 509 550 509 576 643 c 1,59,60
 613 640 613 640 715 638 c 1,61,0
 716 630 716 630 716 613 c 128,-1,1
EndSplineSet
EndChar

StartChar: N
Encoding: 78 78 49
Width: 650
GlyphClass: 2
Flags: W
LayerCount: 2
Fore
SplineSet
483 145 m 1,0,1
 486 229 486 229 486 365 c 128,-1,2
 486 501 486 501 477 584 c 1,3,-1
 440 587 l 1,4,5
 438 603 438 603 438 614.5 c 128,-1,6
 438 626 438 626 441 643 c 1,7,8
 473 642 473 642 514.5 642 c 128,-1,9
 556 642 556 642 587 643 c 1,10,11
 590 628 590 628 590 616.5 c 128,-1,12
 590 605 590 605 588 587 c 1,13,-1
 553 584 l 1,14,15
 546 503 546 503 546 279.5 c 128,-1,16
 546 56 546 56 563 2 c 1,17,18
 533 -8 533 -8 519.5 -8 c 128,-1,19
 506 -8 506 -8 472 -6 c 1,20,21
 465 25 465 25 413 106.5 c 128,-1,22
 361 188 361 188 283.5 301 c 128,-1,23
 206 414 206 414 172 470 c 1,24,25
 171 427 171 427 171 295 c 128,-1,26
 171 163 171 163 180 58 c 1,27,-1
 217 55 l 1,28,29
 219 39 219 39 219 27.5 c 128,-1,30
 219 16 219 16 216 -1 c 1,31,32
 184 0 184 0 142 0 c 128,-1,33
 100 0 100 0 69 -1 c 1,34,35
 66 14 66 14 66 25.5 c 128,-1,36
 66 37 66 37 68 55 c 1,37,-1
 103 58 l 1,38,39
 111 166 111 166 111 331.5 c 128,-1,40
 111 497 111 497 102 579 c 1,41,-1
 63 582 l 1,42,43
 60 596 60 596 60 613 c 128,-1,44
 60 630 60 630 61 638 c 1,45,46
 146 640 146 640 187 643 c 1,47,48
 206 571 206 571 295 427 c 128,-1,49
 384 283 384 283 483 145 c 1,0,1
EndSplineSet
EndChar

StartChar: O
Encoding: 79 79 50
Width: 601
GlyphClass: 2
Flags: W
LayerCount: 2
Fore
SplineSet
55 327 m 0,0,1
 55 655 55 655 300.5 655 c 128,-1,2
 546 655 546 655 546 327 c 0,3,4
 546 267 546 267 541.5 222 c 128,-1,5
 537 177 537 177 521.5 130 c 128,-1,6
 506 83 506 83 480 53 c 128,-1,7
 454 23 454 23 408.5 4 c 128,-1,8
 363 -15 363 -15 300.5 -15 c 128,-1,9
 238 -15 238 -15 192.5 4 c 128,-1,10
 147 23 147 23 121 53 c 128,-1,11
 95 83 95 83 79.5 130 c 128,-1,12
 64 177 64 177 59.5 222 c 128,-1,13
 55 267 55 267 55 327 c 0,0,1
216 81 m 0,14,15
 250 59 250 59 300.5 59 c 128,-1,16
 351 59 351 59 385.5 81 c 128,-1,17
 420 103 420 103 437 144 c 0,18,19
 467 215 467 215 467 326 c 0,20,21
 467 596 467 596 300.5 596 c 128,-1,22
 134 596 134 596 134 326 c 0,23,24
 134 133 134 133 216 81 c 0,14,15
EndSplineSet
EndChar

StartChar: P
Encoding: 80 80 51
Width: 531
GlyphClass: 2
Flags: W
LayerCount: 2
Fore
SplineSet
249 331 m 1,0,1
 278 302 278 302 318.5 302 c 128,-1,2
 359 302 359 302 384 327 c 0,3,4
 424 368 424 368 424 449 c 0,5,6
 424 598 424 598 292 598 c 0,7,8
 250 598 250 598 198 576 c 1,9,10
 191 497 191 497 191 330 c 128,-1,11
 191 163 191 163 200 58 c 1,12,-1
 257 54 l 1,13,14
 259 38 259 38 259 25 c 128,-1,15
 259 12 259 12 256 -1 c 1,16,17
 220 0 220 0 162.5 0 c 128,-1,18
 105 0 105 0 74 -1 c 1,19,20
 71 14 71 14 71 25.5 c 128,-1,21
 71 37 71 37 73 55 c 1,22,-1
 108 58 l 1,23,24
 116 165 116 165 116 331.5 c 128,-1,25
 116 498 116 498 106 579 c 1,26,-1
 68 582 l 1,27,28
 65 596 65 596 65 613 c 128,-1,29
 65 630 65 630 66 638 c 1,30,31
 108 640 108 640 181 647 c 1,32,33
 232 655 232 655 293 655 c 0,34,35
 411 655 411 655 461 601.5 c 128,-1,36
 511 548 511 548 511 451.5 c 128,-1,37
 511 355 511 355 460.5 295 c 128,-1,38
 410 235 410 235 307 235 c 0,39,40
 267 235 267 235 228 250 c 1,41,42
 228 277 228 277 235 300 c 128,-1,43
 242 323 242 323 249 331 c 1,0,1
EndSplineSet
EndChar

StartChar: Q
Encoding: 81 81 52
Width: 601
GlyphClass: 2
Flags: W
LayerCount: 2
Fore
SplineSet
468 -170 m 0,0,1
 337 -170 337 -170 270 -14 c 1,2,3
 118 -3 118 -3 76 138 c 0,4,5
 55 210 55 210 55 327 c 0,6,7
 55 655 55 655 300.5 655 c 128,-1,8
 546 655 546 655 546 327 c 0,9,10
 546 258 546 258 539 207 c 128,-1,11
 532 156 532 156 512 106 c 0,12,13
 473 7 473 7 351 -11 c 1,14,15
 389 -100 389 -100 472 -100 c 0,16,17
 507 -100 507 -100 544 -79.5 c 128,-1,18
 581 -59 581 -59 607 -24 c 1,19,20
 634 -51 634 -51 642 -109 c 1,21,22
 567 -170 567 -170 468 -170 c 0,0,1
216 81 m 0,23,24
 250 59 250 59 300.5 59 c 128,-1,25
 351 59 351 59 385.5 81 c 128,-1,26
 420 103 420 103 437 144 c 0,27,28
 467 215 467 215 467 326 c 0,29,30
 467 596 467 596 300.5 596 c 128,-1,31
 134 596 134 596 134 326 c 0,32,33
 134 133 134 133 216 81 c 0,23,24
EndSplineSet
EndChar

StartChar: R
Encoding: 82 82 53
Width: 564
GlyphClass: 2
Flags: W
LayerCount: 2
Fore
SplineSet
249 349 m 1,0,1
 278 322 278 322 322.5 322 c 128,-1,2
 367 322 367 322 395.5 359.5 c 128,-1,3
 424 397 424 397 424 459 c 0,4,5
 424 598 424 598 292 598 c 0,6,7
 247 598 247 598 198 578 c 1,8,9
 191 491 191 491 191 331 c 128,-1,10
 191 171 191 171 200 58 c 1,11,-1
 237 55 l 1,12,13
 239 33 239 33 239 24.5 c 128,-1,14
 239 16 239 16 236 -1 c 1,15,16
 207 0 207 0 151 0 c 128,-1,17
 95 0 95 0 74 -1 c 1,18,19
 71 14 71 14 71 27.5 c 128,-1,20
 71 41 71 41 73 55 c 1,21,-1
 108 58 l 1,22,23
 116 168 116 168 116 334 c 128,-1,24
 116 500 116 500 106 579 c 1,25,-1
 68 582 l 1,26,27
 65 594 65 594 65 613 c 128,-1,28
 65 632 65 632 66 638 c 1,29,30
 133 640 133 640 184 647.5 c 128,-1,31
 235 655 235 655 293 655 c 0,32,33
 511 655 511 655 511 459 c 0,34,35
 511 380 511 380 472 329 c 128,-1,36
 433 278 433 278 363 265 c 1,37,38
 462 108 462 108 500 63 c 1,39,-1
 547 60 l 1,40,41
 549 44 549 44 549 30.5 c 128,-1,42
 549 17 549 17 546 2 c 1,43,44
 455 -1 455 -1 419 -3 c 1,45,-1
 415 8 l 1,46,47
 398 50 398 50 373.5 95.5 c 128,-1,48
 349 141 349 141 271 263 c 1,49,50
 250 264 250 264 228 274 c 1,51,52
 228 294 228 294 234.5 317.5 c 128,-1,53
 241 341 241 341 249 349 c 1,0,1
EndSplineSet
EndChar

StartChar: S
Encoding: 83 83 54
Width: 480
GlyphClass: 2
Flags: W
LayerCount: 2
Fore
SplineSet
132 176 m 128,-1,1
 149 157 149 157 149 129.5 c 128,-1,2
 149 102 149 102 140 85 c 1,3,4
 184 49 184 49 241.5 49 c 128,-1,5
 299 49 299 49 328 75.5 c 128,-1,6
 357 102 357 102 357 148 c 128,-1,7
 357 194 357 194 325 227 c 128,-1,8
 293 260 293 260 247.5 282 c 128,-1,9
 202 304 202 304 157 328.5 c 128,-1,10
 112 353 112 353 80 394 c 128,-1,11
 48 435 48 435 48 491 c 0,12,13
 48 568 48 568 99 611.5 c 128,-1,14
 150 655 150 655 230 655 c 128,-1,15
 310 655 310 655 368.5 617 c 128,-1,16
 427 579 427 579 427 514.5 c 128,-1,17
 427 450 427 450 375 450 c 0,18,19
 344 450 344 450 327 469 c 128,-1,20
 310 488 310 488 310 518 c 128,-1,21
 310 548 310 548 322 564 c 1,22,23
 287 596 287 596 236 596 c 128,-1,24
 185 596 185 596 159.5 570 c 128,-1,25
 134 544 134 544 134 505 c 128,-1,26
 134 466 134 466 157 438.5 c 128,-1,27
 180 411 180 411 214 393.5 c 128,-1,28
 248 376 248 376 288 353.5 c 128,-1,29
 328 331 328 331 362 309 c 128,-1,30
 396 287 396 287 419 249.5 c 128,-1,31
 442 212 442 212 442 164 c 0,32,33
 442 85 442 85 387.5 35 c 128,-1,34
 333 -15 333 -15 248 -15 c 128,-1,35
 163 -15 163 -15 97.5 24.5 c 128,-1,36
 32 64 32 64 32 135 c 0,37,38
 32 195 32 195 84 195 c 0,39,0
 115 195 115 195 132 176 c 128,-1,1
EndSplineSet
EndChar

StartChar: T
Encoding: 84 84 55
Width: 481
GlyphClass: 2
Flags: W
LayerCount: 2
Fore
SplineSet
282 574 m 1,0,1
 275 496 275 496 275 323.5 c 128,-1,2
 275 151 275 151 283 58 c 1,3,-1
 341 52 l 1,4,5
 343 36 343 36 343 26.5 c 128,-1,6
 343 17 343 17 340 -1 c 1,7,8
 304 0 304 0 236.5 0 c 128,-1,9
 169 0 169 0 138 -1 c 1,10,11
 135 14 135 14 135 24 c 128,-1,12
 135 34 135 34 137 52 c 1,13,-1
 192 58 l 1,14,15
 200 165 200 165 200 329.5 c 128,-1,16
 200 494 200 494 191 574 c 1,17,18
 152 573 152 573 83 567 c 1,19,-1
 80 493 l 1,20,21
 64 490 64 490 50 490 c 128,-1,22
 36 490 36 490 24 491 c 1,23,24
 21 573 21 573 15 643 c 1,25,-1
 20 648 l 1,26,27
 94 639 94 639 257 639 c 128,-1,28
 420 639 420 639 461 648 c 1,29,-1
 466 643 l 1,30,31
 459 566 459 566 457 501 c 1,32,33
 445 500 445 500 431.5 500 c 128,-1,34
 418 500 418 500 401 503 c 1,35,-1
 398 570 l 1,36,37
 356 572 356 572 282 574 c 1,0,1
EndSplineSet
EndChar

StartChar: U
Encoding: 85 85 56
Width: 644
GlyphClass: 2
Flags: W
LayerCount: 2
Fore
SplineSet
483 276 m 0,0,1
 483 492 483 492 473 584 c 1,2,-1
 438 587 l 1,3,4
 436 603 436 603 436 614.5 c 128,-1,5
 436 626 436 626 439 643 c 1,6,7
 471 642 471 642 513 642 c 128,-1,8
 555 642 555 642 586 643 c 1,9,10
 589 628 589 628 589 616.5 c 128,-1,11
 589 605 589 605 587 587 c 1,12,-1
 554 584 l 1,13,14
 546 486 546 486 546 351.5 c 128,-1,15
 546 217 546 217 542 176.5 c 128,-1,16
 538 136 538 136 524.5 97 c 128,-1,17
 511 58 511 58 487 35 c 0,18,19
 435 -15 435 -15 325 -15 c 0,20,21
 184 -15 184 -15 140 64 c 1,22,23
 118 106 118 106 110.5 154 c 128,-1,24
 103 202 103 202 103 347 c 128,-1,25
 103 492 103 492 93 584 c 1,26,-1
 57 587 l 1,27,28
 55 603 55 603 55 614.5 c 128,-1,29
 55 626 55 626 58 643 c 1,30,31
 93 642 93 642 139 642 c 128,-1,32
 185 642 185 642 219 643 c 1,33,34
 222 628 222 628 222 616.5 c 128,-1,35
 222 605 222 605 220 587 c 1,36,-1
 186 584 l 1,37,38
 178 486 178 486 178 276 c 0,39,40
 178 164 178 164 209 111.5 c 128,-1,41
 240 59 240 59 332 59 c 128,-1,42
 424 59 424 59 453.5 111.5 c 128,-1,43
 483 164 483 164 483 276 c 0,0,1
EndSplineSet
EndChar

StartChar: V
Encoding: 86 86 57
Width: 569
GlyphClass: 2
Flags: W
LayerCount: 2
Fore
SplineSet
3 587 m 1,0,1
 1 603 1 603 1 614.5 c 128,-1,2
 1 626 1 626 4 643 c 1,3,4
 39 642 39 642 91.5 642 c 128,-1,5
 144 642 144 642 182 643 c 1,6,7
 185 628 185 628 185 616.5 c 128,-1,8
 185 605 185 605 183 587 c 1,9,-1
 148 584 l 1,10,11
 169 470 169 470 209 328.5 c 128,-1,12
 249 187 249 187 290 87 c 1,13,-1
 296 87 l 1,14,15
 332 175 332 175 373.5 328 c 128,-1,16
 415 481 415 481 432 584 c 1,17,-1
 395 587 l 1,18,19
 393 595 393 595 393 610.5 c 128,-1,20
 393 626 393 626 396 643 c 1,21,22
 432 642 432 642 483 642 c 128,-1,23
 534 642 534 642 565 643 c 1,24,25
 568 628 568 628 568 617.5 c 128,-1,26
 568 607 568 607 566 587 c 1,27,-1
 531 584 l 1,28,29
 486 464 486 464 422.5 276 c 128,-1,30
 359 88 359 88 337 0 c 1,31,32
 301 -9 301 -9 271.5 -9 c 128,-1,33
 242 -9 242 -9 233 -8 c 1,34,35
 130 361 130 361 40 584 c 1,36,-1
 3 587 l 1,0,1
EndSplineSet
EndChar

StartChar: W
Encoding: 87 87 58
Width: 814
GlyphClass: 2
Flags: W
LayerCount: 2
Fore
SplineSet
3 587 m 1,0,1
 1 603 1 603 1 614.5 c 128,-1,2
 1 626 1 626 4 643 c 1,3,4
 39 642 39 642 93 642 c 128,-1,5
 147 642 147 642 181 643 c 1,6,7
 184 628 184 628 184 613 c 128,-1,8
 184 598 184 598 182 587 c 1,9,-1
 147 584 l 1,10,11
 194 267 194 267 260 87 c 1,12,-1
 266 87 l 1,13,14
 297 163 297 163 325.5 297.5 c 128,-1,15
 354 432 354 432 369 550 c 1,16,17
 399 562 399 562 418.5 562 c 128,-1,18
 438 562 438 562 454 560 c 1,19,20
 499 256 499 256 564 87 c 1,21,-1
 570 87 l 1,22,23
 604 182 604 182 634 327.5 c 128,-1,24
 664 473 664 473 676 584 c 1,25,-1
 640 587 l 1,26,27
 638 595 638 595 638 610.5 c 128,-1,28
 638 626 638 626 641 643 c 1,29,30
 677 642 677 642 728 642 c 128,-1,31
 779 642 779 642 810 643 c 1,32,33
 813 628 813 628 813 617.5 c 128,-1,34
 813 607 813 607 811 587 c 1,35,-1
 776 584 l 1,36,37
 747 493 747 493 692 297.5 c 128,-1,38
 637 102 637 102 611 0 c 1,39,40
 575 -9 575 -9 545.5 -9 c 128,-1,41
 516 -9 516 -9 507 -8 c 1,42,43
 493 40 493 40 459.5 173 c 128,-1,44
 426 306 426 306 410 367 c 1,45,-1
 405 367 l 1,46,47
 338 124 338 124 307 0 c 1,48,49
 271 -9 271 -9 241.5 -9 c 128,-1,50
 212 -9 212 -9 203 -8 c 1,51,52
 199 5 199 5 137.5 245.5 c 128,-1,53
 76 486 76 486 40 584 c 1,54,-1
 3 587 l 1,0,1
EndSplineSet
EndChar

StartChar: X
Encoding: 88 88 59
Width: 537
GlyphClass: 2
Flags: W
LayerCount: 2
Fore
SplineSet
188 55 m 1,0,1
 190 47 190 47 190 31.5 c 128,-1,2
 190 16 190 16 187 -1 c 1,3,4
 151 0 151 0 100 0 c 128,-1,5
 49 0 49 0 18 -1 c 1,6,7
 15 14 15 14 15 24.5 c 128,-1,8
 15 35 15 35 17 55 c 1,9,-1
 51 58 l 1,10,11
 159 215 159 215 223 331 c 1,12,13
 154 451 154 451 67 584 c 1,14,-1
 31 587 l 1,15,16
 29 603 29 603 29 614.5 c 128,-1,17
 29 626 29 626 32 643 c 1,18,19
 67 642 67 642 121.5 642 c 128,-1,20
 176 642 176 642 214 643 c 1,21,22
 217 628 217 628 217 616.5 c 128,-1,23
 217 605 217 605 215 587 c 1,24,-1
 179 584 l 1,25,26
 225 494 225 494 279 395 c 1,27,28
 327 471 327 471 372 584 c 1,29,-1
 335 587 l 1,30,31
 333 595 333 595 333 610.5 c 128,-1,32
 333 626 333 626 336 643 c 1,33,34
 372 642 372 642 423 642 c 128,-1,35
 474 642 474 642 505 643 c 1,36,37
 508 628 508 628 508 617.5 c 128,-1,38
 508 607 508 607 506 587 c 1,39,-1
 470 584 l 1,40,41
 379 450 379 450 314 332 c 1,42,43
 393 193 393 193 483 58 c 1,44,-1
 520 55 l 1,45,46
 522 39 522 39 522 27.5 c 128,-1,47
 522 16 522 16 519 -1 c 1,48,49
 484 0 484 0 429.5 0 c 128,-1,50
 375 0 375 0 337 -1 c 1,51,52
 334 14 334 14 334 25.5 c 128,-1,53
 334 37 334 37 336 55 c 1,54,-1
 371 58 l 1,55,56
 318 162 318 162 260 265 c 1,57,58
 191 151 191 151 151 58 c 1,59,-1
 188 55 l 1,0,1
EndSplineSet
EndChar

StartChar: Y
Encoding: 89 89 60
Width: 495
GlyphClass: 2
Flags: W
LayerCount: 2
Fore
SplineSet
328 587 m 1,0,1
 326 603 326 603 326 614.5 c 128,-1,2
 326 626 326 626 329 643 c 1,3,4
 361 642 361 642 408.5 642 c 128,-1,5
 456 642 456 642 491 643 c 1,6,7
 494 626 494 626 494 611.5 c 128,-1,8
 494 597 494 597 492 587 c 1,9,-1
 457 584 l 1,10,11
 320 289 320 289 295 194 c 1,12,13
 298 118 298 118 303 58 c 1,14,-1
 339 55 l 1,15,16
 341 39 341 39 341 27.5 c 128,-1,17
 341 16 341 16 338 -1 c 1,18,19
 303 0 303 0 257 0 c 128,-1,20
 211 0 211 0 177 -1 c 1,21,22
 174 14 174 14 174 25.5 c 128,-1,23
 174 37 174 37 176 55 c 1,24,-1
 211 58 l 1,25,26
 217 145 217 145 218 196 c 1,27,28
 192 282 192 282 78 510 c 0,29,30
 46 572 46 572 40 584 c 1,31,-1
 3 587 l 1,32,33
 1 603 1 603 1 614.5 c 128,-1,34
 1 626 1 626 4 643 c 1,35,36
 39 642 39 642 90.5 642 c 128,-1,37
 142 642 142 642 176 643 c 1,38,39
 179 628 179 628 179 616.5 c 128,-1,40
 179 605 179 605 177 587 c 1,41,-1
 141 584 l 1,42,43
 160 513 160 513 204 417 c 128,-1,44
 248 321 248 321 260 293 c 1,45,-1
 264 293 l 1,46,47
 291 345 291 345 321 428.5 c 128,-1,48
 351 512 351 512 365 584 c 1,49,-1
 328 587 l 1,0,1
EndSplineSet
EndChar

StartChar: Z
Encoding: 90 90 61
Width: 486
GlyphClass: 2
Flags: W
LayerCount: 2
Fore
SplineSet
158 76 m 1,0,1
 199 73 199 73 252.5 73 c 128,-1,2
 306 73 306 73 388 80 c 1,3,-1
 391 149 l 1,4,5
 408 152 408 152 421.5 152 c 128,-1,6
 435 152 435 152 447 151 c 1,7,8
 450 69 450 69 456 -1 c 1,9,-1
 451 -6 l 1,10,11
 380 3 380 3 251 3 c 128,-1,12
 122 3 122 3 37 -4 c 1,13,14
 31 11 31 11 30 32 c 1,15,16
 73 100 73 100 190 301.5 c 128,-1,17
 307 503 307 503 350 573 c 1,18,19
 316 574 316 574 256 574 c 128,-1,20
 196 574 196 574 114 567 c 1,21,-1
 111 493 l 1,22,23
 95 490 95 490 81 490 c 128,-1,24
 67 490 67 490 55 491 c 1,25,26
 52 573 52 573 46 643 c 1,27,-1
 51 648 l 1,28,29
 125 639 125 639 267.5 639 c 128,-1,30
 410 639 410 639 451 645 c 1,31,32
 456 635 456 635 456 607 c 1,33,34
 413 526 413 526 296 320 c 128,-1,35
 179 114 179 114 158 76 c 1,0,1
EndSplineSet
EndChar

StartChar: bracketleft
Encoding: 91 91 62
Width: 329
GlyphClass: 2
Flags: W
LayerCount: 2
Fore
SplineSet
301 16 m 1,0,1
 309 -10 309 -10 309 -32 c 128,-1,2
 309 -54 309 -54 305 -72 c 1,3,4
 259 -60 259 -60 191 -60 c 128,-1,5
 123 -60 123 -60 75 -65 c 1,6,7
 91 69 91 69 91 347 c 128,-1,8
 91 625 91 625 75 724 c 1,9,10
 123 719 123 719 191 719 c 128,-1,11
 259 719 259 719 305 731 c 1,12,13
 309 713 309 713 309 691 c 128,-1,14
 309 669 309 669 301 643 c 1,15,16
 254 651 254 651 175 651 c 1,17,18
 169 588 169 588 169 327.5 c 128,-1,19
 169 67 169 67 175 8 c 1,20,21
 254 8 254 8 301 16 c 1,0,1
EndSplineSet
EndChar

StartChar: backslash
Encoding: 92 92 63
Width: 566
GlyphClass: 2
Flags: W
LayerCount: 2
Fore
SplineSet
96 670 m 1,0,1
 125 688 125 688 151.5 688 c 128,-1,2
 178 688 178 688 187 687 c 1,3,4
 333 280 333 280 485 -27 c 1,5,6
 458 -46 458 -46 419 -46 c 0,7,8
 412 -46 412 -46 394 -44 c 1,9,10
 244 378 244 378 96 670 c 1,0,1
EndSplineSet
EndChar

StartChar: bracketright
Encoding: 93 93 64
Width: 329
GlyphClass: 2
Flags: W
LayerCount: 2
Fore
SplineSet
28 643 m 1,0,1
 20 669 20 669 20 691 c 128,-1,2
 20 713 20 713 24 731 c 1,3,4
 70 719 70 719 138 719 c 128,-1,5
 206 719 206 719 254 724 c 1,6,7
 238 590 238 590 238 312 c 128,-1,8
 238 34 238 34 254 -65 c 1,9,10
 206 -60 206 -60 138 -60 c 128,-1,11
 70 -60 70 -60 24 -72 c 1,12,13
 20 -54 20 -54 20 -32 c 128,-1,14
 20 -10 20 -10 28 16 c 1,15,16
 75 8 75 8 154 8 c 1,17,18
 160 71 160 71 160 331.5 c 128,-1,19
 160 592 160 592 154 651 c 1,20,21
 75 651 75 651 28 643 c 1,0,1
EndSplineSet
EndChar

StartChar: asciicircum
Encoding: 94 94 65
Width: 601
GlyphClass: 2
Flags: W
LayerCount: 2
Fore
SplineSet
229 622 m 1,0,1
 241 628 241 628 270.5 628 c 128,-1,2
 300 628 300 628 313 622 c 1,3,4
 336 563 336 563 395 453 c 1,5,6
 444 354 444 354 462 329 c 1,7,8
 455 323 455 323 434 312 c 128,-1,9
 413 301 413 301 398 299 c 1,10,11
 370 367 370 367 343 415 c 1,12,13
 285 524 285 524 271 547 c 1,14,15
 195 418 195 418 144 299 c 1,16,17
 129 301 129 301 108 312 c 128,-1,18
 87 323 87 323 80 329 c 1,19,20
 100 359 100 359 147 453 c 1,21,22
 206 563 206 563 229 622 c 1,0,1
EndSplineSet
EndChar

StartChar: underscore
Encoding: 95 95 66
Width: 502
GlyphClass: 2
Flags: W
LayerCount: 2
Fore
SplineSet
474 -89 m 1,0,1
 376 -80 376 -80 276.5 -80 c 128,-1,2
 177 -80 177 -80 110 -85 c 128,-1,3
 43 -90 43 -90 24 -94 c 1,4,5
 20 -80 20 -80 20 -56 c 128,-1,6
 20 -32 20 -32 28 -6 c 1,7,8
 102 -15 102 -15 203 -15 c 128,-1,9
 304 -15 304 -15 382 -10.5 c 128,-1,10
 460 -6 460 -6 478 -1 c 1,11,12
 482 -19 482 -19 482 -41 c 128,-1,13
 482 -63 482 -63 474 -89 c 1,0,1
EndSplineSet
EndChar

StartChar: grave
Encoding: 96 96 67
Width: 424
GlyphClass: 2
Flags: W
LayerCount: 2
Fore
SplineSet
294 528 m 1,0,1
 170 579 170 579 110 603 c 1,2,3
 111 631 111 631 120 647.5 c 128,-1,4
 129 664 129 664 150 682 c 1,5,6
 196 643 196 643 245.5 610.5 c 128,-1,7
 295 578 295 578 314 565 c 1,8,9
 309 544 309 544 294 528 c 1,0,1
EndSplineSet
EndChar

StartChar: a
Encoding: 97 97 68
Width: 473
GlyphClass: 2
Flags: W
LayerCount: 2
Fore
SplineSet
388 345 m 1,0,-1
 384 201 l 1,1,2
 384 133 384 133 392 68 c 1,3,-1
 429 65 l 1,4,5
 431 49 431 49 431 35.5 c 128,-1,6
 431 22 431 22 428 7 c 1,7,8
 399 6 399 6 315 -3 c 1,9,10
 308 16 308 16 304 44 c 1,11,12
 226 -15 226 -15 169.5 -15 c 128,-1,13
 113 -15 113 -15 81.5 21.5 c 128,-1,14
 50 58 50 58 50 125.5 c 128,-1,15
 50 193 50 193 92.5 232 c 128,-1,16
 135 271 135 271 199.5 271 c 128,-1,17
 264 271 264 271 310 247 c 1,18,19
 311 258 311 258 311 283 c 0,20,21
 311 357 311 357 290.5 389.5 c 128,-1,22
 270 422 270 422 228 422 c 128,-1,23
 186 422 186 422 167 406 c 1,24,25
 175 390 175 390 175 366 c 128,-1,26
 175 342 175 342 159.5 324.5 c 128,-1,27
 144 307 144 307 116 307 c 0,28,29
 69 307 69 307 69 362.5 c 128,-1,30
 69 418 69 418 111 448 c 128,-1,31
 153 478 153 478 229 478 c 128,-1,32
 305 478 305 478 346.5 442.5 c 128,-1,33
 388 407 388 407 388 345 c 1,0,-1
306 184 m 1,34,35
 265 219 265 219 218 219 c 0,36,37
 128 219 128 219 128 139 c 0,38,39
 128 57 128 57 199 57 c 0,40,41
 225 57 225 57 254.5 70.5 c 128,-1,42
 284 84 284 84 301 104 c 1,43,44
 306 164 306 164 306 184 c 1,34,35
EndSplineSet
EndChar

StartChar: b
Encoding: 98 98 69
Width: 481
GlyphClass: 2
Flags: W
LayerCount: 2
Fore
SplineSet
346 271 m 0,0,1
 346 414 346 414 261 414 c 0,2,3
 200 414 200 414 145 349 c 1,4,-1
 145 80 l 1,5,6
 191 57 191 57 242 57 c 0,7,8
 346 57 346 57 346 271 c 0,0,1
145 410 m 1,9,10
 215 478 215 478 286 478 c 128,-1,11
 357 478 357 478 394 420 c 128,-1,12
 431 362 431 362 431 258 c 0,13,14
 431 117 431 117 382.5 51 c 128,-1,15
 334 -15 334 -15 230 -15 c 0,16,17
 165 -15 165 -15 57 11 c 1,18,19
 73 109 73 109 73 329 c 128,-1,20
 73 549 73 549 68 614 c 1,21,-1
 28 617 l 1,22,23
 25 629 25 629 25 648 c 128,-1,24
 25 667 25 667 26 673 c 1,25,26
 115 677 115 677 156 682 c 1,27,-1
 160 677 l 1,28,29
 146 557 146 557 145 410 c 1,9,10
EndSplineSet
EndChar

StartChar: c
Encoding: 99 99 70
Width: 430
GlyphClass: 2
Flags: W
LayerCount: 2
Fore
SplineSet
293.5 324.5 m 128,-1,1
 278 342 278 342 278 367.5 c 128,-1,2
 278 393 278 393 285 406 c 1,3,4
 263 423 263 423 233 423 c 0,5,6
 127 423 127 423 127 235 c 0,7,8
 127 149 127 149 154 103 c 128,-1,9
 181 57 181 57 230.5 57 c 128,-1,10
 280 57 280 57 353 119 c 1,11,12
 382 89 382 89 390 40 c 1,13,14
 306 -15 306 -15 219 -15 c 128,-1,15
 132 -15 132 -15 88.5 48 c 128,-1,16
 45 111 45 111 45 234 c 128,-1,17
 45 357 45 357 93 417.5 c 128,-1,18
 141 478 141 478 229 478 c 0,19,20
 298 478 298 478 341 445.5 c 128,-1,21
 384 413 384 413 384 360 c 128,-1,22
 384 307 384 307 337 307 c 0,23,0
 309 307 309 307 293.5 324.5 c 128,-1,1
EndSplineSet
EndChar

StartChar: d
Encoding: 100 100 71
Width: 499
GlyphClass: 2
Flags: W
LayerCount: 2
Fore
SplineSet
337 454 m 1,0,-1
 338 517 l 2,1,2
 338 577 338 577 334 614 c 1,3,-1
 294 617 l 1,4,5
 291 629 291 629 291 648 c 128,-1,6
 291 667 291 667 292 673 c 1,7,8
 381 677 381 677 422 682 c 1,9,-1
 426 677 l 1,10,11
 411 546 411 546 411 339.5 c 128,-1,12
 411 133 411 133 420 67 c 1,13,-1
 457 65 l 1,14,15
 459 43 459 43 459 32.5 c 128,-1,16
 459 22 459 22 456 7 c 1,17,18
 417 5 417 5 347 -3 c 1,19,20
 339 13 339 13 335 48 c 1,21,22
 266 -15 266 -15 195.5 -15 c 128,-1,23
 125 -15 125 -15 87.5 49 c 128,-1,24
 50 113 50 113 50 230.5 c 128,-1,25
 50 348 50 348 97.5 413 c 128,-1,26
 145 478 145 478 234 478 c 0,27,28
 284 478 284 478 337 454 c 1,0,-1
235 419 m 0,29,30
 135 419 135 419 135 220 c 0,31,32
 135 145 135 145 157.5 103.5 c 128,-1,33
 180 62 180 62 220 62 c 0,34,35
 247 62 247 62 279.5 79 c 128,-1,36
 312 96 312 96 336 122 c 1,37,38
 338 246 338 246 338 390 c 1,39,40
 274 419 274 419 235 419 c 0,29,30
EndSplineSet
EndChar

StartChar: e
Encoding: 101 101 72
Width: 451
GlyphClass: 2
Flags: W
LayerCount: 2
Fore
SplineSet
218 222 m 0,0,1
 169 222 169 222 127 227 c 1,2,3
 129 57 129 57 240 57 c 0,4,5
 296 57 296 57 364 119 c 1,6,7
 393 89 393 89 401 40 c 1,8,9
 319 -15 319 -15 227 -15 c 128,-1,10
 135 -15 135 -15 90 48.5 c 128,-1,11
 45 112 45 112 45 235 c 128,-1,12
 45 358 45 358 95.5 418 c 128,-1,13
 146 478 146 478 239 478 c 0,14,15
 308 478 308 478 353 436 c 128,-1,16
 398 394 398 394 398.5 333 c 128,-1,17
 399 272 399 272 388 246 c 1,18,19
 313 222 313 222 218 222 c 0,0,1
232 422 m 0,20,21
 139 422 139 422 128 285 c 1,22,23
 173 280 173 280 227 280 c 128,-1,24
 281 280 281 280 311 290 c 1,25,26
 315 315 315 315 315 327 c 0,27,28
 315 371 315 371 292.5 396.5 c 128,-1,29
 270 422 270 422 232 422 c 0,20,21
EndSplineSet
EndChar

StartChar: f
Encoding: 102 102 73
Width: 331
GlyphClass: 2
Flags: W
LayerCount: 2
Fore
SplineSet
100 208 m 2,0,-1
 97 408 l 1,1,2
 53 408 53 408 40 407 c 1,3,4
 34 424 34 424 34 440 c 128,-1,5
 34 456 34 456 36 462 c 1,6,-1
 94 462 l 1,7,8
 93 471 93 471 93 502 c 0,9,10
 93 675 93 675 232 675 c 0,11,12
 278 675 278 675 314.5 655 c 128,-1,13
 351 635 351 635 351 592 c 0,14,15
 351 536 351 536 304 536 c 0,16,17
 277 536 277 536 261.5 552 c 128,-1,18
 246 568 246 568 245.5 588 c 128,-1,19
 245 608 245 608 247 616 c 1,20,21
 238 620 238 620 228 620 c 0,22,23
 166 620 166 620 166 496 c 0,24,25
 166 471 166 471 167 463 c 1,26,27
 242 464 242 464 292 469 c 1,28,29
 298 456 298 456 298 440 c 128,-1,30
 298 424 298 424 294 403 c 1,31,32
 280 404 280 404 172 407 c 1,33,-1
 172 313 l 1,34,-1
 173 237 l 1,35,36
 173 128 173 128 183 58 c 1,37,-1
 219 55 l 1,38,39
 221 46 221 46 221 31 c 128,-1,40
 221 16 221 16 218 -1 c 1,41,42
 190 0 190 0 136 0 c 128,-1,43
 82 0 82 0 57 -1 c 1,44,45
 54 14 54 14 54 27.5 c 128,-1,46
 54 41 54 41 56 55 c 1,47,-1
 90 58 l 1,48,49
 100 155 100 155 100 208 c 2,0,-1
EndSplineSet
EndChar

StartChar: g
Encoding: 103 103 74
Width: 466
GlyphClass: 2
Flags: W
LayerCount: 2
Fore
SplineSet
220 478 m 0,0,1
 232 478 232 478 238 477 c 1,2,3
 301 573 301 573 375 573 c 0,4,5
 440 573 440 573 440 510 c 0,6,7
 440 466 440 466 396.5 466 c 128,-1,8
 353 466 353 466 346 511 c 1,9,10
 317 511 317 511 292 468 c 1,11,12
 389 436 389 436 389 308 c 0,13,14
 389 230 389 230 358 178 c 0,15,16
 323 120 323 120 220 120 c 0,17,18
 177 120 177 120 150 130 c 1,19,20
 129 93 129 93 119 49 c 1,21,22
 136 46 136 46 155 46 c 128,-1,23
 174 46 174 46 231 53 c 128,-1,24
 288 60 288 60 313 60 c 0,25,26
 365 60 365 60 397 34 c 128,-1,27
 429 8 429 8 429 -46 c 128,-1,28
 429 -100 429 -100 394 -140 c 0,29,30
 333 -210 333 -210 204 -210 c 0,31,32
 117 -210 117 -210 71 -188 c 128,-1,33
 25 -166 25 -166 25 -106 c 0,34,35
 25 -62 25 -62 72 -15 c 1,36,37
 53 -1 53 -1 53 24 c 0,38,39
 53 77 53 77 104 154 c 1,40,41
 51 197 51 197 51 308 c 0,42,43
 51 478 51 478 220 478 c 0,0,1
220 189 m 128,-1,45
 308 189 308 189 308 307 c 128,-1,46
 308 425 308 425 220 425 c 128,-1,47
 132 425 132 425 132 307 c 128,-1,44
 132 189 132 189 220 189 c 128,-1,45
106 -91 m 0,48,49
 106 -155 106 -155 223 -155 c 0,50,51
 273 -155 273 -155 312.5 -133 c 128,-1,52
 352 -111 352 -111 352 -67 c 0,53,54
 352 -18 352 -18 299 -18 c 0,55,56
 273 -18 273 -18 217 -24.5 c 128,-1,57
 161 -31 161 -31 127 -31 c 2,58,-1
 119 -31 l 1,59,60
 106 -59 106 -59 106 -91 c 0,48,49
EndSplineSet
EndChar

StartChar: h
Encoding: 104 104 75
Width: 533
GlyphClass: 2
Flags: W
LayerCount: 2
Fore
SplineSet
443 350 m 1,0,-1
 442 253 l 1,1,2
 442 147 442 147 454 58 c 1,3,-1
 489 55 l 1,4,5
 491 39 491 39 491 27.5 c 128,-1,6
 491 16 491 16 488 -1 c 1,7,8
 453 0 453 0 405.5 0 c 128,-1,9
 358 0 358 0 324 -1 c 1,10,11
 321 14 321 14 321 25.5 c 128,-1,12
 321 37 321 37 323 55 c 1,13,-1
 358 58 l 1,14,15
 366 166 366 166 366 250 c 128,-1,16
 366 334 366 334 351.5 374 c 128,-1,17
 337 414 337 414 293 414 c 0,18,19
 237 414 237 414 173 350 c 1,20,-1
 173 256 l 2,21,22
 173 133 173 133 182 58 c 1,23,-1
 219 55 l 1,24,25
 221 39 221 39 221 27.5 c 128,-1,26
 221 16 221 16 218 -1 c 1,27,28
 183 0 183 0 137 0 c 128,-1,29
 91 0 91 0 57 -1 c 1,30,31
 54 14 54 14 54 25.5 c 128,-1,32
 54 37 54 37 56 55 c 1,33,-1
 91 58 l 1,34,35
 100 152 100 152 100 232 c 2,36,-1
 100 369 l 2,37,38
 100 549 100 549 95 614 c 1,39,-1
 55 617 l 1,40,41
 52 630 52 630 52 647.5 c 128,-1,42
 52 665 52 665 53 673 c 1,43,44
 144 678 144 678 183 682 c 1,45,-1
 187 677 l 1,46,47
 173 558 173 558 173 409 c 1,48,49
 203 439 203 439 245 458.5 c 128,-1,50
 287 478 287 478 325 478 c 0,51,52
 443 478 443 478 443 350 c 1,0,-1
EndSplineSet
EndChar

StartChar: i
Encoding: 105 105 76
Width: 263
GlyphClass: 2
Flags: W
LayerCount: 2
Fore
SplineSet
91 58 m 1,0,1
 100 156 100 156 100 237.5 c 128,-1,2
 100 319 100 319 92 407 c 1,3,-1
 55 410 l 1,4,5
 52 427 52 427 52 442.5 c 128,-1,6
 52 458 52 458 53 466 c 1,7,8
 111 468 111 468 177 475 c 1,9,-1
 182 470 l 1,10,11
 173 411 173 411 173 272 c 128,-1,12
 173 133 173 133 182 58 c 1,13,-1
 219 55 l 1,14,15
 221 39 221 39 221 27.5 c 128,-1,16
 221 16 221 16 218 -1 c 1,17,18
 183 0 183 0 137 0 c 128,-1,19
 91 0 91 0 57 -1 c 1,20,21
 54 14 54 14 54 30 c 128,-1,22
 54 46 54 46 56 55 c 1,23,-1
 91 58 l 1,0,1
192 613 m 0,24,25
 192 551 192 551 128 551 c 0,26,27
 78 551 78 551 78 602 c 0,28,29
 78 665 78 665 142 665 c 0,30,31
 192 665 192 665 192 613 c 0,24,25
EndSplineSet
EndChar

StartChar: j
Encoding: 106 106 77
Width: 254
GlyphClass: 2
Flags: W
LayerCount: 2
Fore
SplineSet
175 256 m 1,0,-1
 178 -13 l 1,1,2
 178 -210 178 -210 43 -210 c 0,3,4
 -15 -210 -15 -210 -60 -178 c 1,5,6
 -60 -121 -60 -121 -27 -95 c 1,7,8
 -16 -111 -16 -111 5 -123.5 c 128,-1,9
 26 -136 26 -136 46 -136 c 0,10,11
 102 -136 102 -136 102 4 c 2,12,-1
 102 236 l 2,13,14
 102 319 102 319 94 407 c 1,15,-1
 57 410 l 1,16,17
 54 427 54 427 54 442.5 c 128,-1,18
 54 458 54 458 55 466 c 1,19,20
 113 468 113 468 179 475 c 1,21,-1
 184 470 l 1,22,23
 175 411 175 411 175 256 c 1,0,-1
194 613 m 0,24,25
 194 551 194 551 130 551 c 0,26,27
 80 551 80 551 80 602 c 0,28,29
 80 665 80 665 144 665 c 0,30,31
 194 665 194 665 194 613 c 0,24,25
EndSplineSet
EndChar

StartChar: k
Encoding: 107 107 78
Width: 476
GlyphClass: 2
Flags: W
LayerCount: 2
Fore
SplineSet
93 232 m 2,0,-1
 93 369 l 2,1,2
 93 549 93 549 88 614 c 1,3,-1
 48 617 l 1,4,5
 45 630 45 630 45 647.5 c 128,-1,6
 45 665 45 665 46 673 c 1,7,8
 137 678 137 678 176 682 c 1,9,-1
 180 677 l 1,10,11
 166 558 166 558 166 421 c 2,12,-1
 166 256 l 2,13,14
 166 133 166 133 175 58 c 1,15,-1
 212 55 l 1,16,17
 214 39 214 39 214 27.5 c 128,-1,18
 214 16 214 16 211 -1 c 1,19,20
 176 0 176 0 130 0 c 128,-1,21
 84 0 84 0 50 -1 c 1,22,23
 47 14 47 14 47 25.5 c 128,-1,24
 47 37 47 37 49 55 c 1,25,-1
 84 58 l 1,26,27
 93 152 93 152 93 232 c 2,0,-1
318 467 m 1,28,29
 343 466 343 466 378.5 466 c 128,-1,30
 414 466 414 466 442 467 c 1,31,32
 445 454 445 454 445 438.5 c 128,-1,33
 445 423 445 423 443 411 c 1,34,-1
 400 408 l 1,35,36
 382 386 382 386 336 334 c 128,-1,37
 290 282 290 282 268 256 c 1,38,39
 365 118 365 118 418 58 c 1,40,-1
 461 55 l 1,41,42
 463 43 463 43 463 27.5 c 128,-1,43
 463 12 463 12 460 -1 c 1,44,45
 424 0 424 0 384 0 c 128,-1,46
 344 0 344 0 318 -1 c 1,47,48
 314 41 314 41 307 58 c 1,49,50
 272 127 272 127 182 227 c 1,51,-1
 185 237 l 1,52,53
 264 333 264 333 306 408 c 1,54,55
 314 428 314 428 318 467 c 1,28,29
EndSplineSet
EndChar

StartChar: l
Encoding: 108 108 79
Width: 252
GlyphClass: 2
Flags: W
LayerCount: 2
Fore
SplineSet
93 232 m 2,0,-1
 93 369 l 2,1,2
 93 549 93 549 88 614 c 1,3,-1
 48 617 l 1,4,5
 45 630 45 630 45 647.5 c 128,-1,6
 45 665 45 665 46 673 c 1,7,8
 137 678 137 678 176 682 c 1,9,-1
 180 677 l 1,10,11
 166 558 166 558 166 421 c 2,12,-1
 166 256 l 2,13,14
 166 133 166 133 175 58 c 1,15,-1
 212 55 l 1,16,17
 214 39 214 39 214 27.5 c 128,-1,18
 214 16 214 16 211 -1 c 1,19,20
 176 0 176 0 130 0 c 128,-1,21
 84 0 84 0 50 -1 c 1,22,23
 47 14 47 14 47 25.5 c 128,-1,24
 47 37 47 37 49 55 c 1,25,-1
 84 58 l 1,26,27
 93 152 93 152 93 232 c 2,0,-1
EndSplineSet
EndChar

StartChar: m
Encoding: 109 109 80
Width: 763
GlyphClass: 2
Flags: W
LayerCount: 2
Fore
SplineSet
672 335 m 2,0,-1
 671 253 l 1,1,2
 671 148 671 148 683 58 c 1,3,-1
 719 55 l 1,4,5
 721 46 721 46 721 31 c 128,-1,6
 721 16 721 16 718 -1 c 1,7,8
 690 0 690 0 634 0 c 128,-1,9
 578 0 578 0 554 -1 c 1,10,11
 551 14 551 14 551 27.5 c 128,-1,12
 551 41 551 41 553 55 c 1,13,-1
 587 58 l 1,14,15
 595 175 595 175 595 258.5 c 128,-1,16
 595 342 595 342 580 378 c 128,-1,17
 565 414 565 414 530 414 c 0,18,19
 480 414 480 414 423 348 c 1,20,-1
 422 253 l 1,21,22
 422 148 422 148 434 58 c 1,23,-1
 469 55 l 1,24,25
 471 39 471 39 471 27.5 c 128,-1,26
 471 16 471 16 468 -1 c 1,27,28
 440 0 440 0 384 0 c 128,-1,29
 328 0 328 0 304 -1 c 1,30,31
 301 14 301 14 301 27.5 c 128,-1,32
 301 41 301 41 303 55 c 1,33,-1
 338 58 l 1,34,35
 346 175 346 175 346 258.5 c 128,-1,36
 346 342 346 342 331 378 c 128,-1,37
 316 414 316 414 281 414 c 0,38,39
 230 414 230 414 174 349 c 1,40,41
 173 323 173 323 173 227.5 c 128,-1,42
 173 132 173 132 182 58 c 1,43,-1
 219 55 l 1,44,45
 221 33 221 33 221 24.5 c 128,-1,46
 221 16 221 16 218 -1 c 1,47,48
 190 0 190 0 136 0 c 128,-1,49
 82 0 82 0 57 -1 c 1,50,51
 54 14 54 14 54 27.5 c 128,-1,52
 54 41 54 41 56 55 c 1,53,-1
 91 58 l 1,54,55
 100 158 100 158 100 241.5 c 128,-1,56
 100 325 100 325 92 407 c 1,57,-1
 55 410 l 1,58,59
 52 427 52 427 52 443.5 c 128,-1,60
 52 460 52 460 53 466 c 1,61,62
 104 467 104 467 177 475 c 1,63,-1
 182 470 l 1,64,65
 179 449 179 449 176 411 c 1,66,67
 205 441 205 441 243 459.5 c 128,-1,68
 281 478 281 478 314 478 c 0,69,70
 396 478 396 478 417 401 c 1,71,72
 446 435 446 435 486.5 456.5 c 128,-1,73
 527 478 527 478 563 478 c 0,74,75
 619 478 619 478 645.5 443.5 c 128,-1,76
 672 409 672 409 672 335 c 2,0,-1
EndSplineSet
EndChar

StartChar: n
Encoding: 110 110 81
Width: 533
GlyphClass: 2
Flags: W
LayerCount: 2
Fore
SplineSet
443 350 m 1,0,-1
 442 253 l 1,1,2
 442 148 442 148 454 58 c 1,3,-1
 489 55 l 1,4,5
 491 33 491 33 491 24.5 c 128,-1,6
 491 16 491 16 488 -1 c 1,7,8
 460 0 460 0 404 0 c 128,-1,9
 348 0 348 0 324 -1 c 1,10,11
 321 14 321 14 321 27.5 c 128,-1,12
 321 41 321 41 323 55 c 1,13,-1
 358 58 l 1,14,15
 366 175 366 175 366 258.5 c 128,-1,16
 366 342 366 342 349.5 378 c 128,-1,17
 333 414 333 414 293 414 c 0,18,19
 239 414 239 414 174 349 c 1,20,21
 173 323 173 323 173 227.5 c 128,-1,22
 173 132 173 132 182 58 c 1,23,-1
 219 55 l 1,24,25
 221 33 221 33 221 24.5 c 128,-1,26
 221 16 221 16 218 -1 c 1,27,28
 190 0 190 0 136 0 c 128,-1,29
 82 0 82 0 57 -1 c 1,30,31
 54 14 54 14 54 27.5 c 128,-1,32
 54 41 54 41 56 55 c 1,33,-1
 91 58 l 1,34,35
 100 158 100 158 100 241.5 c 128,-1,36
 100 325 100 325 92 407 c 1,37,-1
 55 410 l 1,38,39
 52 427 52 427 52 443.5 c 128,-1,40
 52 460 52 460 53 466 c 1,41,42
 104 467 104 467 177 475 c 1,43,-1
 182 470 l 1,44,45
 180 458 180 458 176 410 c 1,46,47
 207 441 207 441 248 459.5 c 128,-1,48
 289 478 289 478 325 478 c 0,49,50
 443 478 443 478 443 350 c 1,0,-1
EndSplineSet
EndChar

StartChar: o
Encoding: 111 111 82
Width: 466
GlyphClass: 2
Flags: W
LayerCount: 2
Fore
SplineSet
233 478 m 128,-1,1
 421 478 421 478 421 237 c 0,2,3
 421 126 421 126 386 61 c 0,4,5
 346 -15 346 -15 233 -15 c 128,-1,6
 120 -15 120 -15 80 61 c 0,7,8
 45 126 45 126 45 237 c 0,9,0
 45 478 45 478 233 478 c 128,-1,1
233 57 m 128,-1,11
 339 57 339 57 339 239.5 c 128,-1,12
 339 422 339 422 233 422 c 128,-1,13
 127 422 127 422 127 239.5 c 128,-1,10
 127 57 127 57 233 57 c 128,-1,11
EndSplineSet
EndChar

StartChar: p
Encoding: 112 112 83
Width: 494
GlyphClass: 2
Flags: W
LayerCount: 2
Fore
SplineSet
303 478 m 0,0,1
 444 478 444 478 444 238 c 0,2,3
 444 146 444 146 408 71 c 0,4,5
 388 31 388 31 348 8 c 128,-1,6
 308 -15 308 -15 259 -15 c 128,-1,7
 210 -15 210 -15 157 9 c 1,8,9
 162 -116 162 -116 166 -151 c 1,10,-1
 203 -154 l 1,11,-1
 205 -180 l 1,12,13
 205 -200 205 -200 202 -210 c 1,14,15
 178 -209 178 -209 119.5 -209 c 128,-1,16
 61 -209 61 -209 41 -210 c 1,17,18
 38 -193 38 -193 38 -180 c 128,-1,19
 38 -167 38 -167 40 -154 c 1,20,-1
 77 -151 l 1,21,22
 85 -42 85 -42 85 140.5 c 128,-1,23
 85 323 85 323 77 407 c 1,24,-1
 40 410 l 1,25,26
 37 419 37 419 37 438.5 c 128,-1,27
 37 458 37 458 38 466 c 1,28,29
 84 467 84 467 161 475 c 1,30,-1
 166 470 l 1,31,32
 162 441 162 441 161 413 c 1,33,34
 230 478 230 478 303 478 c 0,0,1
250 57 m 0,35,36
 359 57 359 57 359 251 c 0,37,38
 359 369 359 369 320 400 c 0,39,40
 302 414 302 414 273 414 c 128,-1,41
 244 414 244 414 212 395 c 128,-1,42
 180 376 180 376 158 349 c 1,43,44
 156 266 156 266 156 80 c 1,45,46
 214 57 214 57 250 57 c 0,35,36
EndSplineSet
EndChar

StartChar: q
Encoding: 113 113 84
Width: 498
GlyphClass: 2
Flags: W
LayerCount: 2
Fore
SplineSet
424 452 m 1,0,1
 409 323 409 323 409 136 c 128,-1,2
 409 -51 409 -51 419 -151 c 1,3,-1
 456 -154 l 1,4,5
 458 -172 458 -172 458 -182 c 128,-1,6
 458 -192 458 -192 455 -210 c 1,7,8
 432 -209 432 -209 372 -209 c 128,-1,9
 312 -209 312 -209 292 -210 c 1,10,11
 289 -194 289 -194 289 -180.5 c 128,-1,12
 289 -167 289 -167 291 -154 c 1,13,-1
 327 -151 l 1,14,15
 336 -53 336 -53 336 53 c 1,16,17
 265 -15 265 -15 194.5 -15 c 128,-1,18
 124 -15 124 -15 87 43 c 128,-1,19
 50 101 50 101 50 205 c 0,20,21
 50 346 50 346 98.5 412 c 128,-1,22
 147 478 147 478 251 478 c 0,23,24
 314 478 314 478 424 452 c 1,0,1
135 200 m 0,25,26
 135 57 135 57 220 57 c 0,27,28
 278 57 278 57 336 122 c 1,29,-1
 336 399 l 1,30,31
 292 422 292 422 240 422 c 128,-1,32
 188 422 188 422 161.5 369.5 c 128,-1,33
 135 317 135 317 135 200 c 0,25,26
EndSplineSet
EndChar

StartChar: r
Encoding: 114 114 85
Width: 347
GlyphClass: 2
Flags: W
LayerCount: 2
Fore
SplineSet
71 58 m 1,0,1
 80 158 80 158 80 241.5 c 128,-1,2
 80 325 80 325 72 407 c 1,3,-1
 35 410 l 1,4,5
 32 426 32 426 32 443 c 128,-1,6
 32 460 32 460 33 466 c 1,7,8
 84 467 84 467 157 475 c 1,9,-1
 162 470 l 1,10,11
 161 464 161 464 156 411 c 1,12,13
 179 440 179 440 209.5 459 c 128,-1,14
 240 478 240 478 269.5 478 c 128,-1,15
 299 478 299 478 321 457 c 128,-1,16
 343 436 343 436 343 402 c 0,17,18
 343 346 343 346 296 346 c 0,19,20
 269 346 269 346 253 363.5 c 128,-1,21
 237 381 237 381 237 410 c 1,22,23
 235 411 235 411 230 411 c 0,24,25
 193 411 193 411 154 355 c 1,26,27
 153 327 153 327 153 229.5 c 128,-1,28
 153 132 153 132 162 58 c 1,29,-1
 199 55 l 1,30,31
 201 33 201 33 201 24.5 c 128,-1,32
 201 16 201 16 198 -1 c 1,33,34
 170 0 170 0 116 0 c 128,-1,35
 62 0 62 0 37 -1 c 1,36,37
 34 14 34 14 34 27.5 c 128,-1,38
 34 41 34 41 36 55 c 1,39,-1
 71 58 l 1,0,1
EndSplineSet
EndChar

StartChar: s
Encoding: 115 115 86
Width: 403
GlyphClass: 2
Flags: W
LayerCount: 2
Fore
SplineSet
312.5 445 m 128,-1,1
 354 412 354 412 354 359.5 c 128,-1,2
 354 307 354 307 307 307 c 0,3,4
 279 307 279 307 263.5 324.5 c 128,-1,5
 248 342 248 342 248 366 c 128,-1,6
 248 390 248 390 256 406 c 1,7,8
 232 425 232 425 199 425 c 128,-1,9
 166 425 166 425 144.5 409 c 128,-1,10
 123 393 123 393 123 362 c 128,-1,11
 123 331 123 331 147.5 308 c 128,-1,12
 172 285 172 285 207 270.5 c 128,-1,13
 242 256 242 256 277 240.5 c 128,-1,14
 312 225 312 225 336.5 196.5 c 128,-1,15
 361 168 361 168 361 126 c 0,16,17
 361 61 361 61 317.5 23 c 128,-1,18
 274 -15 274 -15 199 -15 c 128,-1,19
 124 -15 124 -15 76.5 17 c 128,-1,20
 29 49 29 49 29 101 c 2,21,-1
 29 105 l 2,22,23
 29 159 29 159 76 159 c 0,24,25
 104 159 104 159 119.5 141.5 c 128,-1,26
 135 124 135 124 135 101 c 128,-1,27
 135 78 135 78 130 65 c 1,28,29
 150 52 150 52 193.5 52 c 128,-1,30
 237 52 237 52 259.5 67 c 128,-1,31
 282 82 282 82 282 108.5 c 128,-1,32
 282 135 282 135 257.5 156 c 128,-1,33
 233 177 233 177 198 191.5 c 128,-1,34
 163 206 163 206 128 222.5 c 128,-1,35
 93 239 93 239 68.5 270 c 128,-1,36
 44 301 44 301 44 344 c 0,37,38
 44 406 44 406 87.5 442 c 128,-1,39
 131 478 131 478 201 478 c 128,-1,0
 271 478 271 478 312.5 445 c 128,-1,1
EndSplineSet
EndChar

StartChar: t
Encoding: 116 116 87
Width: 307
GlyphClass: 2
Flags: W
LayerCount: 2
Fore
SplineSet
75 162 m 2,0,1
 75 162 75 162 77 385 c 0,2,3
 77 400 77 400 76 408 c 1,4,5
 34 408 34 408 16 407 c 1,6,7
 10 423 10 423 10 438.5 c 128,-1,8
 10 454 10 454 12 462 c 1,9,-1
 73 462 l 1,10,-1
 68 536 l 1,11,12
 93 544 93 544 120.5 544 c 128,-1,13
 148 544 148 544 166 540 c 1,14,-1
 157 463 l 1,15,16
 212 464 212 464 268 469 c 1,17,18
 274 456 274 456 274 440.5 c 128,-1,19
 274 425 274 425 270 403 c 1,20,21
 233 405 233 405 153 407 c 1,22,23
 151 387 151 387 151 348 c 2,24,-1
 151 145 l 2,25,26
 151 119 151 119 153.5 102.5 c 128,-1,27
 156 86 156 86 166.5 72.5 c 128,-1,28
 177 59 177 59 197 59 c 0,29,30
 241 59 241 59 281 90 c 1,31,32
 302 60 302 60 302 9 c 1,33,34
 247 -15 247 -15 206.5 -15 c 128,-1,35
 166 -15 166 -15 142 -4.5 c 128,-1,36
 118 6 118 6 105 20.5 c 128,-1,37
 92 35 92 35 85 61 c 0,38,39
 75 98 75 98 75 162 c 2,0,1
EndSplineSet
EndChar

StartChar: u
Encoding: 117 117 88
Width: 502
GlyphClass: 2
Flags: W
LayerCount: 2
Fore
SplineSet
82 129 m 2,0,-1
 83 236 l 2,1,2
 83 325 83 325 75 407 c 1,3,-1
 38 410 l 1,4,5
 35 426 35 426 35 443 c 128,-1,6
 35 460 35 460 36 466 c 1,7,8
 87 467 87 467 160 475 c 1,9,-1
 165 470 l 1,10,11
 156 411 156 411 156 259 c 2,12,-1
 156 212 l 2,13,14
 156 128 156 128 171.5 92.5 c 128,-1,15
 187 57 187 57 224 57 c 0,16,17
 276 57 276 57 337 118 c 1,18,19
 339 141 339 141 339 207 c 2,20,-1
 339 236 l 2,21,22
 339 325 339 325 331 407 c 1,23,-1
 294 410 l 1,24,25
 291 427 291 427 291 443.5 c 128,-1,26
 291 460 291 460 292 466 c 1,27,28
 343 467 343 467 416 475 c 1,29,-1
 421 470 l 1,30,31
 412 411 412 411 412 259 c 2,32,-1
 412 227 l 2,33,34
 412 145 412 145 421 67 c 1,35,-1
 458 65 l 1,36,37
 460 43 460 43 460 32.5 c 128,-1,38
 460 22 460 22 457 7 c 1,39,40
 418 5 418 5 348 -3 c 1,41,42
 340 15 340 15 336 47 c 1,43,44
 261 -15 261 -15 198 -15 c 128,-1,45
 135 -15 135 -15 108.5 20 c 128,-1,46
 82 55 82 55 82 129 c 2,0,-1
EndSplineSet
EndChar

StartChar: v
Encoding: 118 118 89
Width: 454
GlyphClass: 2
Flags: W
LayerCount: 2
Fore
SplineSet
279 411 m 1,0,1
 277 421 277 421 277 437.5 c 128,-1,2
 277 454 277 454 280 467 c 1,3,4
 310 466 310 466 363.5 466 c 128,-1,5
 417 466 417 466 446 467 c 1,6,7
 449 454 449 454 449 439 c 128,-1,8
 449 424 449 424 447 411 c 1,9,-1
 414 408 l 1,10,11
 288 115 288 115 259 0 c 1,12,13
 233 -7 233 -7 212.5 -7 c 128,-1,14
 192 -7 192 -7 185 -6 c 1,15,16
 128 196 128 196 30 408 c 1,17,-1
 -3 411 l 1,18,19
 -5 423 -5 423 -5 438.5 c 128,-1,20
 -5 454 -5 454 -2 467 c 1,21,22
 27 466 27 466 84.5 466 c 128,-1,23
 142 466 142 466 172 467 c 1,24,25
 175 454 175 454 175 438.5 c 128,-1,26
 175 423 175 423 173 411 c 1,27,-1
 132 408 l 1,28,29
 152 279 152 279 224 111 c 1,30,-1
 228 111 l 1,31,32
 254 161 254 161 281 247.5 c 128,-1,33
 308 334 308 334 321 408 c 1,34,-1
 279 411 l 1,0,1
EndSplineSet
EndChar

StartChar: w
Encoding: 119 119 90
Width: 645
GlyphClass: 2
Flags: W
LayerCount: 2
Fore
SplineSet
281 410 m 1,0,1
 311 417 311 417 332.5 417 c 128,-1,2
 354 417 354 417 372 414 c 1,3,4
 392 250 392 250 429 111 c 1,5,-1
 433 111 l 1,6,7
 456 161 456 161 478.5 247 c 128,-1,8
 501 333 501 333 511 408 c 1,9,-1
 470 411 l 1,10,11
 468 421 468 421 468 437.5 c 128,-1,12
 468 454 468 454 471 467 c 1,13,14
 501 466 501 466 554.5 466 c 128,-1,15
 608 466 608 466 637 467 c 1,16,17
 640 454 640 454 640 439 c 128,-1,18
 640 424 640 424 638 411 c 1,19,-1
 604 408 l 1,20,21
 488 110 488 110 460 0 c 1,22,23
 434 -7 434 -7 413.5 -7 c 128,-1,24
 393 -7 393 -7 386 -6 c 1,25,26
 375 72 375 72 320 281 c 1,27,-1
 316 281 l 1,28,29
 259 109 259 109 234 0 c 1,30,31
 208 -7 208 -7 187.5 -7 c 128,-1,32
 167 -7 167 -7 160 -6 c 1,33,34
 142 75 142 75 105 193.5 c 128,-1,35
 68 312 68 312 30 408 c 1,36,-1
 -3 411 l 1,37,38
 -5 423 -5 423 -5 438.5 c 128,-1,39
 -5 454 -5 454 -2 467 c 1,40,41
 27 466 27 466 85 466 c 128,-1,42
 143 466 143 466 173 467 c 1,43,44
 176 454 176 454 176 438.5 c 128,-1,45
 176 423 176 423 174 411 c 1,46,-1
 134 408 l 1,47,48
 148 295 148 295 203 111 c 1,49,-1
 207 111 l 1,50,51
 229 161 229 161 252 253.5 c 128,-1,52
 275 346 275 346 281 410 c 1,0,1
EndSplineSet
EndChar

StartChar: x
Encoding: 120 120 91
Width: 411
GlyphClass: 2
Flags: W
LayerCount: 2
Fore
SplineSet
3 -1 m 1,0,-1
 0 25 l 1,1,2
 0 42 0 42 2 55 c 1,3,-1
 46 58 l 1,4,5
 92 125 92 125 169 228 c 1,6,7
 150 256 150 256 112.5 316 c 128,-1,8
 75 376 75 376 55 407 c 1,9,-1
 12 410 l 1,10,11
 10 422 10 422 10 438 c 128,-1,12
 10 454 10 454 13 467 c 1,13,14
 45 466 45 466 85 466 c 128,-1,15
 125 466 125 466 151 467 c 1,16,17
 154 424 154 424 163 407 c 0,18,19
 215 299 215 299 216 297 c 1,20,21
 252 357 252 357 271 408 c 1,22,-1
 238 411 l 1,23,24
 236 421 236 421 236 437.5 c 128,-1,25
 236 454 236 454 239 467 c 1,26,27
 266 466 266 466 319 466 c 128,-1,28
 372 466 372 466 401 467 c 1,29,30
 404 454 404 454 404 439 c 128,-1,31
 404 424 404 424 402 411 c 1,32,-1
 358 408 l 1,33,34
 278 283 278 283 248 238 c 1,35,36
 269 207 269 207 308.5 146.5 c 128,-1,37
 348 86 348 86 367 58 c 1,38,-1
 410 55 l 1,39,40
 412 43 412 43 412 27.5 c 128,-1,41
 412 12 412 12 409 -1 c 1,42,43
 377 0 377 0 338.5 0 c 128,-1,44
 300 0 300 0 274 -1 c 1,45,46
 270 43 270 43 260.5 63.5 c 128,-1,47
 251 84 251 84 200 175 c 1,48,49
 193 162 193 162 180 140 c 0,50,51
 151 92 151 92 134 58 c 1,52,-1
 166 55 l 1,53,54
 168 45 168 45 168 28.5 c 128,-1,55
 168 12 168 12 165 -1 c 1,56,57
 138 0 138 0 85 0 c 128,-1,58
 32 0 32 0 3 -1 c 1,0,-1
EndSplineSet
EndChar

StartChar: y
Encoding: 121 121 92
Width: 439
GlyphClass: 2
Flags: W
LayerCount: 2
Fore
SplineSet
264 411 m 1,0,1
 262 421 262 421 262 437.5 c 128,-1,2
 262 454 262 454 265 467 c 1,3,4
 295 466 295 466 348.5 466 c 128,-1,5
 402 466 402 466 431 467 c 1,6,7
 434 454 434 454 434 439 c 128,-1,8
 434 424 434 424 432 411 c 1,9,-1
 402 408 l 1,10,11
 375 335 375 335 332.5 207 c 128,-1,12
 290 79 290 79 268.5 19 c 128,-1,13
 247 -41 247 -41 228.5 -78 c 128,-1,14
 210 -115 210 -115 188 -148 c 0,15,16
 146 -210 146 -210 88.5 -210 c 128,-1,17
 31 -210 31 -210 -17 -178 c 1,18,19
 -13 -120 -13 -120 16 -95 c 1,20,21
 46 -136 46 -136 89 -136 c 0,22,23
 135 -136 135 -136 191 -6 c 1,24,25
 140 173 140 173 30 408 c 1,26,-1
 -3 411 l 1,27,28
 -5 423 -5 423 -5 438.5 c 128,-1,29
 -5 454 -5 454 -2 467 c 1,30,31
 27 466 27 466 84.5 466 c 128,-1,32
 142 466 142 466 172 467 c 1,33,34
 175 454 175 454 175 438.5 c 128,-1,35
 175 423 175 423 173 411 c 1,36,-1
 132 408 l 1,37,38
 151 297 151 297 230 111 c 1,39,-1
 234 111 l 1,40,41
 284 273 284 273 306 408 c 1,42,-1
 264 411 l 1,0,1
EndSplineSet
EndChar

StartChar: z
Encoding: 122 122 93
Width: 400
GlyphClass: 2
Flags: W
LayerCount: 2
Fore
SplineSet
301 128 m 1,0,1
 317 131 317 131 331 131 c 128,-1,2
 345 131 345 131 357 130 c 1,3,4
 359 82 359 82 366 -2 c 1,5,-1
 361 -7 l 1,6,7
 298 2 298 2 200.5 2 c 128,-1,8
 103 2 103 2 22 -4 c 1,9,10
 16 11 16 11 15 32 c 1,11,12
 58 99 58 99 144.5 221.5 c 128,-1,13
 231 344 231 344 267 397 c 1,14,15
 151 395 151 395 84 390 c 1,16,-1
 81 338 l 1,17,18
 65 335 65 335 51 335 c 128,-1,19
 37 335 37 335 25 336 c 1,20,21
 23 384 23 384 16 468 c 1,22,-1
 21 473 l 1,23,24
 84 464 84 464 195 464 c 128,-1,25
 306 464 306 464 360 470 c 1,26,27
 365 460 365 460 365 432 c 1,28,29
 325 356 325 356 248.5 241.5 c 128,-1,30
 172 127 172 127 142 73 c 1,31,32
 235 74 235 74 298 80 c 1,33,-1
 301 128 l 1,0,1
EndSplineSet
EndChar

StartChar: braceleft
Encoding: 123 123 94
Width: 344
GlyphClass: 2
Flags: W
LayerCount: 2
Fore
SplineSet
178 588 m 1,0,-1
 190 439 l 1,1,2
 190 400 190 400 173 368.5 c 128,-1,3
 156 337 156 337 126 333 c 1,4,-1
 126 327 l 1,5,6
 156 323 156 323 173 291.5 c 128,-1,7
 190 260 190 260 190 221 c 1,8,-1
 178 72 l 1,9,10
 178 34 178 34 189 20 c 128,-1,11
 200 6 200 6 233 6 c 128,-1,12
 266 6 266 6 316 17 c 1,13,14
 324 -9 324 -9 324 -31 c 128,-1,15
 324 -53 324 -53 320 -71 c 1,16,17
 274 -59 274 -59 208.5 -59 c 128,-1,18
 143 -59 143 -59 120.5 -29.5 c 128,-1,19
 98 0 98 0 98 53 c 1,20,-1
 109 205 l 1,21,22
 109 247 109 247 94 272 c 128,-1,23
 79 297 79 297 37 303 c 1,24,25
 30 313 30 313 30 330 c 128,-1,26
 30 347 30 347 37 357 c 1,27,28
 79 363 79 363 94 388 c 128,-1,29
 109 413 109 413 109 455 c 1,30,-1
 98 607 l 1,31,32
 98 660 98 660 120.5 689.5 c 128,-1,33
 143 719 143 719 208.5 719 c 128,-1,34
 274 719 274 719 320 731 c 1,35,36
 324 713 324 713 324 691 c 128,-1,37
 324 669 324 669 316 643 c 1,38,39
 266 654 266 654 233 654 c 128,-1,40
 200 654 200 654 189 640 c 128,-1,41
 178 626 178 626 178 588 c 1,0,-1
EndSplineSet
EndChar

StartChar: bar
Encoding: 124 124 95
Width: 263
GlyphClass: 2
Flags: W
LayerCount: 2
Fore
SplineSet
93 -85 m 1,0,1
 103 56 103 56 103 328 c 128,-1,2
 103 600 103 600 90 717 c 1,3,4
 116 729 116 729 133 729 c 128,-1,5
 150 729 150 729 170 726 c 1,6,7
 160 589 160 589 160 287.5 c 128,-1,8
 160 -14 160 -14 173 -76 c 1,9,10
 144 -88 144 -88 126 -88 c 128,-1,11
 108 -88 108 -88 93 -85 c 1,0,1
EndSplineSet
EndChar

StartChar: braceright
Encoding: 125 125 96
Width: 344
GlyphClass: 2
Flags: W
LayerCount: 2
Fore
SplineSet
166 72 m 1,0,-1
 154 221 l 1,1,2
 154 260 154 260 171 291.5 c 128,-1,3
 188 323 188 323 218 327 c 1,4,-1
 218 333 l 1,5,6
 188 337 188 337 171 368.5 c 128,-1,7
 154 400 154 400 154 439 c 1,8,-1
 166 588 l 1,9,10
 166 626 166 626 155 640 c 128,-1,11
 144 654 144 654 111 654 c 128,-1,12
 78 654 78 654 28 643 c 1,13,14
 20 669 20 669 20 691 c 128,-1,15
 20 713 20 713 24 731 c 1,16,17
 70 719 70 719 135.5 719 c 128,-1,18
 201 719 201 719 223.5 689.5 c 128,-1,19
 246 660 246 660 246 607 c 1,20,-1
 235 455 l 1,21,22
 235 413 235 413 250 388 c 128,-1,23
 265 363 265 363 307 357 c 1,24,25
 314 347 314 347 314 330 c 128,-1,26
 314 313 314 313 307 303 c 1,27,28
 265 297 265 297 250 272 c 128,-1,29
 235 247 235 247 235 205 c 1,30,-1
 246 53 l 1,31,32
 246 0 246 0 223.5 -29.5 c 128,-1,33
 201 -59 201 -59 135.5 -59 c 128,-1,34
 70 -59 70 -59 24 -71 c 1,35,36
 20 -53 20 -53 20 -31 c 128,-1,37
 20 -9 20 -9 28 17 c 1,38,39
 78 6 78 6 111 6 c 128,-1,40
 144 6 144 6 155 20 c 128,-1,41
 166 34 166 34 166 72 c 1,0,-1
EndSplineSet
EndChar

StartChar: asciitilde
Encoding: 126 126 97
Width: 601
GlyphClass: 2
Flags: W
LayerCount: 2
Fore
SplineSet
502 288 m 1,0,1
 477 321 477 321 432 321 c 128,-1,2
 387 321 387 321 301 292.5 c 128,-1,3
 215 264 215 264 167.5 264 c 128,-1,4
 120 264 120 264 84 291 c 1,5,6
 84 330 84 330 98 367 c 1,7,8
 123 334 123 334 168.5 334 c 128,-1,9
 214 334 214 334 300.5 362.5 c 128,-1,10
 387 391 387 391 434.5 391 c 128,-1,11
 482 391 482 391 518 364 c 1,12,13
 518 330 518 330 502 288 c 1,0,1
EndSplineSet
EndChar

StartChar: exclamdown
Encoding: 161 161 98
Width: 270
GlyphClass: 2
Flags: W
LayerCount: 2
Fore
SplineSet
149 88 m 0,0,1
 149 -96 149 -96 175 -200 c 1,2,3
 145 -211 145 -211 117 -211 c 128,-1,4
 89 -211 89 -211 65 -205 c 1,5,6
 85 -16 85 -16 85 218 c 0,7,8
 85 251 85 251 83 283 c 1,9,10
 103 289 103 289 117.5 289 c 128,-1,11
 132 289 132 289 151 283 c 1,12,13
 149 177 149 177 149 88 c 0,0,1
50 408 m 0,14,15
 50 438 50 438 68 458 c 128,-1,16
 86 478 86 478 123 478 c 0,17,18
 180 478 180 478 180 420 c 0,19,20
 180 348 180 348 107 348 c 0,21,22
 50 348 50 348 50 408 c 0,14,15
EndSplineSet
EndChar

StartChar: cent
Encoding: 162 162 99
Width: 470
GlyphClass: 2
Flags: W
LayerCount: 2
Fore
SplineSet
333.5 402.5 m 128,-1,1
 318 420 318 420 318 445.5 c 128,-1,2
 318 471 318 471 325 484 c 1,3,4
 304 501 304 501 262 501 c 0,5,6
 197 501 197 501 159.5 450.5 c 128,-1,7
 122 400 122 400 122 316 c 128,-1,8
 122 232 122 232 158 184 c 128,-1,9
 194 136 194 136 253 136 c 0,10,11
 334 136 334 136 393 198 c 1,12,13
 422 168 422 168 430 119 c 1,14,15
 356 64 356 64 265 64 c 1,16,17
 267 17 267 17 270 5 c 1,18,19
 241 -8 241 -8 218.5 -8 c 128,-1,20
 196 -8 196 -8 179 -5 c 1,21,-1
 187 73 l 1,22,23
 40 111 40 111 40 311 c 0,24,25
 40 409 40 409 82 471 c 128,-1,26
 124 533 124 533 203 550 c 1,27,28
 203 561 203 561 199 632 c 1,29,30
 218 645 218 645 261 645 c 0,31,32
 270 645 270 645 290 642 c 1,33,34
 284 600 284 600 281 556 c 1,35,36
 349 551 349 551 386.5 520 c 128,-1,37
 424 489 424 489 424 437 c 128,-1,38
 424 385 424 385 377 385 c 0,39,0
 349 385 349 385 333.5 402.5 c 128,-1,1
EndSplineSet
EndChar

StartChar: sterling
Encoding: 163 163 100
Width: 546
GlyphClass: 2
Flags: W
LayerCount: 2
Fore
SplineSet
136 215 m 0,0,1
 136 245 136 245 133 275 c 1,2,-1
 63 275 l 1,3,4
 55 293 55 293 55 306 c 128,-1,5
 55 319 55 319 58 331 c 1,6,-1
 127 331 l 1,7,8
 112 450 112 450 112 491 c 0,9,10
 112 574 112 574 161.5 620 c 128,-1,11
 211 666 211 666 300 666 c 0,12,13
 364 666 364 666 411 638 c 128,-1,14
 458 610 458 610 477 560 c 0,15,16
 483 542 483 542 483 521 c 0,17,18
 483 461 483 461 431 461 c 0,19,20
 400 461 400 461 383 480 c 128,-1,21
 366 499 366 499 366 529.5 c 128,-1,22
 366 560 366 560 378 576 c 1,23,24
 347 607 347 607 299.5 607 c 128,-1,25
 252 607 252 607 226 574.5 c 128,-1,26
 200 542 200 542 200 493 c 128,-1,27
 200 444 200 444 209 331 c 1,28,29
 324 333 324 333 391 339 c 1,30,31
 398 326 398 326 398 303.5 c 128,-1,32
 398 281 398 281 394 269 c 1,33,34
 281 274 281 274 213 274 c 1,35,36
 215 224 215 224 215 184.5 c 128,-1,37
 215 145 215 145 202 67 c 1,38,-1
 297 67 l 2,39,40
 336 67 336 67 405 72 c 128,-1,41
 474 77 474 77 490 81 c 1,42,43
 494 62 494 62 494 40 c 128,-1,44
 494 18 494 18 486 -7 c 1,45,46
 410 2 410 2 322.5 2 c 128,-1,47
 235 2 235 2 157.5 -3 c 128,-1,48
 80 -8 80 -8 65 -12 c 1,49,50
 55 15 55 15 55 43 c 1,51,-1
 115 72 l 1,52,53
 136 136 136 136 136 215 c 0,0,1
EndSplineSet
EndChar

StartChar: yen
Encoding: 165 165 101
Width: 494
GlyphClass: 2
Flags: W
LayerCount: 2
Fore
SplineSet
330 587 m 1,0,1
 328 603 328 603 328 614.5 c 128,-1,2
 328 626 328 626 331 643 c 1,3,4
 363 642 363 642 410.5 642 c 128,-1,5
 458 642 458 642 493 643 c 1,6,7
 496 626 496 626 496 611.5 c 128,-1,8
 496 597 496 597 494 587 c 1,9,-1
 459 584 l 1,10,11
 457 579 457 579 426 512 c 128,-1,12
 395 445 395 445 377 405 c 1,13,14
 426 407 426 407 451 409 c 1,15,16
 458 395 458 395 458 374.5 c 128,-1,17
 458 354 458 354 454 339 c 1,18,19
 422 341 422 341 351 343 c 1,20,21
 332 297 332 297 316 253 c 1,22,-1
 450 253 l 1,23,24
 458 237 458 237 458 223 c 128,-1,25
 458 209 458 209 455 197 c 1,26,27
 353 197 353 197 297 196 c 1,28,29
 300 119 300 119 305 58 c 1,30,-1
 341 55 l 1,31,32
 343 39 343 39 343 27.5 c 128,-1,33
 343 16 343 16 340 -1 c 1,34,35
 305 0 305 0 259 0 c 128,-1,36
 213 0 213 0 179 -1 c 1,37,38
 176 14 176 14 176 25.5 c 128,-1,39
 176 37 176 37 178 55 c 1,40,-1
 213 58 l 1,41,42
 219 145 219 145 220 195 c 1,43,44
 126 193 126 193 62 189 c 1,45,46
 55 203 55 203 55 223.5 c 128,-1,47
 55 244 55 244 59 259 c 1,48,49
 133 255 133 255 199 254 c 1,50,51
 194 268 194 268 160 345 c 1,52,-1
 63 345 l 1,53,54
 55 361 55 361 55 375 c 128,-1,55
 55 389 55 389 58 401 c 1,56,-1
 134 401 l 1,57,58
 123 422 123 422 90 487 c 2,59,-1
 42 584 l 1,60,-1
 5 587 l 1,61,62
 3 603 3 603 3 614.5 c 128,-1,63
 3 626 3 626 6 643 c 1,64,65
 41 642 41 642 92.5 642 c 128,-1,66
 144 642 144 642 178 643 c 1,67,68
 181 628 181 628 181 616.5 c 128,-1,69
 181 605 181 605 179 587 c 1,70,-1
 143 584 l 1,71,72
 162 513 162 513 206 417 c 128,-1,73
 250 321 250 321 262 293 c 1,74,-1
 266 293 l 1,75,76
 293 345 293 345 323 428.5 c 128,-1,77
 353 512 353 512 367 584 c 1,78,-1
 330 587 l 1,0,1
EndSplineSet
EndChar

StartChar: brokenbar
Encoding: 166 166 102
Width: 263
GlyphClass: 2
Flags: W
LayerCount: 2
Fore
SplineSet
173 -76 m 1,0,1
 142 -88 142 -88 125 -88 c 128,-1,2
 108 -88 108 -88 93 -85 c 1,3,4
 103 56 103 56 103 251 c 1,5,6
 130 258 130 258 142 258 c 128,-1,7
 154 258 154 258 160 257 c 1,8,9
 160 -14 160 -14 173 -76 c 1,0,1
90 717 m 1,10,11
 115 729 115 729 135 729 c 128,-1,12
 155 729 155 729 170 726 c 1,13,14
 160 585 160 585 160 390 c 1,15,16
 133 383 133 383 120.5 383 c 128,-1,17
 108 383 108 383 103 384 c 1,18,19
 103 655 103 655 90 717 c 1,10,11
EndSplineSet
EndChar

StartChar: section
Encoding: 167 167 103
Width: 480
GlyphClass: 2
Flags: W
LayerCount: 2
Fore
SplineSet
322 469 m 128,-1,1
 305 488 305 488 305 519 c 128,-1,2
 305 550 305 550 318 566 c 1,3,4
 288 596 288 596 236.5 596 c 128,-1,5
 185 596 185 596 159.5 570 c 128,-1,6
 134 544 134 544 134 504 c 128,-1,7
 134 464 134 464 157 438.5 c 128,-1,8
 180 413 180 413 214.5 399 c 128,-1,9
 249 385 249 385 289.5 367.5 c 128,-1,10
 330 350 330 350 364.5 331.5 c 128,-1,11
 399 313 399 313 422 276.5 c 128,-1,12
 445 240 445 240 445 190 c 0,13,14
 445 110 445 110 387 70 c 1,15,16
 445 22 445 22 445 -53.5 c 128,-1,17
 445 -129 445 -129 393.5 -169.5 c 128,-1,18
 342 -210 342 -210 247 -210 c 0,19,20
 114 -210 114 -210 35 -134 c 1,21,22
 39 -110 39 -110 51.5 -90 c 128,-1,23
 64 -70 64 -70 74 -62 c 1,24,-1
 85 -55 l 1,25,26
 144 -136 144 -136 247 -136 c 0,27,28
 299 -136 299 -136 328 -114 c 128,-1,29
 357 -92 357 -92 357 -54.5 c 128,-1,30
 357 -17 357 -17 325 7.5 c 128,-1,31
 293 32 293 32 247.5 49 c 128,-1,32
 202 66 202 66 157 86.5 c 128,-1,33
 112 107 112 107 80 147 c 128,-1,34
 48 187 48 187 48 246 c 0,35,36
 48 325 48 325 101 369 c 1,37,38
 48 415 48 415 48 491 c 128,-1,39
 48 567 48 567 98 611 c 128,-1,40
 148 655 148 655 224 655 c 0,41,42
 374 655 374 655 416 549 c 1,43,44
 422 531 422 531 422 510 c 0,45,46
 422 450 422 450 370 450 c 0,47,0
 339 450 339 450 322 469 c 128,-1,1
163 329 m 1,48,49
 134 303 134 303 134 257.5 c 128,-1,50
 134 212 134 212 165 186.5 c 128,-1,51
 196 161 196 161 303 117 c 1,52,53
 357 136 357 136 357 193 c 0,54,55
 357 236 357 236 306 266 c 0,56,57
 291 275 291 275 244.5 293 c 128,-1,58
 198 311 198 311 163 329 c 1,48,49
EndSplineSet
EndChar

StartChar: dieresis
Encoding: 168 168 104
Width: 473
GlyphClass: 2
Flags: W
LayerCount: 2
Fore
SplineSet
213 607 m 0,0,1
 213 552 213 552 155 552 c 0,2,3
 110 552 110 552 110 598 c 0,4,5
 110 654 110 654 168 654 c 0,6,7
 213 654 213 654 213 607 c 0,0,1
363 607 m 0,8,9
 363 552 363 552 305 552 c 0,10,11
 260 552 260 552 260 598 c 0,12,13
 260 654 260 654 318 654 c 0,14,15
 363 654 363 654 363 607 c 0,8,9
EndSplineSet
EndChar

StartChar: copyright
Encoding: 169 169 105
Width: 616
GlyphClass: 2
Flags: W
LayerCount: 2
Fore
SplineSet
503.5 658 m 128,-1,1
 556 598 556 598 556 474.5 c 128,-1,2
 556 351 556 351 492 281.5 c 128,-1,3
 428 212 428 212 297 212 c 128,-1,4
 166 212 166 212 113 275 c 128,-1,5
 60 338 60 338 60 461 c 0,6,7
 60 516 60 516 71 558.5 c 128,-1,8
 82 601 82 601 110 639 c 0,9,10
 168 718 168 718 328 718 c 0,11,0
 451 718 451 718 503.5 658 c 128,-1,1
331 674 m 0,12,13
 113 674 113 674 113 469 c 0,14,15
 113 350 113 350 154.5 303 c 128,-1,16
 196 256 196 256 285 256 c 0,17,18
 396 256 396 256 449.5 314 c 128,-1,19
 503 372 503 372 503 475.5 c 128,-1,20
 503 579 503 579 461.5 626.5 c 128,-1,21
 420 674 420 674 331 674 c 0,12,13
344 522.5 m 128,-1,23
 333 536 333 536 333 554 c 128,-1,24
 333 572 333 572 340 582 c 1,25,26
 326 593 326 593 305 593 c 0,27,28
 230 593 230 593 230 467.5 c 128,-1,29
 230 342 230 342 305 342 c 0,30,31
 345 342 345 342 378 380 c 1,32,33
 400 361 400 361 405 329 c 1,34,35
 358 294 358 294 305 294 c 0,36,37
 230 294 230 294 204 339.5 c 128,-1,38
 178 385 178 385 178 467 c 0,39,40
 178 632 178 632 305 632 c 0,41,42
 345 632 345 632 376.5 609 c 128,-1,43
 408 586 408 586 408 547.5 c 128,-1,44
 408 509 408 509 376 509 c 0,45,22
 355 509 355 509 344 522.5 c 128,-1,23
EndSplineSet
EndChar

StartChar: ordfeminine
Encoding: 170 170 106
Width: 327
GlyphClass: 2
Flags: W
LayerCount: 2
Fore
SplineSet
284 419 m 1,0,-1
 285 400 l 2,1,2
 285 395 285 395 283 383 c 1,3,4
 267 382 267 382 241 379.5 c 128,-1,5
 215 377 215 377 204 376 c 1,6,7
 201 385 201 385 199 404 c 1,8,9
 165 373 165 373 126.5 373 c 128,-1,10
 88 373 88 373 69 396.5 c 128,-1,11
 50 420 50 420 50 460 c 0,12,13
 50 546 50 546 148 546 c 0,14,15
 178 546 178 546 203 534 c 1,16,17
 205 556 205 556 205 571 c 0,18,19
 205 638 205 638 158 638 c 0,20,21
 134 638 134 638 120 626 c 1,22,23
 125 616 125 616 125 606 c 0,24,25
 125 568 125 568 91 568 c 0,26,27
 61 568 61 568 61 601 c 0,28,29
 61 673 61 673 164 673 c 0,30,31
 206 673 206 673 232 652 c 128,-1,32
 258 631 258 631 258 590 c 1,33,-1
 255 505 l 1,34,35
 255 470 255 470 262 420 c 1,36,-1
 284 419 l 1,0,-1
49 262 m 1,37,38
 43 274 43 274 43 289.5 c 128,-1,39
 43 305 43 305 49 326 c 1,40,41
 248 339 248 339 289 349 c 1,42,43
 295 331 295 331 295 317 c 128,-1,44
 295 303 295 303 289 282 c 1,45,46
 83 269 83 269 49 262 c 1,37,38
148 510 m 0,47,48
 106 510 106 510 106 467.5 c 128,-1,49
 106 425 106 425 142 425 c 128,-1,50
 178 425 178 425 198 449 c 1,51,52
 201 488 201 488 201 493 c 1,53,54
 178 510 178 510 148 510 c 0,47,48
EndSplineSet
EndChar

StartChar: guillemotleft
Encoding: 171 171 107
Width: 495
GlyphClass: 2
Flags: W
LayerCount: 2
Fore
SplineSet
228 426 m 1,0,1
 228 426 228 426 147 280 c 1,2,3
 154 267 154 267 228 134 c 1,4,5
 208 114 208 114 180 108 c 1,6,7
 162 130 162 130 139 158 c 128,-1,8
 116 186 116 186 104 202 c 1,9,10
 74 238 74 238 30 280 c 1,11,12
 74 322 74 322 95 348 c 128,-1,13
 116 374 116 374 139 402 c 128,-1,14
 162 430 162 430 180 452 c 1,15,16
 211 443 211 443 228 426 c 1,0,1
425 426 m 1,17,18
 346 284 346 284 344 280 c 1,19,20
 377 218 377 218 425 134 c 1,21,22
 402 113 402 113 377 108 c 1,23,24
 359 130 359 130 336 158 c 128,-1,25
 313 186 313 186 300 202 c 0,26,27
 271 238 271 238 227 280 c 1,28,29
 271 322 271 322 292 348 c 128,-1,30
 313 374 313 374 336 402 c 128,-1,31
 359 430 359 430 377 452 c 1,32,33
 405 444 405 444 425 426 c 1,17,18
EndSplineSet
EndChar

StartChar: logicalnot
Encoding: 172 172 108
Width: 601
GlyphClass: 2
Flags: W
LayerCount: 2
Fore
SplineSet
446 286 m 1,0,1
 354 295 354 295 298 295 c 128,-1,2
 242 295 242 295 175 290.5 c 128,-1,3
 108 286 108 286 90 281 c 1,4,5
 87 295 87 295 87 321 c 128,-1,6
 87 347 87 347 94 369 c 1,7,8
 163 360 163 360 261 360 c 0,9,10
 461 360 461 360 511 374 c 1,11,12
 507 331 507 331 507 268.5 c 128,-1,13
 507 206 507 206 518 167 c 1,14,15
 504 164 504 164 481.5 164 c 128,-1,16
 459 164 459 164 438 171 c 1,17,18
 446 213 446 213 446 286 c 1,0,1
EndSplineSet
EndChar

StartChar: registered
Encoding: 174 174 109
Width: 616
GlyphClass: 2
Flags: W
LayerCount: 2
Fore
SplineSet
503.5 658 m 128,-1,1
 556 598 556 598 556 474.5 c 128,-1,2
 556 351 556 351 492 281.5 c 128,-1,3
 428 212 428 212 297 212 c 128,-1,4
 166 212 166 212 113 275 c 128,-1,5
 60 338 60 338 60 461 c 0,6,7
 60 516 60 516 71 558.5 c 128,-1,8
 82 601 82 601 110 639 c 0,9,10
 168 718 168 718 328 718 c 0,11,0
 451 718 451 718 503.5 658 c 128,-1,1
331 674 m 0,12,13
 113 674 113 674 113 469 c 0,14,15
 113 350 113 350 154.5 303 c 128,-1,16
 196 256 196 256 285 256 c 0,17,18
 396 256 396 256 449.5 314 c 128,-1,19
 503 372 503 372 503 475.5 c 128,-1,20
 503 579 503 579 461.5 626.5 c 128,-1,21
 420 674 420 674 331 674 c 0,12,13
286 334 m 1,22,23
 287 328 287 328 287 316.5 c 128,-1,24
 287 305 287 305 285 298 c 1,25,26
 264 299 264 299 233.5 299 c 128,-1,27
 203 299 203 299 183 298 c 1,28,29
 180 308 180 308 180 317 c 128,-1,30
 180 326 180 326 181 334 c 1,31,-1
 204 335 l 1,32,33
 209 387 209 387 209 460 c 128,-1,34
 209 533 209 533 205 577 c 1,35,-1
 180 579 l 1,36,37
 178 591 178 591 178 600.5 c 128,-1,38
 178 610 178 610 179 615 c 1,39,40
 185 616 185 616 227 624 c 128,-1,41
 269 632 269 632 300 632 c 0,42,43
 361 632 361 632 387 606 c 128,-1,44
 413 580 413 580 413 537.5 c 128,-1,45
 413 495 413 495 392.5 467 c 128,-1,46
 372 439 372 439 332 433 c 1,47,48
 353 398 353 398 393 338 c 1,49,-1
 421 336 l 1,50,51
 422 330 422 330 422 319.5 c 128,-1,52
 422 309 422 309 421 300 c 1,53,54
 365 298 365 298 348 297 c 1,55,56
 301 392 301 392 275 434 c 1,57,58
 275 463 275 463 286 474 c 1,59,60
 299 468 299 468 316 468 c 128,-1,61
 333 468 333 468 346 487 c 128,-1,62
 359 506 359 506 359 531 c 0,63,64
 359 593 359 593 300 593 c 0,65,66
 278 593 278 593 260 586 c 1,67,68
 257 549 257 549 257 472 c 128,-1,69
 257 395 257 395 262 335 c 1,70,-1
 286 334 l 1,22,23
EndSplineSet
EndChar

StartChar: macron
Encoding: 175 175 110
Width: 467
GlyphClass: 2
Flags: W
LayerCount: 2
Fore
SplineSet
352 571 m 1,0,1
 305 575 305 575 224 575 c 128,-1,2
 143 575 143 575 111 567 c 1,3,4
 110 574 110 574 110 597 c 128,-1,5
 110 620 110 620 114 636 c 1,6,7
 154 632 154 632 237.5 632 c 128,-1,8
 321 632 321 632 355 641 c 1,9,10
 357 627 357 627 357 607 c 128,-1,11
 357 587 357 587 352 571 c 1,0,1
EndSplineSet
EndChar

StartChar: degree
Encoding: 176 176 111
Width: 342
GlyphClass: 2
Flags: W
LayerCount: 2
Fore
SplineSet
274.5 651.5 m 128,-1,1
 302 620 302 620 302 555 c 128,-1,2
 302 490 302 490 268 453.5 c 128,-1,3
 234 417 234 417 165 417 c 128,-1,4
 96 417 96 417 68 450 c 128,-1,5
 40 483 40 483 40 546.5 c 128,-1,6
 40 610 40 610 70.5 646.5 c 128,-1,7
 101 683 101 683 174 683 c 128,-1,0
 247 683 247 683 274.5 651.5 c 128,-1,1
180 631 m 0,8,9
 95 631 95 631 95 552 c 0,10,11
 95 506 95 506 111 487.5 c 128,-1,12
 127 469 127 469 166 469 c 128,-1,13
 205 469 205 469 226 491.5 c 128,-1,14
 247 514 247 514 247 554.5 c 128,-1,15
 247 595 247 595 231 613 c 128,-1,16
 215 631 215 631 180 631 c 0,8,9
EndSplineSet
EndChar

StartChar: plusminus
Encoding: 177 177 112
Width: 601
GlyphClass: 2
Flags: W
LayerCount: 2
Fore
SplineSet
259 574 m 1,0,1
 281 581 281 581 307 581 c 128,-1,2
 333 581 333 581 347 578 c 1,3,4
 342 561 342 561 337.5 497.5 c 128,-1,5
 333 434 333 434 333 400 c 1,6,7
 367 400 367 400 430.5 404.5 c 128,-1,8
 494 409 494 409 511 414 c 1,9,10
 514 400 514 400 514 374 c 128,-1,11
 514 348 514 348 507 326 c 1,12,13
 431 333 431 333 333 335 c 1,14,15
 333 227 333 227 342 161 c 1,16,17
 320 154 320 154 294 154 c 128,-1,18
 268 154 268 154 254 157 c 1,19,20
 265 201 265 201 268 335 c 1,21,22
 134 332 134 332 90 321 c 1,23,24
 87 334 87 334 87 360.5 c 128,-1,25
 87 387 87 387 94 409 c 1,26,27
 160 400 160 400 268 400 c 1,28,29
 266 498 266 498 259 574 c 1,0,1
507 -5 m 1,30,31
 415 4 415 4 328.5 4 c 128,-1,32
 242 4 242 4 175 -0.5 c 128,-1,33
 108 -5 108 -5 90 -10 c 1,34,35
 87 3 87 3 87 29.5 c 128,-1,36
 87 56 87 56 94 78 c 1,37,38
 163 69 163 69 261 69 c 0,39,40
 461 69 461 69 511 83 c 1,41,42
 514 70 514 70 514 43.5 c 128,-1,43
 514 17 514 17 507 -5 c 1,30,31
EndSplineSet
EndChar

StartChar: twosuperior
Encoding: 178 178 113
Width: 349
GlyphClass: 2
Flags: W
LayerCount: 2
Fore
SplineSet
251 361 m 1,0,-1
 253 403 l 1,1,2
 266 406 266 406 280 406 c 2,3,-1
 303 406 l 1,4,5
 305 352 305 352 308 307 c 1,6,-1
 299 298 l 1,7,8
 254 305 254 305 182 305 c 2,9,-1
 171 305 l 2,10,11
 94 305 94 305 41 295 c 1,12,13
 37 315 37 315 37 327 c 1,14,15
 67 379 67 379 133 445 c 0,16,17
 227 539 227 539 227 587 c 0,18,19
 227 610 227 610 213 629.5 c 128,-1,20
 199 649 199 649 169.5 649 c 128,-1,21
 140 649 140 649 121 631 c 1,22,23
 126 621 126 621 126 605.5 c 128,-1,24
 126 590 126 590 115 577 c 128,-1,25
 104 564 104 564 82 564 c 0,26,27
 47 564 47 564 47 605.5 c 128,-1,28
 47 647 47 647 84.5 672.5 c 128,-1,29
 122 698 122 698 172.5 698 c 128,-1,30
 223 698 223 698 259 670 c 128,-1,31
 295 642 295 642 295 589 c 0,32,33
 295 561 295 561 277.5 529 c 128,-1,34
 260 497 260 497 242.5 477 c 128,-1,35
 225 457 225 457 185.5 416 c 128,-1,36
 146 375 146 375 133 358 c 1,37,-1
 232 360 l 2,38,39
 241 360 241 360 251 361 c 1,0,-1
EndSplineSet
EndChar

StartChar: threesuperior
Encoding: 179 179 114
Width: 370
GlyphClass: 2
Flags: W
LayerCount: 2
Fore
SplineSet
136 632 m 1,0,1
 139 623 139 623 139 607.5 c 128,-1,2
 139 592 139 592 127 578 c 128,-1,3
 115 564 115 564 92 564 c 0,4,5
 54 564 54 564 54 607 c 128,-1,6
 54 650 54 650 91.5 674 c 128,-1,7
 129 698 129 698 179.5 698 c 128,-1,8
 230 698 230 698 266 670 c 128,-1,9
 302 642 302 642 302 586 c 128,-1,10
 302 530 302 530 260 504 c 1,11,12
 316 475 316 475 316 417 c 128,-1,13
 316 359 316 359 280 326.5 c 128,-1,14
 244 294 244 294 166 294 c 128,-1,15
 88 294 88 294 41 338 c 1,16,17
 44 355 44 355 53.5 370 c 128,-1,18
 63 385 63 385 71 392 c 2,19,-1
 79 398 l 1,20,21
 114 347 114 347 169 347 c 0,22,23
 209 347 209 347 228.5 365 c 128,-1,24
 248 383 248 383 248 411 c 0,25,26
 248 457 248 457 208 473 c 1,27,28
 193 472 193 472 168.5 472 c 128,-1,29
 144 472 144 472 125 475 c 1,30,31
 123 487 123 487 123 498.5 c 128,-1,32
 123 510 123 510 131 522 c 1,33,34
 148 516 148 516 176.5 516 c 128,-1,35
 205 516 205 516 220.5 538 c 128,-1,36
 236 560 236 560 236 584.5 c 128,-1,37
 236 609 236 609 221.5 627.5 c 128,-1,38
 207 646 207 646 179 646 c 128,-1,39
 151 646 151 646 136 632 c 1,0,1
EndSplineSet
EndChar

StartChar: acute
Encoding: 180 180 115
Width: 424
GlyphClass: 2
Flags: W
LayerCount: 2
Fore
SplineSet
130 528 m 1,0,1
 115 544 115 544 110 565 c 1,2,3
 129 578 129 578 158 597 c 128,-1,4
 187 616 187 616 200 626 c 0,5,6
 241 654 241 654 274 682 c 1,7,8
 295 664 295 664 304 647.5 c 128,-1,9
 313 631 313 631 314 603 c 1,10,11
 254 579 254 579 130 528 c 1,0,1
EndSplineSet
EndChar

StartChar: mu
Encoding: 181 181 116
Width: 485
GlyphClass: 2
Flags: W
LayerCount: 2
Fore
SplineSet
422 464 m 1,0,1
 407 328 407 328 407 231.5 c 128,-1,2
 407 135 407 135 415 67 c 1,3,-1
 453 65 l 1,4,5
 455 49 455 49 455 36 c 128,-1,6
 455 23 455 23 452 7 c 1,7,8
 413 5 413 5 343 -3 c 1,9,10
 335 15 335 15 331 47 c 1,11,12
 295 17 295 17 269 6 c 128,-1,13
 243 -5 243 -5 203.5 -5 c 128,-1,14
 164 -5 164 -5 138 18 c 1,15,16
 143 -99 143 -99 163 -177 c 1,17,18
 133 -188 133 -188 107.5 -188 c 128,-1,19
 82 -188 82 -188 58 -182 c 1,20,21
 78 7 78 7 78 185 c 128,-1,22
 78 363 78 363 60 458 c 1,23,24
 82 467 82 467 110.5 467 c 128,-1,25
 139 467 139 467 166 464 c 1,26,27
 151 327 151 327 151 231 c 128,-1,28
 151 135 151 135 164.5 96 c 128,-1,29
 178 57 178 57 224.5 57 c 128,-1,30
 271 57 271 57 332 118 c 1,31,32
 334 148 334 148 334 207 c 0,33,34
 334 372 334 372 316 458 c 1,35,36
 354 468 354 468 379 468 c 128,-1,37
 404 468 404 468 422 464 c 1,0,1
EndSplineSet
EndChar

StartChar: paragraph
Encoding: 182 182 117
Width: 512
GlyphClass: 2
Flags: W
LayerCount: 2
Fore
SplineSet
409 571 m 1,0,1
 400 499 400 499 400 328.5 c 128,-1,2
 400 158 400 158 409 58 c 1,3,-1
 445 55 l 1,4,5
 447 39 447 39 447 27.5 c 128,-1,6
 447 16 447 16 444 -1 c 1,7,8
 409 0 409 0 360 0 c 128,-1,9
 311 0 311 0 273 -1 c 1,10,11
 270 14 270 14 270 25.5 c 128,-1,12
 270 37 270 37 272 55 c 1,13,-1
 317 58 l 1,14,15
 323 144 323 144 325 280 c 1,16,17
 305 275 305 275 279 275 c 0,18,19
 177 275 177 275 126 330 c 128,-1,20
 75 385 75 385 75 465 c 0,21,22
 75 655 75 655 293 655 c 0,23,24
 406 655 406 655 484 617 c 1,25,26
 484 590 484 590 477 568.5 c 128,-1,27
 470 547 470 547 463 541 c 1,28,29
 439 558 439 558 409 571 c 1,0,1
315 597 m 1,30,-1
 294 598 l 1,31,32
 162 598 162 598 162 469 c 0,33,34
 162 420 162 420 186 381 c 128,-1,35
 210 342 210 342 265 342 c 0,36,37
 298 342 298 342 325 358 c 1,38,39
 325 496 325 496 315 597 c 1,30,-1
EndSplineSet
EndChar

StartChar: periodcentered
Encoding: 183 183 118
Width: 270
GlyphClass: 2
Flags: W
LayerCount: 2
Fore
SplineSet
220 253 m 0,0,1
 220 223 220 223 202 203 c 128,-1,2
 184 183 184 183 147 183 c 0,3,4
 90 183 90 183 90 241 c 0,5,6
 90 313 90 313 163 313 c 0,7,8
 220 313 220 313 220 253 c 0,0,1
EndSplineSet
EndChar

StartChar: cedilla
Encoding: 184 184 119
Width: 502
GlyphClass: 2
Flags: W
LayerCount: 2
Fore
SplineSet
337 -124 m 0,0,1
 337 -210 337 -210 226 -210 c 0,2,3
 181 -210 181 -210 152 -198 c 1,4,5
 151 -195 151 -195 151 -179.5 c 128,-1,6
 151 -164 151 -164 164 -144 c 1,7,8
 186 -164 186 -164 227.5 -164 c 128,-1,9
 269 -164 269 -164 269 -125 c 0,10,11
 269 -95 269 -95 224 -95 c 0,12,13
 204 -95 204 -95 176 -99 c 1,14,-1
 192 -10 l 1,15,-1
 234 -1 l 1,16,-1
 236 -54 l 1,17,18
 337 -58 337 -58 337 -124 c 0,0,1
EndSplineSet
EndChar

StartChar: onesuperior
Encoding: 185 185 120
Width: 285
GlyphClass: 2
Flags: W
LayerCount: 2
Fore
SplineSet
207 694 m 1,0,1
 198 628 198 628 198 517 c 128,-1,2
 198 406 198 406 203 350 c 1,3,-1
 259 345 l 1,4,5
 260 339 260 339 260 326.5 c 128,-1,6
 260 314 260 314 257 297 c 1,7,8
 223 298 223 298 168 298 c 128,-1,9
 113 298 113 298 80 297 c 1,10,11
 76 309 76 309 76 322.5 c 128,-1,12
 76 336 76 336 78 345 c 1,13,-1
 133 350 l 1,14,15
 137 417 137 417 137 499 c 128,-1,16
 137 581 137 581 135 616 c 1,17,18
 84 582 84 582 67 565 c 1,19,20
 38 596 38 596 30 628 c 1,21,22
 74 646 74 646 162 698 c 1,23,24
 198 698 198 698 207 694 c 1,0,1
EndSplineSet
EndChar

StartChar: ordmasculine
Encoding: 186 186 121
Width: 331
GlyphClass: 2
Flags: W
LayerCount: 2
Fore
SplineSet
50 526 m 0,0,1
 50 673 50 673 165.5 673 c 128,-1,2
 281 673 281 673 281 526 c 0,3,4
 281 455 281 455 256 414 c 128,-1,5
 231 373 231 373 165 373 c 128,-1,6
 99 373 99 373 74.5 414 c 128,-1,7
 50 455 50 455 50 526 c 0,0,1
165 425 m 128,-1,9
 222 425 222 425 222 527.5 c 128,-1,10
 222 630 222 630 165 630 c 128,-1,11
 108 630 108 630 108 527.5 c 128,-1,8
 108 425 108 425 165 425 c 128,-1,9
54 262 m 1,12,13
 48 274 48 274 48 289.5 c 128,-1,14
 48 305 48 305 54 326 c 1,15,16
 252 340 252 340 276 345 c 1,17,18
 282 333 282 333 282 317.5 c 128,-1,19
 282 302 282 302 276 281 c 1,20,21
 78 267 78 267 54 262 c 1,12,13
EndSplineSet
EndChar

StartChar: guillemotright
Encoding: 187 187 122
Width: 495
GlyphClass: 2
Flags: W
LayerCount: 2
Fore
SplineSet
348 280 m 1,0,-1
 267 426 l 1,1,2
 284 443 284 443 315 452 c 1,3,4
 333 430 333 430 356 402 c 128,-1,5
 379 374 379 374 392 358 c 0,6,7
 421 322 421 322 465 280 c 1,8,9
 421 238 421 238 400 212 c 128,-1,10
 379 186 379 186 356 158 c 128,-1,11
 333 130 333 130 315 108 c 1,12,13
 288 114 288 114 267 134 c 1,14,15
 341 267 341 267 348 280 c 1,0,-1
70 426 m 1,16,17
 90 444 90 444 118 452 c 1,18,19
 136 430 136 430 159 402 c 128,-1,20
 182 374 182 374 194 358 c 1,21,22
 224 322 224 322 268 280 c 1,23,24
 224 238 224 238 203 212 c 128,-1,25
 182 186 182 186 159 158 c 128,-1,26
 136 130 136 130 118 108 c 1,27,28
 93 113 93 113 70 134 c 1,29,30
 118 218 118 218 151 280 c 1,31,32
 149 284 149 284 70 426 c 1,16,17
EndSplineSet
EndChar

StartChar: onequarter
Encoding: 188 188 123
Width: 889
GlyphClass: 2
Flags: W
LayerCount: 2
Fore
SplineSet
305 -46 m 0,0,1
 271 -46 271 -46 248 -27 c 1,2,3
 372 265 372 265 502 686 c 1,4,5
 518 688 518 688 528 688 c 0,6,7
 556 688 556 688 581 670 c 1,8,9
 460 391 460 391 326 -44 c 1,10,11
 310 -46 310 -46 305 -46 c 0,0,1
635 383 m 1,12,13
 658 392 658 392 680 392 c 128,-1,14
 702 392 702 392 736 389 c 1,15,16
 727 321 727 321 727 247 c 128,-1,17
 727 173 727 173 728 158 c 1,18,19
 752 162 752 162 759 164 c 1,20,21
 765 146 765 146 765 128.5 c 128,-1,22
 765 111 765 111 758 93 c 1,23,24
 731 96 731 96 730 96 c 1,25,26
 730 67 730 67 733 46 c 1,27,-1
 763 42 l 1,28,29
 764 36 764 36 764 23 c 128,-1,30
 764 10 764 10 761 -6 c 1,31,32
 736 -5 736 -5 695 -5 c 128,-1,33
 654 -5 654 -5 634 -6 c 1,34,35
 630 6 630 6 630 19.5 c 128,-1,36
 630 33 630 33 632 42 c 1,37,-1
 660 46 l 2,38,39
 660 47 660 47 663 99 c 1,40,-1
 619 99 l 2,41,42
 538 99 538 99 490 96 c 1,43,44
 485 109 485 109 485 127 c 1,45,46
 590 291 590 291 635 383 c 1,12,13
665 153 m 1,47,48
 666 164 666 164 666 212 c 128,-1,49
 666 260 666 260 663 327 c 1,50,51
 627 273 627 273 565 152 c 1,52,53
 635 153 635 153 665 153 c 1,47,48
257 649 m 1,54,55
 248 583 248 583 248 472 c 128,-1,56
 248 361 248 361 253 305 c 1,57,-1
 309 300 l 1,58,59
 310 294 310 294 310 281 c 128,-1,60
 310 268 310 268 307 252 c 1,61,62
 273 253 273 253 218 253 c 128,-1,63
 163 253 163 253 130 252 c 1,64,65
 126 264 126 264 126 277.5 c 128,-1,66
 126 291 126 291 128 300 c 1,67,-1
 183 305 l 1,68,69
 187 372 187 372 187 454 c 128,-1,70
 187 536 187 536 185 571 c 1,71,72
 134 537 134 537 117 520 c 1,73,74
 88 551 88 551 80 583 c 1,75,76
 124 601 124 601 212 653 c 1,77,78
 248 653 248 653 257 649 c 1,54,55
EndSplineSet
EndChar

StartChar: onehalf
Encoding: 189 189 124
Width: 889
GlyphClass: 2
Flags: W
LayerCount: 2
Fore
SplineSet
294 -46 m 0,0,1
 260 -46 260 -46 237 -27 c 1,2,3
 361 265 361 265 491 686 c 1,4,5
 507 688 507 688 517 688 c 0,6,7
 545 688 545 688 570 670 c 1,8,9
 449 391 449 391 315 -44 c 1,10,11
 299 -46 299 -46 294 -46 c 0,0,1
723 58 m 1,12,-1
 725 100 l 1,13,14
 738 103 738 103 752 103 c 2,15,-1
 775 103 l 1,16,17
 777 49 777 49 780 4 c 1,18,-1
 771 -5 l 1,19,20
 726 2 726 2 654 2 c 2,21,-1
 643 2 l 2,22,23
 566 2 566 2 513 -8 c 1,24,25
 509 12 509 12 509 24 c 1,26,27
 539 76 539 76 605 142 c 0,28,29
 699 236 699 236 699 284 c 0,30,31
 699 307 699 307 685 326.5 c 128,-1,32
 671 346 671 346 641.5 346 c 128,-1,33
 612 346 612 346 593 328 c 1,34,35
 598 318 598 318 598 302.5 c 128,-1,36
 598 287 598 287 587 274 c 128,-1,37
 576 261 576 261 554 261 c 0,38,39
 519 261 519 261 519 302.5 c 128,-1,40
 519 344 519 344 556.5 369.5 c 128,-1,41
 594 395 594 395 644.5 395 c 128,-1,42
 695 395 695 395 731 367 c 128,-1,43
 767 339 767 339 767 286 c 0,44,45
 767 258 767 258 749.5 226 c 128,-1,46
 732 194 732 194 714.5 174 c 128,-1,47
 697 154 697 154 657.5 113 c 128,-1,48
 618 72 618 72 605 55 c 1,49,-1
 681 56 l 2,50,51
 703 56 703 56 723 58 c 1,12,-1
257 649 m 1,52,53
 248 583 248 583 248 472 c 128,-1,54
 248 361 248 361 253 305 c 1,55,-1
 309 300 l 1,56,57
 310 294 310 294 310 281 c 128,-1,58
 310 268 310 268 307 252 c 1,59,60
 273 253 273 253 218 253 c 128,-1,61
 163 253 163 253 130 252 c 1,62,63
 126 264 126 264 126 277.5 c 128,-1,64
 126 291 126 291 128 300 c 1,65,-1
 183 305 l 1,66,67
 187 372 187 372 187 454 c 128,-1,68
 187 536 187 536 185 571 c 1,69,70
 134 537 134 537 117 520 c 1,71,72
 88 551 88 551 80 583 c 1,73,74
 124 601 124 601 212 653 c 1,75,76
 248 653 248 653 257 649 c 1,52,53
EndSplineSet
EndChar

StartChar: threequarters
Encoding: 190 190 125
Width: 889
GlyphClass: 2
Flags: W
LayerCount: 2
Fore
SplineSet
335 -46 m 0,0,1
 301 -46 301 -46 278 -27 c 1,2,3
 402 265 402 265 532 686 c 1,4,5
 548 688 548 688 558 688 c 0,6,7
 586 688 586 688 611 670 c 1,8,9
 490 391 490 391 356 -44 c 1,10,11
 340 -46 340 -46 335 -46 c 0,0,1
635 383 m 1,12,13
 658 392 658 392 680 392 c 128,-1,14
 702 392 702 392 736 389 c 1,15,16
 727 321 727 321 727 247 c 128,-1,17
 727 173 727 173 728 158 c 1,18,19
 752 162 752 162 759 164 c 1,20,21
 765 146 765 146 765 128.5 c 128,-1,22
 765 111 765 111 758 93 c 1,23,24
 731 96 731 96 730 96 c 1,25,26
 730 67 730 67 733 46 c 1,27,-1
 763 42 l 1,28,29
 764 36 764 36 764 23 c 128,-1,30
 764 10 764 10 761 -6 c 1,31,32
 736 -5 736 -5 695 -5 c 128,-1,33
 654 -5 654 -5 634 -6 c 1,34,35
 630 6 630 6 630 19.5 c 128,-1,36
 630 33 630 33 632 42 c 1,37,-1
 660 46 l 2,38,39
 660 47 660 47 663 99 c 1,40,-1
 619 99 l 2,41,42
 538 99 538 99 490 96 c 1,43,44
 485 109 485 109 485 127 c 1,45,46
 590 291 590 291 635 383 c 1,12,13
665 153 m 1,47,48
 666 164 666 164 666 212 c 128,-1,49
 666 260 666 260 663 327 c 1,50,51
 627 273 627 273 565 152 c 1,52,53
 635 153 635 153 665 153 c 1,47,48
168 587 m 1,54,55
 171 578 171 578 171 562.5 c 128,-1,56
 171 547 171 547 159 533 c 128,-1,57
 147 519 147 519 124 519 c 0,58,59
 86 519 86 519 86 562 c 128,-1,60
 86 605 86 605 123.5 629 c 128,-1,61
 161 653 161 653 211.5 653 c 128,-1,62
 262 653 262 653 298 625 c 128,-1,63
 334 597 334 597 334 541 c 128,-1,64
 334 485 334 485 292 459 c 1,65,66
 348 430 348 430 348 372 c 128,-1,67
 348 314 348 314 312 281.5 c 128,-1,68
 276 249 276 249 198 249 c 128,-1,69
 120 249 120 249 73 293 c 1,70,71
 76 310 76 310 85.5 325 c 128,-1,72
 95 340 95 340 103 346 c 2,73,-1
 111 353 l 1,74,75
 146 302 146 302 201 302 c 0,76,77
 241 302 241 302 260.5 320 c 128,-1,78
 280 338 280 338 280 366 c 0,79,80
 280 412 280 412 240 428 c 1,81,82
 225 427 225 427 200.5 427 c 128,-1,83
 176 427 176 427 157 430 c 1,84,85
 155 442 155 442 155 453.5 c 128,-1,86
 155 465 155 465 163 477 c 1,87,88
 180 471 180 471 208.5 471 c 128,-1,89
 237 471 237 471 252.5 493 c 128,-1,90
 268 515 268 515 268 539.5 c 128,-1,91
 268 564 268 564 253.5 582.5 c 128,-1,92
 239 601 239 601 211 601 c 128,-1,93
 183 601 183 601 168 587 c 1,54,55
EndSplineSet
EndChar

StartChar: questiondown
Encoding: 191 191 126
Width: 429
GlyphClass: 2
Flags: W
LayerCount: 2
Fore
SplineSet
224 -154 m 128,-1,1
 260 -154 260 -154 282 -135 c 1,2,3
 273 -120 273 -120 273 -96 c 128,-1,4
 273 -72 273 -72 288 -53.5 c 128,-1,5
 303 -35 303 -35 332 -35 c 0,6,7
 379 -35 379 -35 379 -91.5 c 128,-1,8
 379 -148 379 -148 331 -179 c 128,-1,9
 283 -210 283 -210 220.5 -210 c 128,-1,10
 158 -210 158 -210 106 -172 c 128,-1,11
 54 -134 54 -134 54 -68 c 0,12,13
 54 -5 54 -5 112 46 c 0,14,15
 136 67 136 67 160 86 c 0,16,17
 219 133 219 133 219 177.5 c 128,-1,18
 219 222 219 222 188 256 c 1,19,20
 213 289 213 289 249 293 c 1,21,22
 287 223 287 223 287 173.5 c 128,-1,23
 287 124 287 124 233 67 c 0,24,25
 225 58 225 58 201.5 34.5 c 128,-1,26
 178 11 178 11 168 -1 c 0,27,28
 137 -38 137 -38 137 -72 c 128,-1,29
 137 -106 137 -106 162.5 -130 c 128,-1,0
 188 -154 188 -154 224 -154 c 128,-1,1
161 408 m 0,30,31
 161 438 161 438 179 458 c 128,-1,32
 197 478 197 478 234 478 c 0,33,34
 291 478 291 478 291 420 c 0,35,36
 291 348 291 348 218 348 c 0,37,38
 161 348 161 348 161 408 c 0,30,31
EndSplineSet
EndChar

StartChar: Agrave
Encoding: 192 192 127
Width: 561
GlyphClass: 2
Flags: W
LayerCount: 2
Fore
SplineSet
151 613 m 128,-1,1
 151 632 151 632 152 638 c 1,2,3
 240 649 240 649 283 649 c 128,-1,4
 326 649 326 649 356 639 c 1,5,6
 380 451 380 451 523 58 c 1,7,-1
 560 55 l 1,8,9
 562 33 562 33 562 24.5 c 128,-1,10
 562 16 562 16 559 -1 c 1,11,12
 531 0 531 0 472 0 c 128,-1,13
 413 0 413 0 390 -1 c 1,14,15
 387 14 387 14 387 27.5 c 128,-1,16
 387 41 387 41 389 55 c 1,17,-1
 424 58 l 1,18,19
 419 82 419 82 408 127.5 c 128,-1,20
 397 173 397 173 396 178 c 1,21,22
 339 181 339 181 272.5 181 c 128,-1,23
 206 181 206 181 148 177 c 1,24,-1
 120 58 l 1,25,-1
 158 55 l 1,26,27
 160 33 160 33 160 24.5 c 128,-1,28
 160 16 160 16 157 -1 c 1,29,30
 133 0 133 0 78.5 0 c 128,-1,31
 24 0 24 0 2 -1 c 1,32,33
 -1 14 -1 14 -1 27.5 c 128,-1,34
 -1 41 -1 41 1 55 c 1,35,-1
 36 58 l 1,36,37
 156 387 156 387 194 579 c 1,38,-1
 154 582 l 1,39,0
 151 594 151 594 151 613 c 128,-1,1
166 247 m 1,40,41
 200 246 200 246 268 246 c 128,-1,42
 336 246 336 246 378 249 c 1,43,44
 331 427 331 427 279 578 c 1,45,-1
 273 578 l 1,46,47
 214 435 214 435 166 247 c 1,40,41
338 704 m 1,48,49
 275 717 275 717 158 759 c 1,50,51
 158 792 158 792 164.5 807.5 c 128,-1,52
 171 823 171 823 191 845 c 1,53,54
 229 813 229 813 256.5 797.5 c 128,-1,55
 284 782 284 782 290.5 778 c 128,-1,56
 297 774 297 774 322 760 c 128,-1,57
 347 746 347 746 354 742 c 1,58,59
 351 721 351 721 338 704 c 1,48,49
EndSplineSet
EndChar

StartChar: Aacute
Encoding: 193 193 128
Width: 561
GlyphClass: 2
Flags: W
LayerCount: 2
Fore
SplineSet
151 613 m 128,-1,1
 151 632 151 632 152 638 c 1,2,3
 240 649 240 649 283 649 c 128,-1,4
 326 649 326 649 356 639 c 1,5,6
 380 451 380 451 523 58 c 1,7,-1
 560 55 l 1,8,9
 562 33 562 33 562 24.5 c 128,-1,10
 562 16 562 16 559 -1 c 1,11,12
 531 0 531 0 472 0 c 128,-1,13
 413 0 413 0 390 -1 c 1,14,15
 387 14 387 14 387 27.5 c 128,-1,16
 387 41 387 41 389 55 c 1,17,-1
 424 58 l 1,18,19
 419 82 419 82 408 127.5 c 128,-1,20
 397 173 397 173 396 178 c 1,21,22
 339 181 339 181 272.5 181 c 128,-1,23
 206 181 206 181 148 177 c 1,24,-1
 120 58 l 1,25,-1
 158 55 l 1,26,27
 160 33 160 33 160 24.5 c 128,-1,28
 160 16 160 16 157 -1 c 1,29,30
 133 0 133 0 78.5 0 c 128,-1,31
 24 0 24 0 2 -1 c 1,32,33
 -1 14 -1 14 -1 27.5 c 128,-1,34
 -1 41 -1 41 1 55 c 1,35,-1
 36 58 l 1,36,37
 156 387 156 387 194 579 c 1,38,-1
 154 582 l 1,39,0
 151 594 151 594 151 613 c 128,-1,1
166 247 m 1,40,41
 200 246 200 246 268 246 c 128,-1,42
 336 246 336 246 378 249 c 1,43,44
 331 427 331 427 279 578 c 1,45,-1
 273 578 l 1,46,47
 214 435 214 435 166 247 c 1,40,41
397 768 m 0,48,49
 397 756 397 756 396 750 c 1,50,51
 273 713 273 713 214 704 c 1,52,53
 201 721 201 721 199 743 c 1,54,55
 220 754 220 754 249.5 769 c 128,-1,56
 279 784 279 784 294 792 c 0,57,58
 338 816 338 816 367 838 c 1,59,60
 397 805 397 805 397 768 c 0,48,49
EndSplineSet
EndChar

StartChar: Acircumflex
Encoding: 194 194 129
Width: 561
GlyphClass: 2
Flags: W
LayerCount: 2
Fore
SplineSet
151 613 m 128,-1,1
 151 632 151 632 152 638 c 1,2,3
 240 649 240 649 283 649 c 128,-1,4
 326 649 326 649 356 639 c 1,5,6
 380 451 380 451 523 58 c 1,7,-1
 560 55 l 1,8,9
 562 33 562 33 562 24.5 c 128,-1,10
 562 16 562 16 559 -1 c 1,11,12
 531 0 531 0 472 0 c 128,-1,13
 413 0 413 0 390 -1 c 1,14,15
 387 14 387 14 387 27.5 c 128,-1,16
 387 41 387 41 389 55 c 1,17,-1
 424 58 l 1,18,19
 419 82 419 82 408 127.5 c 128,-1,20
 397 173 397 173 396 178 c 1,21,22
 339 181 339 181 272.5 181 c 128,-1,23
 206 181 206 181 148 177 c 1,24,-1
 120 58 l 1,25,-1
 158 55 l 1,26,27
 160 33 160 33 160 24.5 c 128,-1,28
 160 16 160 16 157 -1 c 1,29,30
 133 0 133 0 78.5 0 c 128,-1,31
 24 0 24 0 2 -1 c 1,32,33
 -1 14 -1 14 -1 27.5 c 128,-1,34
 -1 41 -1 41 1 55 c 1,35,-1
 36 58 l 1,36,37
 156 387 156 387 194 579 c 1,38,-1
 154 582 l 1,39,0
 151 594 151 594 151 613 c 128,-1,1
166 247 m 1,40,41
 200 246 200 246 268 246 c 128,-1,42
 336 246 336 246 378 249 c 1,43,44
 331 427 331 427 279 578 c 1,45,-1
 273 578 l 1,46,47
 214 435 214 435 166 247 c 1,40,41
409 704 m 1,48,49
 341 725 341 725 282 756 c 1,50,51
 195 716 195 716 147 704 c 1,52,53
 135 722 135 722 132 743 c 1,54,55
 153 757 153 757 171 766 c 128,-1,56
 189 775 189 775 203.5 784 c 128,-1,57
 218 793 218 793 225 798 c 128,-1,58
 232 803 232 803 244 811 c 0,59,60
 258 821 258 821 282 845 c 1,61,62
 326 803 326 803 425 742 c 1,63,64
 422 721 422 721 409 704 c 1,48,49
EndSplineSet
EndChar

StartChar: Atilde
Encoding: 195 195 130
Width: 561
GlyphClass: 2
Flags: W
LayerCount: 2
Fore
SplineSet
151 613 m 128,-1,1
 151 632 151 632 152 638 c 1,2,3
 240 649 240 649 283 649 c 128,-1,4
 326 649 326 649 356 639 c 1,5,6
 380 451 380 451 523 58 c 1,7,-1
 560 55 l 1,8,9
 562 33 562 33 562 24.5 c 128,-1,10
 562 16 562 16 559 -1 c 1,11,12
 531 0 531 0 472 0 c 128,-1,13
 413 0 413 0 390 -1 c 1,14,15
 387 14 387 14 387 27.5 c 128,-1,16
 387 41 387 41 389 55 c 1,17,-1
 424 58 l 1,18,19
 419 82 419 82 408 127.5 c 128,-1,20
 397 173 397 173 396 178 c 1,21,22
 339 181 339 181 272.5 181 c 128,-1,23
 206 181 206 181 148 177 c 1,24,-1
 120 58 l 1,25,-1
 158 55 l 1,26,27
 160 33 160 33 160 24.5 c 128,-1,28
 160 16 160 16 157 -1 c 1,29,30
 133 0 133 0 78.5 0 c 128,-1,31
 24 0 24 0 2 -1 c 1,32,33
 -1 14 -1 14 -1 27.5 c 128,-1,34
 -1 41 -1 41 1 55 c 1,35,-1
 36 58 l 1,36,37
 156 387 156 387 194 579 c 1,38,-1
 154 582 l 1,39,0
 151 594 151 594 151 613 c 128,-1,1
166 247 m 1,40,41
 200 246 200 246 268 246 c 128,-1,42
 336 246 336 246 378 249 c 1,43,44
 331 427 331 427 279 578 c 1,45,-1
 273 578 l 1,46,47
 214 435 214 435 166 247 c 1,40,41
379 724 m 128,-1,49
 349 704 349 704 324 704 c 128,-1,50
 299 704 299 704 267.5 720.5 c 128,-1,51
 236 737 236 737 218 737 c 0,52,53
 182 737 182 737 164 705 c 1,54,55
 137 716 137 716 132 737 c 1,56,57
 147 763 147 763 177 783 c 128,-1,58
 207 803 207 803 233.5 803 c 128,-1,59
 260 803 260 803 291.5 786.5 c 128,-1,60
 323 770 323 770 338 770 c 0,61,62
 374 770 374 770 392 802 c 1,63,64
 419 791 419 791 424 770 c 1,65,48
 409 744 409 744 379 724 c 128,-1,49
EndSplineSet
EndChar

StartChar: Adieresis
Encoding: 196 196 131
Width: 561
GlyphClass: 2
Flags: W
LayerCount: 2
Fore
SplineSet
151 613 m 128,-1,1
 151 632 151 632 152 638 c 1,2,3
 240 649 240 649 283 649 c 128,-1,4
 326 649 326 649 356 639 c 1,5,6
 380 451 380 451 523 58 c 1,7,-1
 560 55 l 1,8,9
 562 33 562 33 562 24.5 c 128,-1,10
 562 16 562 16 559 -1 c 1,11,12
 531 0 531 0 472 0 c 128,-1,13
 413 0 413 0 390 -1 c 1,14,15
 387 14 387 14 387 27.5 c 128,-1,16
 387 41 387 41 389 55 c 1,17,-1
 424 58 l 1,18,19
 419 82 419 82 408 127.5 c 128,-1,20
 397 173 397 173 396 178 c 1,21,22
 339 181 339 181 272.5 181 c 128,-1,23
 206 181 206 181 148 177 c 1,24,-1
 120 58 l 1,25,-1
 158 55 l 1,26,27
 160 33 160 33 160 24.5 c 128,-1,28
 160 16 160 16 157 -1 c 1,29,30
 133 0 133 0 78.5 0 c 128,-1,31
 24 0 24 0 2 -1 c 1,32,33
 -1 14 -1 14 -1 27.5 c 128,-1,34
 -1 41 -1 41 1 55 c 1,35,-1
 36 58 l 1,36,37
 156 387 156 387 194 579 c 1,38,-1
 154 582 l 1,39,0
 151 594 151 594 151 613 c 128,-1,1
166 247 m 1,40,41
 200 246 200 246 268 246 c 128,-1,42
 336 246 336 246 378 249 c 1,43,44
 331 427 331 427 279 578 c 1,45,-1
 273 578 l 1,46,47
 214 435 214 435 166 247 c 1,40,41
257 759 m 0,48,49
 257 704 257 704 199 704 c 0,50,51
 154 704 154 704 154 750 c 0,52,53
 154 806 154 806 212 806 c 0,54,55
 257 806 257 806 257 759 c 0,48,49
407 759 m 0,56,57
 407 704 407 704 349 704 c 0,58,59
 304 704 304 704 304 750 c 0,60,61
 304 806 304 806 362 806 c 0,62,63
 407 806 407 806 407 759 c 0,56,57
EndSplineSet
EndChar

StartChar: Aring
Encoding: 197 197 132
Width: 561
GlyphClass: 2
Flags: W
LayerCount: 2
Fore
SplineSet
151 613 m 128,-1,1
 151 632 151 632 152 638 c 1,2,3
 240 649 240 649 283 649 c 128,-1,4
 326 649 326 649 356 639 c 1,5,6
 380 451 380 451 523 58 c 1,7,-1
 560 55 l 1,8,9
 562 33 562 33 562 24.5 c 128,-1,10
 562 16 562 16 559 -1 c 1,11,12
 531 0 531 0 472 0 c 128,-1,13
 413 0 413 0 390 -1 c 1,14,15
 387 14 387 14 387 27.5 c 128,-1,16
 387 41 387 41 389 55 c 1,17,-1
 424 58 l 1,18,19
 419 82 419 82 408 127.5 c 128,-1,20
 397 173 397 173 396 178 c 1,21,22
 339 181 339 181 272.5 181 c 128,-1,23
 206 181 206 181 148 177 c 1,24,-1
 120 58 l 1,25,-1
 158 55 l 1,26,27
 160 33 160 33 160 24.5 c 128,-1,28
 160 16 160 16 157 -1 c 1,29,30
 133 0 133 0 78.5 0 c 128,-1,31
 24 0 24 0 2 -1 c 1,32,33
 -1 14 -1 14 -1 27.5 c 128,-1,34
 -1 41 -1 41 1 55 c 1,35,-1
 36 58 l 1,36,37
 156 387 156 387 194 579 c 1,38,-1
 154 582 l 1,39,0
 151 594 151 594 151 613 c 128,-1,1
166 247 m 1,40,41
 200 246 200 246 268 246 c 128,-1,42
 336 246 336 246 378 249 c 1,43,44
 331 427 331 427 279 578 c 1,45,-1
 273 578 l 1,46,47
 214 435 214 435 166 247 c 1,40,41
367 783 m 0,48,49
 367 704 367 704 273 704 c 0,50,51
 230 704 230 704 211.5 723 c 128,-1,52
 193 742 193 742 193 781 c 0,53,54
 193 860 193 860 287 860 c 0,55,56
 331 860 331 860 349 842 c 128,-1,57
 367 824 367 824 367 783 c 0,48,49
285 823 m 0,58,59
 232 823 232 823 232 783 c 0,60,61
 232 760 232 760 242 750.5 c 128,-1,62
 252 741 252 741 275 741 c 0,63,64
 328 741 328 741 328 784 c 0,65,66
 328 805 328 805 318 814 c 128,-1,67
 308 823 308 823 285 823 c 0,58,59
EndSplineSet
EndChar

StartChar: AE
Encoding: 198 198 133
Width: 776
GlyphClass: 2
Flags: W
LayerCount: 2
Fore
SplineSet
475 76 m 1,0,1
 527 72 527 72 566 72 c 128,-1,2
 605 72 605 72 653 78 c 1,3,-1
 656 146 l 1,4,5
 672 149 672 149 686 149 c 128,-1,6
 700 149 700 149 712 148 c 1,7,8
 715 72 715 72 721 0 c 1,9,-1
 716 -5 l 1,10,11
 671 0 671 0 436 0 c 0,12,13
 419 0 419 0 387 -4 c 1,14,15
 387 77 387 77 379 179 c 1,16,17
 297 181 297 181 258.5 181 c 128,-1,18
 220 181 220 181 166 177 c 1,19,-1
 125 58 l 1,20,-1
 163 55 l 1,21,22
 165 39 165 39 165 27.5 c 128,-1,23
 165 16 165 16 162 -1 c 1,24,25
 126 0 126 0 79.5 0 c 128,-1,26
 33 0 33 0 2 -1 c 1,27,28
 -1 14 -1 14 -1 25.5 c 128,-1,29
 -1 37 -1 37 1 55 c 1,30,-1
 37 58 l 1,31,32
 188 388 188 388 244 581 c 1,33,-1
 209 584 l 1,34,35
 207 602 207 602 207 613.5 c 128,-1,36
 207 625 207 625 210 640 c 1,37,38
 231 639 231 639 261 639 c 2,39,-1
 446 639 l 2,40,41
 650 639 650 639 691 648 c 1,42,-1
 696 643 l 1,43,44
 689 566 689 566 687 501 c 1,45,46
 675 500 675 500 661.5 500 c 128,-1,47
 648 500 648 500 631 503 c 1,48,-1
 628 571 l 1,49,50
 568 574 568 574 509.5 574 c 128,-1,51
 451 574 451 574 422 571 c 1,52,53
 423 508 423 508 437 365 c 1,54,55
 457 364 457 364 504 364 c 128,-1,56
 551 364 551 364 611 369 c 1,57,-1
 614 406 l 1,58,59
 630 408 630 408 642 408 c 128,-1,60
 654 408 654 408 670 405 c 1,61,62
 669 370 669 370 669 332.5 c 128,-1,63
 669 295 669 295 670 261 c 1,64,65
 655 258 655 258 643.5 258 c 128,-1,66
 632 258 632 258 614 260 c 1,67,-1
 611 295 l 1,68,69
 573 297 573 297 528 297 c 128,-1,70
 483 297 483 297 445 295 c 1,71,72
 460 149 460 149 475 76 c 1,0,1
374 248 m 1,73,-1
 368 310 l 1,74,75
 347 483 347 483 329 578 c 1,76,-1
 322 578 l 1,77,78
 240 380 240 380 192 247 c 1,79,80
 234 246 234 246 291.5 246 c 128,-1,81
 349 246 349 246 374 248 c 1,73,-1
EndSplineSet
EndChar

StartChar: Ccedilla
Encoding: 199 199 134
Width: 536
GlyphClass: 2
Flags: W
LayerCount: 2
Fore
SplineSet
395 469 m 128,-1,1
 378 488 378 488 378 518.5 c 128,-1,2
 378 549 378 549 391 566 c 1,3,4
 359 596 359 596 303 596 c 0,5,6
 221 596 221 596 179 527.5 c 128,-1,7
 137 459 137 459 137 326 c 0,8,9
 137 59 137 59 303 59 c 0,10,11
 343 59 343 59 384.5 78.5 c 128,-1,12
 426 98 426 98 455 130 c 1,13,14
 486 105 486 105 495 51 c 1,15,16
 406 -15 406 -15 303 -15 c 2,17,-1
 293 -15 l 1,18,-1
 295 -54 l 1,19,20
 396 -58 396 -58 396 -124 c 0,21,22
 396 -210 396 -210 285 -210 c 0,23,24
 240 -210 240 -210 211 -198 c 1,25,26
 210 -195 210 -195 210 -179.5 c 128,-1,27
 210 -164 210 -164 223 -144 c 1,28,29
 245 -164 245 -164 286.5 -164 c 128,-1,30
 328 -164 328 -164 328 -125 c 0,31,32
 328 -95 328 -95 283 -95 c 0,33,34
 263 -95 263 -95 235 -99 c 1,35,-1
 250 -11 l 1,36,37
 148 3 148 3 101.5 84.5 c 128,-1,38
 55 166 55 166 55 327.5 c 128,-1,39
 55 489 55 489 118 572 c 128,-1,40
 181 655 181 655 303 655 c 0,41,42
 378 655 378 655 436.5 615.5 c 128,-1,43
 495 576 495 576 495 513 c 128,-1,44
 495 450 495 450 443 450 c 0,45,0
 412 450 412 450 395 469 c 128,-1,1
EndSplineSet
EndChar

StartChar: Egrave
Encoding: 200 200 135
Width: 519
GlyphClass: 2
Flags: W
LayerCount: 2
Fore
SplineSet
369 406 m 1,0,1
 391 408 391 408 399 408 c 128,-1,2
 407 408 407 408 425 405 c 1,3,4
 424 374 424 374 424 325 c 128,-1,5
 424 276 424 276 425 261 c 1,6,7
 410 258 410 258 396 258 c 128,-1,8
 382 258 382 258 369 260 c 1,9,-1
 366 295 l 1,10,11
 312 297 312 297 277 297 c 128,-1,12
 242 297 242 297 188 295 c 1,13,14
 188 164 188 164 195 76 c 1,15,16
 230 73 230 73 294.5 73 c 128,-1,17
 359 73 359 73 396 78 c 1,18,-1
 399 146 l 1,19,20
 416 149 416 149 430.5 149 c 128,-1,21
 445 149 445 149 455 148 c 1,22,23
 456 70 456 70 464 0 c 1,24,-1
 459 -5 l 1,25,26
 410 0 410 0 244.5 0 c 128,-1,27
 79 0 79 0 70 -1 c 1,28,29
 67 14 67 14 67 27.5 c 128,-1,30
 67 41 67 41 69 55 c 1,31,-1
 104 58 l 1,32,33
 113 213 113 213 113 338.5 c 128,-1,34
 113 464 113 464 101 581 c 1,35,-1
 67 584 l 1,36,37
 65 597 65 597 65 611 c 128,-1,38
 65 625 65 625 68 640 c 1,39,40
 93 639 93 639 251 639 c 128,-1,41
 409 639 409 639 454 648 c 1,42,-1
 459 643 l 1,43,44
 451 555 451 555 450 501 c 1,45,46
 440 500 440 500 425 500 c 128,-1,47
 410 500 410 500 394 503 c 1,48,-1
 391 571 l 1,49,50
 340 574 340 574 285 574 c 128,-1,51
 230 574 230 574 194 571 c 1,52,53
 188 508 188 508 188 365 c 1,54,55
 204 364 204 364 253 364 c 128,-1,56
 302 364 302 364 366 368 c 1,57,-1
 369 406 l 1,0,1
357 704 m 1,58,59
 294 717 294 717 177 759 c 1,60,61
 177 792 177 792 183.5 807.5 c 128,-1,62
 190 823 190 823 210 845 c 1,63,64
 248 813 248 813 275.5 797.5 c 128,-1,65
 303 782 303 782 309.5 778 c 128,-1,66
 316 774 316 774 341 760 c 128,-1,67
 366 746 366 746 373 742 c 1,68,69
 370 721 370 721 357 704 c 1,58,59
EndSplineSet
EndChar

StartChar: Eacute
Encoding: 201 201 136
Width: 519
GlyphClass: 2
Flags: W
LayerCount: 2
Fore
SplineSet
369 406 m 1,0,1
 391 408 391 408 399 408 c 128,-1,2
 407 408 407 408 425 405 c 1,3,4
 424 374 424 374 424 325 c 128,-1,5
 424 276 424 276 425 261 c 1,6,7
 410 258 410 258 396 258 c 128,-1,8
 382 258 382 258 369 260 c 1,9,-1
 366 295 l 1,10,11
 312 297 312 297 277 297 c 128,-1,12
 242 297 242 297 188 295 c 1,13,14
 188 164 188 164 195 76 c 1,15,16
 230 73 230 73 294.5 73 c 128,-1,17
 359 73 359 73 396 78 c 1,18,-1
 399 146 l 1,19,20
 416 149 416 149 430.5 149 c 128,-1,21
 445 149 445 149 455 148 c 1,22,23
 456 70 456 70 464 0 c 1,24,-1
 459 -5 l 1,25,26
 410 0 410 0 244.5 0 c 128,-1,27
 79 0 79 0 70 -1 c 1,28,29
 67 14 67 14 67 27.5 c 128,-1,30
 67 41 67 41 69 55 c 1,31,-1
 104 58 l 1,32,33
 113 213 113 213 113 338.5 c 128,-1,34
 113 464 113 464 101 581 c 1,35,-1
 67 584 l 1,36,37
 65 597 65 597 65 611 c 128,-1,38
 65 625 65 625 68 640 c 1,39,40
 93 639 93 639 251 639 c 128,-1,41
 409 639 409 639 454 648 c 1,42,-1
 459 643 l 1,43,44
 451 555 451 555 450 501 c 1,45,46
 440 500 440 500 425 500 c 128,-1,47
 410 500 410 500 394 503 c 1,48,-1
 391 571 l 1,49,50
 340 574 340 574 285 574 c 128,-1,51
 230 574 230 574 194 571 c 1,52,53
 188 508 188 508 188 365 c 1,54,55
 204 364 204 364 253 364 c 128,-1,56
 302 364 302 364 366 368 c 1,57,-1
 369 406 l 1,0,1
406 768 m 0,58,59
 406 756 406 756 405 750 c 1,60,61
 282 713 282 713 223 704 c 1,62,63
 210 721 210 721 208 743 c 1,64,65
 229 754 229 754 258.5 769 c 128,-1,66
 288 784 288 784 303 792 c 0,67,68
 347 816 347 816 376 838 c 1,69,70
 406 805 406 805 406 768 c 0,58,59
EndSplineSet
EndChar

StartChar: Ecircumflex
Encoding: 202 202 137
Width: 519
GlyphClass: 2
Flags: W
LayerCount: 2
Fore
SplineSet
369 406 m 1,0,1
 391 408 391 408 399 408 c 128,-1,2
 407 408 407 408 425 405 c 1,3,4
 424 374 424 374 424 325 c 128,-1,5
 424 276 424 276 425 261 c 1,6,7
 410 258 410 258 396 258 c 128,-1,8
 382 258 382 258 369 260 c 1,9,-1
 366 295 l 1,10,11
 312 297 312 297 277 297 c 128,-1,12
 242 297 242 297 188 295 c 1,13,14
 188 164 188 164 195 76 c 1,15,16
 230 73 230 73 294.5 73 c 128,-1,17
 359 73 359 73 396 78 c 1,18,-1
 399 146 l 1,19,20
 416 149 416 149 430.5 149 c 128,-1,21
 445 149 445 149 455 148 c 1,22,23
 456 70 456 70 464 0 c 1,24,-1
 459 -5 l 1,25,26
 410 0 410 0 244.5 0 c 128,-1,27
 79 0 79 0 70 -1 c 1,28,29
 67 14 67 14 67 27.5 c 128,-1,30
 67 41 67 41 69 55 c 1,31,-1
 104 58 l 1,32,33
 113 213 113 213 113 338.5 c 128,-1,34
 113 464 113 464 101 581 c 1,35,-1
 67 584 l 1,36,37
 65 597 65 597 65 611 c 128,-1,38
 65 625 65 625 68 640 c 1,39,40
 93 639 93 639 251 639 c 128,-1,41
 409 639 409 639 454 648 c 1,42,-1
 459 643 l 1,43,44
 451 555 451 555 450 501 c 1,45,46
 440 500 440 500 425 500 c 128,-1,47
 410 500 410 500 394 503 c 1,48,-1
 391 571 l 1,49,50
 340 574 340 574 285 574 c 128,-1,51
 230 574 230 574 194 571 c 1,52,53
 188 508 188 508 188 365 c 1,54,55
 204 364 204 364 253 364 c 128,-1,56
 302 364 302 364 366 368 c 1,57,-1
 369 406 l 1,0,1
412 704 m 1,58,59
 344 725 344 725 285 756 c 1,60,61
 198 716 198 716 150 704 c 1,62,63
 138 722 138 722 135 743 c 1,64,65
 156 757 156 757 174 766 c 128,-1,66
 192 775 192 775 206.5 784 c 128,-1,67
 221 793 221 793 228 798 c 128,-1,68
 235 803 235 803 246 811 c 0,69,70
 261 821 261 821 285 845 c 1,71,72
 329 803 329 803 428 742 c 1,73,74
 425 721 425 721 412 704 c 1,58,59
EndSplineSet
EndChar

StartChar: Edieresis
Encoding: 203 203 138
Width: 519
GlyphClass: 2
Flags: W
LayerCount: 2
Fore
SplineSet
369 406 m 1,0,1
 391 408 391 408 399 408 c 128,-1,2
 407 408 407 408 425 405 c 1,3,4
 424 374 424 374 424 325 c 128,-1,5
 424 276 424 276 425 261 c 1,6,7
 410 258 410 258 396 258 c 128,-1,8
 382 258 382 258 369 260 c 1,9,-1
 366 295 l 1,10,11
 312 297 312 297 277 297 c 128,-1,12
 242 297 242 297 188 295 c 1,13,14
 188 164 188 164 195 76 c 1,15,16
 230 73 230 73 294.5 73 c 128,-1,17
 359 73 359 73 396 78 c 1,18,-1
 399 146 l 1,19,20
 416 149 416 149 430.5 149 c 128,-1,21
 445 149 445 149 455 148 c 1,22,23
 456 70 456 70 464 0 c 1,24,-1
 459 -5 l 1,25,26
 410 0 410 0 244.5 0 c 128,-1,27
 79 0 79 0 70 -1 c 1,28,29
 67 14 67 14 67 27.5 c 128,-1,30
 67 41 67 41 69 55 c 1,31,-1
 104 58 l 1,32,33
 113 213 113 213 113 338.5 c 128,-1,34
 113 464 113 464 101 581 c 1,35,-1
 67 584 l 1,36,37
 65 597 65 597 65 611 c 128,-1,38
 65 625 65 625 68 640 c 1,39,40
 93 639 93 639 251 639 c 128,-1,41
 409 639 409 639 454 648 c 1,42,-1
 459 643 l 1,43,44
 451 555 451 555 450 501 c 1,45,46
 440 500 440 500 425 500 c 128,-1,47
 410 500 410 500 394 503 c 1,48,-1
 391 571 l 1,49,50
 340 574 340 574 285 574 c 128,-1,51
 230 574 230 574 194 571 c 1,52,53
 188 508 188 508 188 365 c 1,54,55
 204 364 204 364 253 364 c 128,-1,56
 302 364 302 364 366 368 c 1,57,-1
 369 406 l 1,0,1
256 759 m 0,58,59
 256 704 256 704 198 704 c 0,60,61
 153 704 153 704 153 750 c 0,62,63
 153 806 153 806 211 806 c 0,64,65
 256 806 256 806 256 759 c 0,58,59
406 759 m 0,66,67
 406 704 406 704 348 704 c 0,68,69
 303 704 303 704 303 750 c 0,70,71
 303 806 303 806 361 806 c 0,72,73
 406 806 406 806 406 759 c 0,66,67
EndSplineSet
EndChar

StartChar: Igrave
Encoding: 204 204 139
Width: 317
GlyphClass: 2
Flags: W
LayerCount: 2
Fore
SplineSet
202 584 m 1,0,1
 195 503 195 503 195 333 c 128,-1,2
 195 163 195 163 204 58 c 1,3,-1
 240 55 l 1,4,5
 242 39 242 39 242 27.5 c 128,-1,6
 242 16 242 16 239 -1 c 1,7,8
 204 0 204 0 158 0 c 128,-1,9
 112 0 112 0 78 -1 c 1,10,11
 75 14 75 14 75 25.5 c 128,-1,12
 75 37 75 37 77 55 c 1,13,-1
 112 58 l 1,14,15
 120 166 120 166 120 333.5 c 128,-1,16
 120 501 120 501 111 584 c 1,17,-1
 77 587 l 1,18,19
 75 603 75 603 75 614.5 c 128,-1,20
 75 626 75 626 78 643 c 1,21,22
 113 642 113 642 159 642 c 128,-1,23
 205 642 205 642 239 643 c 1,24,25
 242 628 242 628 242 616.5 c 128,-1,26
 242 605 242 605 240 587 c 1,27,-1
 202 584 l 1,0,1
240 704 m 1,28,29
 177 717 177 717 60 759 c 1,30,31
 60 792 60 792 66.5 807.5 c 128,-1,32
 73 823 73 823 93 845 c 1,33,34
 131 813 131 813 158.5 797.5 c 128,-1,35
 186 782 186 782 192.5 778 c 128,-1,36
 199 774 199 774 224 760 c 128,-1,37
 249 746 249 746 256 742 c 1,38,39
 253 721 253 721 240 704 c 1,28,29
EndSplineSet
EndChar

StartChar: Iacute
Encoding: 205 205 140
Width: 317
GlyphClass: 2
Flags: W
LayerCount: 2
Fore
SplineSet
202 584 m 1,0,1
 195 503 195 503 195 333 c 128,-1,2
 195 163 195 163 204 58 c 1,3,-1
 240 55 l 1,4,5
 242 39 242 39 242 27.5 c 128,-1,6
 242 16 242 16 239 -1 c 1,7,8
 204 0 204 0 158 0 c 128,-1,9
 112 0 112 0 78 -1 c 1,10,11
 75 14 75 14 75 25.5 c 128,-1,12
 75 37 75 37 77 55 c 1,13,-1
 112 58 l 1,14,15
 120 166 120 166 120 333.5 c 128,-1,16
 120 501 120 501 111 584 c 1,17,-1
 77 587 l 1,18,19
 75 603 75 603 75 614.5 c 128,-1,20
 75 626 75 626 78 643 c 1,21,22
 113 642 113 642 159 642 c 128,-1,23
 205 642 205 642 239 643 c 1,24,25
 242 628 242 628 242 616.5 c 128,-1,26
 242 605 242 605 240 587 c 1,27,-1
 202 584 l 1,0,1
284 768 m 0,28,29
 284 756 284 756 283 750 c 1,30,31
 160 713 160 713 101 704 c 1,32,33
 88 721 88 721 86 743 c 1,34,35
 107 754 107 754 136.5 769 c 128,-1,36
 166 784 166 784 181 792 c 0,37,38
 225 816 225 816 254 838 c 1,39,40
 284 805 284 805 284 768 c 0,28,29
EndSplineSet
EndChar

StartChar: Icircumflex
Encoding: 206 206 141
Width: 317
GlyphClass: 2
Flags: W
LayerCount: 2
Fore
SplineSet
202 584 m 1,0,1
 195 503 195 503 195 333 c 128,-1,2
 195 163 195 163 204 58 c 1,3,-1
 240 55 l 1,4,5
 242 39 242 39 242 27.5 c 128,-1,6
 242 16 242 16 239 -1 c 1,7,8
 204 0 204 0 158 0 c 128,-1,9
 112 0 112 0 78 -1 c 1,10,11
 75 14 75 14 75 25.5 c 128,-1,12
 75 37 75 37 77 55 c 1,13,-1
 112 58 l 1,14,15
 120 166 120 166 120 333.5 c 128,-1,16
 120 501 120 501 111 584 c 1,17,-1
 77 587 l 1,18,19
 75 603 75 603 75 614.5 c 128,-1,20
 75 626 75 626 78 643 c 1,21,22
 113 642 113 642 159 642 c 128,-1,23
 205 642 205 642 239 643 c 1,24,25
 242 628 242 628 242 616.5 c 128,-1,26
 242 605 242 605 240 587 c 1,27,-1
 202 584 l 1,0,1
288 704 m 1,28,29
 220 725 220 725 161 756 c 1,30,31
 74 716 74 716 26 704 c 1,32,33
 14 722 14 722 11 743 c 1,34,35
 32 757 32 757 50 766 c 128,-1,36
 68 775 68 775 82.5 784 c 128,-1,37
 97 793 97 793 104 798 c 128,-1,38
 111 803 111 803 122 811 c 0,39,40
 137 821 137 821 161 845 c 1,41,42
 205 803 205 803 304 742 c 1,43,44
 301 721 301 721 288 704 c 1,28,29
EndSplineSet
EndChar

StartChar: Idieresis
Encoding: 207 207 142
Width: 317
GlyphClass: 2
Flags: W
LayerCount: 2
Fore
SplineSet
202 584 m 1,0,1
 195 503 195 503 195 333 c 128,-1,2
 195 163 195 163 204 58 c 1,3,-1
 240 55 l 1,4,5
 242 39 242 39 242 27.5 c 128,-1,6
 242 16 242 16 239 -1 c 1,7,8
 204 0 204 0 158 0 c 128,-1,9
 112 0 112 0 78 -1 c 1,10,11
 75 14 75 14 75 25.5 c 128,-1,12
 75 37 75 37 77 55 c 1,13,-1
 112 58 l 1,14,15
 120 166 120 166 120 333.5 c 128,-1,16
 120 501 120 501 111 584 c 1,17,-1
 77 587 l 1,18,19
 75 603 75 603 75 614.5 c 128,-1,20
 75 626 75 626 78 643 c 1,21,22
 113 642 113 642 159 642 c 128,-1,23
 205 642 205 642 239 643 c 1,24,25
 242 628 242 628 242 616.5 c 128,-1,26
 242 605 242 605 240 587 c 1,27,-1
 202 584 l 1,0,1
134 759 m 0,28,29
 134 704 134 704 76 704 c 0,30,31
 31 704 31 704 31 750 c 0,32,33
 31 806 31 806 89 806 c 0,34,35
 134 806 134 806 134 759 c 0,28,29
284 759 m 0,36,37
 284 704 284 704 226 704 c 0,38,39
 181 704 181 704 181 750 c 0,40,41
 181 806 181 806 239 806 c 0,42,43
 284 806 284 806 284 759 c 0,36,37
EndSplineSet
EndChar

StartChar: Eth
Encoding: 208 208 143
Width: 616
GlyphClass: 2
Flags: W
LayerCount: 2
Fore
SplineSet
298 -15 m 0,0,1
 242 -15 242 -15 196.5 -9.5 c 128,-1,2
 151 -4 151 -4 65 2 c 1,3,4
 64 7 64 7 64 25.5 c 128,-1,5
 64 44 64 44 67 58 c 1,6,-1
 107 61 l 1,7,8
 115 157 115 157 116 291 c 1,9,10
 96 289 96 289 48 283 c 1,11,12
 45 298 45 298 45 322.5 c 128,-1,13
 45 347 45 347 52 371 c 1,14,15
 83 367 83 367 116 365 c 1,16,17
 113 517 113 517 106 579 c 1,18,-1
 67 582 l 1,19,20
 64 594 64 594 64 613.5 c 128,-1,21
 64 633 64 633 65 638 c 1,22,23
 130 639 130 639 186 647 c 128,-1,24
 242 655 242 655 298 655 c 0,25,26
 425 655 425 655 493 569.5 c 128,-1,27
 561 484 561 484 561 325 c 0,28,29
 561 -15 561 -15 298 -15 c 0,0,1
298 56 m 0,30,31
 384 56 384 56 429.5 125 c 128,-1,32
 475 194 475 194 475 324.5 c 128,-1,33
 475 455 475 455 429 525.5 c 128,-1,34
 383 596 383 596 297 596 c 0,35,36
 249 596 249 596 198 577 c 1,37,38
 191 496 191 496 191 363 c 1,39,40
 267 363 267 363 341 376 c 1,41,42
 344 361 344 361 344 336.5 c 128,-1,43
 344 312 344 312 337 288 c 1,44,45
 280 295 280 295 208 295 c 2,46,-1
 191 295 l 1,47,48
 191 157 191 157 199 77 c 1,49,50
 246 56 246 56 298 56 c 0,30,31
EndSplineSet
EndChar

StartChar: Ntilde
Encoding: 209 209 144
Width: 650
GlyphClass: 2
Flags: W
LayerCount: 2
Fore
SplineSet
483 145 m 1,0,1
 486 229 486 229 486 365 c 128,-1,2
 486 501 486 501 477 584 c 1,3,-1
 440 587 l 1,4,5
 438 603 438 603 438 614.5 c 128,-1,6
 438 626 438 626 441 643 c 1,7,8
 473 642 473 642 514.5 642 c 128,-1,9
 556 642 556 642 587 643 c 1,10,11
 590 628 590 628 590 616.5 c 128,-1,12
 590 605 590 605 588 587 c 1,13,-1
 553 584 l 1,14,15
 546 503 546 503 546 279.5 c 128,-1,16
 546 56 546 56 563 2 c 1,17,18
 533 -8 533 -8 519.5 -8 c 128,-1,19
 506 -8 506 -8 472 -6 c 1,20,21
 465 25 465 25 413 106.5 c 128,-1,22
 361 188 361 188 283.5 301 c 128,-1,23
 206 414 206 414 172 470 c 1,24,25
 171 427 171 427 171 295 c 128,-1,26
 171 163 171 163 180 58 c 1,27,-1
 217 55 l 1,28,29
 219 39 219 39 219 27.5 c 128,-1,30
 219 16 219 16 216 -1 c 1,31,32
 184 0 184 0 142 0 c 128,-1,33
 100 0 100 0 69 -1 c 1,34,35
 66 14 66 14 66 25.5 c 128,-1,36
 66 37 66 37 68 55 c 1,37,-1
 103 58 l 1,38,39
 111 166 111 166 111 331.5 c 128,-1,40
 111 497 111 497 102 579 c 1,41,-1
 63 582 l 1,42,43
 60 596 60 596 60 613 c 128,-1,44
 60 630 60 630 61 638 c 1,45,46
 146 640 146 640 187 643 c 1,47,48
 206 571 206 571 295 427 c 128,-1,49
 384 283 384 283 483 145 c 1,0,1
424 724 m 128,-1,51
 394 704 394 704 369 704 c 128,-1,52
 344 704 344 704 312.5 720.5 c 128,-1,53
 281 737 281 737 263 737 c 0,54,55
 227 737 227 737 209 705 c 1,56,57
 182 716 182 716 177 737 c 1,58,59
 192 763 192 763 222 783 c 128,-1,60
 252 803 252 803 278.5 803 c 128,-1,61
 305 803 305 803 336.5 786.5 c 128,-1,62
 368 770 368 770 383 770 c 0,63,64
 419 770 419 770 437 802 c 1,65,66
 464 791 464 791 469 770 c 1,67,50
 454 744 454 744 424 724 c 128,-1,51
EndSplineSet
EndChar

StartChar: Ograve
Encoding: 210 210 145
Width: 601
GlyphClass: 2
Flags: W
LayerCount: 2
Fore
SplineSet
55 327 m 0,0,1
 55 655 55 655 300.5 655 c 128,-1,2
 546 655 546 655 546 327 c 0,3,4
 546 267 546 267 541.5 222 c 128,-1,5
 537 177 537 177 521.5 130 c 128,-1,6
 506 83 506 83 480 53 c 128,-1,7
 454 23 454 23 408.5 4 c 128,-1,8
 363 -15 363 -15 300.5 -15 c 128,-1,9
 238 -15 238 -15 192.5 4 c 128,-1,10
 147 23 147 23 121 53 c 128,-1,11
 95 83 95 83 79.5 130 c 128,-1,12
 64 177 64 177 59.5 222 c 128,-1,13
 55 267 55 267 55 327 c 0,0,1
216 81 m 0,14,15
 250 59 250 59 300.5 59 c 128,-1,16
 351 59 351 59 385.5 81 c 128,-1,17
 420 103 420 103 437 144 c 0,18,19
 467 215 467 215 467 326 c 0,20,21
 467 596 467 596 300.5 596 c 128,-1,22
 134 596 134 596 134 326 c 0,23,24
 134 133 134 133 216 81 c 0,14,15
382 704 m 1,25,26
 319 717 319 717 202 759 c 1,27,28
 202 792 202 792 208.5 807.5 c 128,-1,29
 215 823 215 823 235 845 c 1,30,31
 273 813 273 813 300.5 797.5 c 128,-1,32
 328 782 328 782 334.5 778 c 128,-1,33
 341 774 341 774 366 760 c 128,-1,34
 391 746 391 746 398 742 c 1,35,36
 395 721 395 721 382 704 c 1,25,26
EndSplineSet
EndChar

StartChar: Oacute
Encoding: 211 211 146
Width: 601
GlyphClass: 2
Flags: W
LayerCount: 2
Fore
SplineSet
55 327 m 0,0,1
 55 655 55 655 300.5 655 c 128,-1,2
 546 655 546 655 546 327 c 0,3,4
 546 267 546 267 541.5 222 c 128,-1,5
 537 177 537 177 521.5 130 c 128,-1,6
 506 83 506 83 480 53 c 128,-1,7
 454 23 454 23 408.5 4 c 128,-1,8
 363 -15 363 -15 300.5 -15 c 128,-1,9
 238 -15 238 -15 192.5 4 c 128,-1,10
 147 23 147 23 121 53 c 128,-1,11
 95 83 95 83 79.5 130 c 128,-1,12
 64 177 64 177 59.5 222 c 128,-1,13
 55 267 55 267 55 327 c 0,0,1
216 81 m 0,14,15
 250 59 250 59 300.5 59 c 128,-1,16
 351 59 351 59 385.5 81 c 128,-1,17
 420 103 420 103 437 144 c 0,18,19
 467 215 467 215 467 326 c 0,20,21
 467 596 467 596 300.5 596 c 128,-1,22
 134 596 134 596 134 326 c 0,23,24
 134 133 134 133 216 81 c 0,14,15
427 768 m 0,25,26
 427 756 427 756 426 750 c 1,27,28
 303 713 303 713 244 704 c 1,29,30
 231 721 231 721 229 743 c 1,31,32
 250 754 250 754 279.5 769 c 128,-1,33
 309 784 309 784 324 792 c 0,34,35
 368 816 368 816 397 838 c 1,36,37
 427 805 427 805 427 768 c 0,25,26
EndSplineSet
EndChar

StartChar: Ocircumflex
Encoding: 212 212 147
Width: 601
GlyphClass: 2
Flags: W
LayerCount: 2
Fore
SplineSet
55 327 m 0,0,1
 55 655 55 655 300.5 655 c 128,-1,2
 546 655 546 655 546 327 c 0,3,4
 546 267 546 267 541.5 222 c 128,-1,5
 537 177 537 177 521.5 130 c 128,-1,6
 506 83 506 83 480 53 c 128,-1,7
 454 23 454 23 408.5 4 c 128,-1,8
 363 -15 363 -15 300.5 -15 c 128,-1,9
 238 -15 238 -15 192.5 4 c 128,-1,10
 147 23 147 23 121 53 c 128,-1,11
 95 83 95 83 79.5 130 c 128,-1,12
 64 177 64 177 59.5 222 c 128,-1,13
 55 267 55 267 55 327 c 0,0,1
216 81 m 0,14,15
 250 59 250 59 300.5 59 c 128,-1,16
 351 59 351 59 385.5 81 c 128,-1,17
 420 103 420 103 437 144 c 0,18,19
 467 215 467 215 467 326 c 0,20,21
 467 596 467 596 300.5 596 c 128,-1,22
 134 596 134 596 134 326 c 0,23,24
 134 133 134 133 216 81 c 0,14,15
427 704 m 1,25,26
 359 725 359 725 300 756 c 1,27,28
 213 716 213 716 165 704 c 1,29,30
 153 722 153 722 150 743 c 1,31,32
 171 757 171 757 189 766 c 128,-1,33
 207 775 207 775 221.5 784 c 128,-1,34
 236 793 236 793 243 798 c 128,-1,35
 250 803 250 803 262 811 c 0,36,37
 276 821 276 821 300 845 c 1,38,39
 344 803 344 803 443 742 c 1,40,41
 440 721 440 721 427 704 c 1,25,26
EndSplineSet
EndChar

StartChar: Otilde
Encoding: 213 213 148
Width: 601
GlyphClass: 2
Flags: W
LayerCount: 2
Fore
SplineSet
55 327 m 0,0,1
 55 655 55 655 300.5 655 c 128,-1,2
 546 655 546 655 546 327 c 0,3,4
 546 267 546 267 541.5 222 c 128,-1,5
 537 177 537 177 521.5 130 c 128,-1,6
 506 83 506 83 480 53 c 128,-1,7
 454 23 454 23 408.5 4 c 128,-1,8
 363 -15 363 -15 300.5 -15 c 128,-1,9
 238 -15 238 -15 192.5 4 c 128,-1,10
 147 23 147 23 121 53 c 128,-1,11
 95 83 95 83 79.5 130 c 128,-1,12
 64 177 64 177 59.5 222 c 128,-1,13
 55 267 55 267 55 327 c 0,0,1
216 81 m 0,14,15
 250 59 250 59 300.5 59 c 128,-1,16
 351 59 351 59 385.5 81 c 128,-1,17
 420 103 420 103 437 144 c 0,18,19
 467 215 467 215 467 326 c 0,20,21
 467 596 467 596 300.5 596 c 128,-1,22
 134 596 134 596 134 326 c 0,23,24
 134 133 134 133 216 81 c 0,14,15
401 724 m 128,-1,26
 371 704 371 704 346 704 c 128,-1,27
 321 704 321 704 289.5 720.5 c 128,-1,28
 258 737 258 737 240 737 c 0,29,30
 204 737 204 737 186 705 c 1,31,32
 159 716 159 716 154 737 c 1,33,34
 169 763 169 763 199 783 c 128,-1,35
 229 803 229 803 255.5 803 c 128,-1,36
 282 803 282 803 313.5 786.5 c 128,-1,37
 345 770 345 770 360 770 c 0,38,39
 396 770 396 770 414 802 c 1,40,41
 441 791 441 791 446 770 c 1,42,25
 431 744 431 744 401 724 c 128,-1,26
EndSplineSet
EndChar

StartChar: Odieresis
Encoding: 214 214 149
Width: 601
GlyphClass: 2
Flags: W
LayerCount: 2
Fore
SplineSet
55 327 m 0,0,1
 55 655 55 655 300.5 655 c 128,-1,2
 546 655 546 655 546 327 c 0,3,4
 546 267 546 267 541.5 222 c 128,-1,5
 537 177 537 177 521.5 130 c 128,-1,6
 506 83 506 83 480 53 c 128,-1,7
 454 23 454 23 408.5 4 c 128,-1,8
 363 -15 363 -15 300.5 -15 c 128,-1,9
 238 -15 238 -15 192.5 4 c 128,-1,10
 147 23 147 23 121 53 c 128,-1,11
 95 83 95 83 79.5 130 c 128,-1,12
 64 177 64 177 59.5 222 c 128,-1,13
 55 267 55 267 55 327 c 0,0,1
216 81 m 0,14,15
 250 59 250 59 300.5 59 c 128,-1,16
 351 59 351 59 385.5 81 c 128,-1,17
 420 103 420 103 437 144 c 0,18,19
 467 215 467 215 467 326 c 0,20,21
 467 596 467 596 300.5 596 c 128,-1,22
 134 596 134 596 134 326 c 0,23,24
 134 133 134 133 216 81 c 0,14,15
279 759 m 0,25,26
 279 704 279 704 221 704 c 0,27,28
 176 704 176 704 176 750 c 0,29,30
 176 806 176 806 234 806 c 0,31,32
 279 806 279 806 279 759 c 0,25,26
429 759 m 0,33,34
 429 704 429 704 371 704 c 0,35,36
 326 704 326 704 326 750 c 0,37,38
 326 806 326 806 384 806 c 0,39,40
 429 806 429 806 429 759 c 0,33,34
EndSplineSet
EndChar

StartChar: multiply
Encoding: 215 215 150
Width: 601
GlyphClass: 2
Flags: W
LayerCount: 2
Fore
SplineSet
104 465 m 1,0,1
 124 503 124 503 163 530 c 1,2,3
 172 515 172 515 222 458.5 c 128,-1,4
 272 402 272 402 300 373 c 1,5,6
 325 398 325 398 376.5 456.5 c 128,-1,7
 428 515 428 515 438 530 c 1,8,9
 477 503 477 503 497 465 c 1,10,11
 435 414 435 414 346 327 c 1,12,13
 447 228 447 228 497 190 c 1,14,15
 484 166 484 166 469.5 152 c 128,-1,16
 455 138 455 138 438 125 c 1,17,18
 428 140 428 140 376.5 198 c 128,-1,19
 325 256 325 256 300 281 c 1,20,21
 271 251 271 251 221.5 195.5 c 128,-1,22
 172 140 172 140 163 125 c 1,23,24
 124 153 124 153 104 190 c 1,25,26
 150 225 150 225 254 327 c 1,27,28
 177 404 177 404 104 465 c 1,0,1
EndSplineSet
EndChar

StartChar: Oslash
Encoding: 216 216 151
Width: 601
GlyphClass: 2
Flags: W
LayerCount: 2
Fore
SplineSet
195 -84 m 0,0,1
 163 -84 163 -84 141 -63 c 1,2,-1
 168 15 l 1,3,4
 101 53 101 53 78 131.5 c 128,-1,5
 55 210 55 210 55 327 c 0,6,7
 55 655 55 655 300 655 c 0,8,9
 337 655 337 655 364 648 c 1,10,-1
 384 722 l 1,11,12
 400 724 400 724 409 724 c 0,13,14
 434 724 434 724 460 704 c 1,15,-1
 430 623 l 1,16,17
 546 552 546 552 546 327 c 0,18,19
 546 267 546 267 541.5 222 c 128,-1,20
 537 177 537 177 521.5 130 c 128,-1,21
 506 83 506 83 480 53 c 128,-1,22
 454 23 454 23 408.5 4 c 128,-1,23
 363 -15 363 -15 313.5 -15 c 128,-1,24
 264 -15 264 -15 234 -9 c 1,25,-1
 215 -81 l 1,26,27
 204 -84 204 -84 195 -84 c 0,0,1
134 326 m 0,28,29
 134 157 134 157 197 96 c 1,30,31
 275 327 275 327 348 589 c 1,32,33
 322 596 322 596 300 596 c 0,34,35
 134 596 134 596 134 326 c 0,28,29
300 59 m 0,36,37
 402 59 402 59 437 144 c 0,38,39
 467 215 467 215 467 326 c 0,40,41
 467 487 467 487 405 553 c 1,42,43
 326 322 326 322 255 64 c 1,44,45
 277 59 277 59 300 59 c 0,36,37
EndSplineSet
EndChar

StartChar: Ugrave
Encoding: 217 217 152
Width: 644
GlyphClass: 2
Flags: W
LayerCount: 2
Fore
SplineSet
483 276 m 0,0,1
 483 492 483 492 473 584 c 1,2,-1
 438 587 l 1,3,4
 436 603 436 603 436 614.5 c 128,-1,5
 436 626 436 626 439 643 c 1,6,7
 471 642 471 642 513 642 c 128,-1,8
 555 642 555 642 586 643 c 1,9,10
 589 628 589 628 589 616.5 c 128,-1,11
 589 605 589 605 587 587 c 1,12,-1
 554 584 l 1,13,14
 546 486 546 486 546 351.5 c 128,-1,15
 546 217 546 217 542 176.5 c 128,-1,16
 538 136 538 136 524.5 97 c 128,-1,17
 511 58 511 58 487 35 c 0,18,19
 435 -15 435 -15 325 -15 c 0,20,21
 184 -15 184 -15 140 64 c 1,22,23
 118 106 118 106 110.5 154 c 128,-1,24
 103 202 103 202 103 347 c 128,-1,25
 103 492 103 492 93 584 c 1,26,-1
 57 587 l 1,27,28
 55 603 55 603 55 614.5 c 128,-1,29
 55 626 55 626 58 643 c 1,30,31
 93 642 93 642 139 642 c 128,-1,32
 185 642 185 642 219 643 c 1,33,34
 222 628 222 628 222 616.5 c 128,-1,35
 222 605 222 605 220 587 c 1,36,-1
 186 584 l 1,37,38
 178 486 178 486 178 276 c 0,39,40
 178 164 178 164 209 111.5 c 128,-1,41
 240 59 240 59 332 59 c 128,-1,42
 424 59 424 59 453.5 111.5 c 128,-1,43
 483 164 483 164 483 276 c 0,0,1
375 704 m 1,44,45
 312 717 312 717 195 759 c 1,46,47
 195 792 195 792 201.5 807.5 c 128,-1,48
 208 823 208 823 228 845 c 1,49,50
 266 813 266 813 293.5 797.5 c 128,-1,51
 321 782 321 782 327.5 778 c 128,-1,52
 334 774 334 774 359 760 c 128,-1,53
 384 746 384 746 391 742 c 1,54,55
 388 721 388 721 375 704 c 1,44,45
EndSplineSet
EndChar

StartChar: Uacute
Encoding: 218 218 153
Width: 644
GlyphClass: 2
Flags: W
LayerCount: 2
Fore
SplineSet
483 276 m 0,0,1
 483 492 483 492 473 584 c 1,2,-1
 438 587 l 1,3,4
 436 603 436 603 436 614.5 c 128,-1,5
 436 626 436 626 439 643 c 1,6,7
 471 642 471 642 513 642 c 128,-1,8
 555 642 555 642 586 643 c 1,9,10
 589 628 589 628 589 616.5 c 128,-1,11
 589 605 589 605 587 587 c 1,12,-1
 554 584 l 1,13,14
 546 486 546 486 546 351.5 c 128,-1,15
 546 217 546 217 542 176.5 c 128,-1,16
 538 136 538 136 524.5 97 c 128,-1,17
 511 58 511 58 487 35 c 0,18,19
 435 -15 435 -15 325 -15 c 0,20,21
 184 -15 184 -15 140 64 c 1,22,23
 118 106 118 106 110.5 154 c 128,-1,24
 103 202 103 202 103 347 c 128,-1,25
 103 492 103 492 93 584 c 1,26,-1
 57 587 l 1,27,28
 55 603 55 603 55 614.5 c 128,-1,29
 55 626 55 626 58 643 c 1,30,31
 93 642 93 642 139 642 c 128,-1,32
 185 642 185 642 219 643 c 1,33,34
 222 628 222 628 222 616.5 c 128,-1,35
 222 605 222 605 220 587 c 1,36,-1
 186 584 l 1,37,38
 178 486 178 486 178 276 c 0,39,40
 178 164 178 164 209 111.5 c 128,-1,41
 240 59 240 59 332 59 c 128,-1,42
 424 59 424 59 453.5 111.5 c 128,-1,43
 483 164 483 164 483 276 c 0,0,1
443 768 m 0,44,45
 443 756 443 756 442 750 c 1,46,47
 319 713 319 713 260 704 c 1,48,49
 247 721 247 721 245 743 c 1,50,51
 266 754 266 754 295.5 769 c 128,-1,52
 325 784 325 784 340 792 c 0,53,54
 384 816 384 816 413 838 c 1,55,56
 443 805 443 805 443 768 c 0,44,45
EndSplineSet
EndChar

StartChar: Ucircumflex
Encoding: 219 219 154
Width: 644
GlyphClass: 2
Flags: W
LayerCount: 2
Fore
SplineSet
483 276 m 0,0,1
 483 492 483 492 473 584 c 1,2,-1
 438 587 l 1,3,4
 436 603 436 603 436 614.5 c 128,-1,5
 436 626 436 626 439 643 c 1,6,7
 471 642 471 642 513 642 c 128,-1,8
 555 642 555 642 586 643 c 1,9,10
 589 628 589 628 589 616.5 c 128,-1,11
 589 605 589 605 587 587 c 1,12,-1
 554 584 l 1,13,14
 546 486 546 486 546 351.5 c 128,-1,15
 546 217 546 217 542 176.5 c 128,-1,16
 538 136 538 136 524.5 97 c 128,-1,17
 511 58 511 58 487 35 c 0,18,19
 435 -15 435 -15 325 -15 c 0,20,21
 184 -15 184 -15 140 64 c 1,22,23
 118 106 118 106 110.5 154 c 128,-1,24
 103 202 103 202 103 347 c 128,-1,25
 103 492 103 492 93 584 c 1,26,-1
 57 587 l 1,27,28
 55 603 55 603 55 614.5 c 128,-1,29
 55 626 55 626 58 643 c 1,30,31
 93 642 93 642 139 642 c 128,-1,32
 185 642 185 642 219 643 c 1,33,34
 222 628 222 628 222 616.5 c 128,-1,35
 222 605 222 605 220 587 c 1,36,-1
 186 584 l 1,37,38
 178 486 178 486 178 276 c 0,39,40
 178 164 178 164 209 111.5 c 128,-1,41
 240 59 240 59 332 59 c 128,-1,42
 424 59 424 59 453.5 111.5 c 128,-1,43
 483 164 483 164 483 276 c 0,0,1
455 704 m 1,44,45
 387 725 387 725 328 756 c 1,46,47
 241 716 241 716 193 704 c 1,48,49
 181 722 181 722 178 743 c 1,50,51
 199 757 199 757 217 766 c 128,-1,52
 235 775 235 775 249.5 784 c 128,-1,53
 264 793 264 793 271 798 c 128,-1,54
 278 803 278 803 290 811 c 0,55,56
 304 821 304 821 328 845 c 1,57,58
 372 803 372 803 471 742 c 1,59,60
 468 721 468 721 455 704 c 1,44,45
EndSplineSet
EndChar

StartChar: Udieresis
Encoding: 220 220 155
Width: 644
GlyphClass: 2
Flags: W
LayerCount: 2
Fore
SplineSet
483 276 m 0,0,1
 483 492 483 492 473 584 c 1,2,-1
 438 587 l 1,3,4
 436 603 436 603 436 614.5 c 128,-1,5
 436 626 436 626 439 643 c 1,6,7
 471 642 471 642 513 642 c 128,-1,8
 555 642 555 642 586 643 c 1,9,10
 589 628 589 628 589 616.5 c 128,-1,11
 589 605 589 605 587 587 c 1,12,-1
 554 584 l 1,13,14
 546 486 546 486 546 351.5 c 128,-1,15
 546 217 546 217 542 176.5 c 128,-1,16
 538 136 538 136 524.5 97 c 128,-1,17
 511 58 511 58 487 35 c 0,18,19
 435 -15 435 -15 325 -15 c 0,20,21
 184 -15 184 -15 140 64 c 1,22,23
 118 106 118 106 110.5 154 c 128,-1,24
 103 202 103 202 103 347 c 128,-1,25
 103 492 103 492 93 584 c 1,26,-1
 57 587 l 1,27,28
 55 603 55 603 55 614.5 c 128,-1,29
 55 626 55 626 58 643 c 1,30,31
 93 642 93 642 139 642 c 128,-1,32
 185 642 185 642 219 643 c 1,33,34
 222 628 222 628 222 616.5 c 128,-1,35
 222 605 222 605 220 587 c 1,36,-1
 186 584 l 1,37,38
 178 486 178 486 178 276 c 0,39,40
 178 164 178 164 209 111.5 c 128,-1,41
 240 59 240 59 332 59 c 128,-1,42
 424 59 424 59 453.5 111.5 c 128,-1,43
 483 164 483 164 483 276 c 0,0,1
310 759 m 0,44,45
 310 704 310 704 252 704 c 0,46,47
 207 704 207 704 207 750 c 0,48,49
 207 806 207 806 265 806 c 0,50,51
 310 806 310 806 310 759 c 0,44,45
460 759 m 0,52,53
 460 704 460 704 402 704 c 0,54,55
 357 704 357 704 357 750 c 0,56,57
 357 806 357 806 415 806 c 0,58,59
 460 806 460 806 460 759 c 0,52,53
EndSplineSet
EndChar

StartChar: Yacute
Encoding: 221 221 156
Width: 495
GlyphClass: 2
Flags: W
LayerCount: 2
Fore
SplineSet
328 587 m 1,0,1
 326 603 326 603 326 614.5 c 128,-1,2
 326 626 326 626 329 643 c 1,3,4
 361 642 361 642 408.5 642 c 128,-1,5
 456 642 456 642 491 643 c 1,6,7
 494 626 494 626 494 611.5 c 128,-1,8
 494 597 494 597 492 587 c 1,9,-1
 457 584 l 1,10,11
 320 289 320 289 295 194 c 1,12,13
 298 118 298 118 303 58 c 1,14,-1
 339 55 l 1,15,16
 341 39 341 39 341 27.5 c 128,-1,17
 341 16 341 16 338 -1 c 1,18,19
 303 0 303 0 257 0 c 128,-1,20
 211 0 211 0 177 -1 c 1,21,22
 174 14 174 14 174 25.5 c 128,-1,23
 174 37 174 37 176 55 c 1,24,-1
 211 58 l 1,25,26
 217 145 217 145 218 196 c 1,27,28
 192 282 192 282 78 510 c 0,29,30
 46 572 46 572 40 584 c 1,31,-1
 3 587 l 1,32,33
 1 603 1 603 1 614.5 c 128,-1,34
 1 626 1 626 4 643 c 1,35,36
 39 642 39 642 90.5 642 c 128,-1,37
 142 642 142 642 176 643 c 1,38,39
 179 628 179 628 179 616.5 c 128,-1,40
 179 605 179 605 177 587 c 1,41,-1
 141 584 l 1,42,43
 160 513 160 513 204 417 c 128,-1,44
 248 321 248 321 260 293 c 1,45,-1
 264 293 l 1,46,47
 291 345 291 345 321 428.5 c 128,-1,48
 351 512 351 512 365 584 c 1,49,-1
 328 587 l 1,0,1
395 768 m 0,50,51
 395 756 395 756 394 750 c 1,52,53
 271 713 271 713 212 704 c 1,54,55
 199 721 199 721 197 743 c 1,56,57
 218 754 218 754 247.5 769 c 128,-1,58
 277 784 277 784 292 792 c 0,59,60
 336 816 336 816 365 838 c 1,61,62
 395 805 395 805 395 768 c 0,50,51
EndSplineSet
EndChar

StartChar: Thorn
Encoding: 222 222 157
Width: 522
GlyphClass: 2
Flags: W
LayerCount: 2
Fore
SplineSet
240 231 m 1,0,1
 269 202 269 202 318 202 c 128,-1,2
 367 202 367 202 391 242.5 c 128,-1,3
 415 283 415 283 415 334 c 0,4,5
 415 468 415 468 283 468 c 0,6,7
 239 468 239 468 182 444 c 1,8,-1
 182 338 l 2,9,10
 182 163 182 163 191 58 c 1,11,-1
 227 55 l 1,12,13
 229 39 229 39 229 27.5 c 128,-1,14
 229 16 229 16 226 -1 c 1,15,16
 191 0 191 0 145 0 c 128,-1,17
 99 0 99 0 65 -1 c 1,18,19
 62 14 62 14 62 25.5 c 128,-1,20
 62 37 62 37 64 55 c 1,21,-1
 99 58 l 1,22,23
 107 166 107 166 107 333.5 c 128,-1,24
 107 501 107 501 98 584 c 1,25,-1
 64 587 l 1,26,27
 62 603 62 603 62 614.5 c 128,-1,28
 62 626 62 626 65 643 c 1,29,30
 100 642 100 642 146 642 c 128,-1,31
 192 642 192 642 226 643 c 1,32,33
 229 628 229 628 229 616.5 c 128,-1,34
 229 605 229 605 227 587 c 1,35,-1
 189 584 l 1,36,37
 187 561 187 561 185 519 c 1,38,39
 228 525 228 525 284 525 c 0,40,41
 402 525 402 525 452 475.5 c 128,-1,42
 502 426 502 426 502 336.5 c 128,-1,43
 502 247 502 247 451.5 191 c 128,-1,44
 401 135 401 135 298 135 c 0,45,46
 258 135 258 135 219 150 c 1,47,48
 219 177 219 177 226 200 c 128,-1,49
 233 223 233 223 240 231 c 1,0,1
EndSplineSet
EndChar

StartChar: germandbls
Encoding: 223 223 158
Width: 537
GlyphClass: 2
Flags: W
LayerCount: 2
Fore
SplineSet
89 408 m 1,0,-1
 32 407 l 1,1,2
 26 419 26 419 26 436.5 c 128,-1,3
 26 454 26 454 28 462 c 1,4,-1
 89 462 l 1,5,6
 92 522 92 522 108 567.5 c 128,-1,7
 124 613 124 613 164 644 c 128,-1,8
 204 675 204 675 273 675 c 128,-1,9
 342 675 342 675 392 633.5 c 128,-1,10
 442 592 442 592 442 523 c 128,-1,11
 442 454 442 454 410.5 414 c 128,-1,12
 379 374 379 374 332 359 c 1,13,14
 512 321 512 321 512 173 c 0,15,16
 512 35 512 35 418 -3 c 0,17,18
 389 -15 389 -15 342 -15 c 128,-1,19
 295 -15 295 -15 254 15 c 128,-1,20
 213 45 213 45 213 101 c 2,21,-1
 213 105 l 2,22,23
 213 159 213 159 260 159 c 0,24,25
 290 159 290 159 304.5 140.5 c 128,-1,26
 319 122 319 122 319 99.5 c 128,-1,27
 319 77 319 77 312 61 c 1,28,29
 324 48 324 48 351 48 c 0,30,31
 425 48 425 48 425 173 c 0,32,33
 425 267 425 267 354 299 c 0,34,35
 325 312 325 312 293.5 316 c 128,-1,36
 262 320 262 320 259 321 c 1,37,38
 253 333 253 333 253 350.5 c 128,-1,39
 253 368 253 368 255 376 c 1,40,41
 359 397 359 397 359 507 c 0,42,43
 359 554 359 554 335.5 584.5 c 128,-1,44
 312 615 312 615 273 615 c 128,-1,45
 234 615 234 615 212.5 601.5 c 128,-1,46
 191 588 191 588 182 562 c 0,47,48
 165 518 165 518 165 452 c 2,49,-1
 165 278 l 2,50,51
 165 97 165 97 184 0 c 1,52,-1
 126 0 l 2,53,54
 83 0 83 0 49 -1 c 1,55,56
 46 14 46 14 46 25.5 c 128,-1,57
 46 37 46 37 48 55 c 1,58,-1
 82 58 l 1,59,60
 92 192 92 192 92 267 c 1,61,-1
 89 408 l 1,0,-1
EndSplineSet
EndChar

StartChar: agrave
Encoding: 224 224 159
Width: 473
GlyphClass: 2
Flags: W
LayerCount: 2
Fore
SplineSet
388 345 m 1,0,-1
 384 201 l 1,1,2
 384 133 384 133 392 68 c 1,3,-1
 429 65 l 1,4,5
 431 49 431 49 431 35.5 c 128,-1,6
 431 22 431 22 428 7 c 1,7,8
 399 6 399 6 315 -3 c 1,9,10
 308 16 308 16 304 44 c 1,11,12
 226 -15 226 -15 169.5 -15 c 128,-1,13
 113 -15 113 -15 81.5 21.5 c 128,-1,14
 50 58 50 58 50 125.5 c 128,-1,15
 50 193 50 193 92.5 232 c 128,-1,16
 135 271 135 271 199.5 271 c 128,-1,17
 264 271 264 271 310 247 c 1,18,19
 311 258 311 258 311 283 c 0,20,21
 311 357 311 357 290.5 389.5 c 128,-1,22
 270 422 270 422 228 422 c 128,-1,23
 186 422 186 422 167 406 c 1,24,25
 175 390 175 390 175 366 c 128,-1,26
 175 342 175 342 159.5 324.5 c 128,-1,27
 144 307 144 307 116 307 c 0,28,29
 69 307 69 307 69 362.5 c 128,-1,30
 69 418 69 418 111 448 c 128,-1,31
 153 478 153 478 229 478 c 128,-1,32
 305 478 305 478 346.5 442.5 c 128,-1,33
 388 407 388 407 388 345 c 1,0,-1
306 184 m 1,34,35
 265 219 265 219 218 219 c 0,36,37
 128 219 128 219 128 139 c 0,38,39
 128 57 128 57 199 57 c 0,40,41
 225 57 225 57 254.5 70.5 c 128,-1,42
 284 84 284 84 301 104 c 1,43,44
 306 164 306 164 306 184 c 1,34,35
277 528 m 1,45,46
 153 579 153 579 93 603 c 1,47,48
 94 631 94 631 103 647.5 c 128,-1,49
 112 664 112 664 133 682 c 1,50,51
 179 643 179 643 228.5 610.5 c 128,-1,52
 278 578 278 578 297 565 c 1,53,54
 292 544 292 544 277 528 c 1,45,46
EndSplineSet
EndChar

StartChar: aacute
Encoding: 225 225 160
Width: 473
GlyphClass: 2
Flags: W
LayerCount: 2
Fore
SplineSet
388 345 m 1,0,-1
 384 201 l 1,1,2
 384 133 384 133 392 68 c 1,3,-1
 429 65 l 1,4,5
 431 49 431 49 431 35.5 c 128,-1,6
 431 22 431 22 428 7 c 1,7,8
 399 6 399 6 315 -3 c 1,9,10
 308 16 308 16 304 44 c 1,11,12
 226 -15 226 -15 169.5 -15 c 128,-1,13
 113 -15 113 -15 81.5 21.5 c 128,-1,14
 50 58 50 58 50 125.5 c 128,-1,15
 50 193 50 193 92.5 232 c 128,-1,16
 135 271 135 271 199.5 271 c 128,-1,17
 264 271 264 271 310 247 c 1,18,19
 311 258 311 258 311 283 c 0,20,21
 311 357 311 357 290.5 389.5 c 128,-1,22
 270 422 270 422 228 422 c 128,-1,23
 186 422 186 422 167 406 c 1,24,25
 175 390 175 390 175 366 c 128,-1,26
 175 342 175 342 159.5 324.5 c 128,-1,27
 144 307 144 307 116 307 c 0,28,29
 69 307 69 307 69 362.5 c 128,-1,30
 69 418 69 418 111 448 c 128,-1,31
 153 478 153 478 229 478 c 128,-1,32
 305 478 305 478 346.5 442.5 c 128,-1,33
 388 407 388 407 388 345 c 1,0,-1
306 184 m 1,34,35
 265 219 265 219 218 219 c 0,36,37
 128 219 128 219 128 139 c 0,38,39
 128 57 128 57 199 57 c 0,40,41
 225 57 225 57 254.5 70.5 c 128,-1,42
 284 84 284 84 301 104 c 1,43,44
 306 164 306 164 306 184 c 1,34,35
172 528 m 1,45,46
 157 544 157 544 152 565 c 1,47,48
 171 578 171 578 200 597 c 128,-1,49
 229 616 229 616 242 626 c 0,50,51
 283 654 283 654 316 682 c 1,52,53
 337 664 337 664 346 647.5 c 128,-1,54
 355 631 355 631 356 603 c 1,55,56
 296 579 296 579 172 528 c 1,45,46
EndSplineSet
EndChar

StartChar: acircumflex
Encoding: 226 226 161
Width: 473
GlyphClass: 2
Flags: W
LayerCount: 2
Fore
SplineSet
388 345 m 1,0,-1
 384 201 l 1,1,2
 384 133 384 133 392 68 c 1,3,-1
 429 65 l 1,4,5
 431 49 431 49 431 35.5 c 128,-1,6
 431 22 431 22 428 7 c 1,7,8
 399 6 399 6 315 -3 c 1,9,10
 308 16 308 16 304 44 c 1,11,12
 226 -15 226 -15 169.5 -15 c 128,-1,13
 113 -15 113 -15 81.5 21.5 c 128,-1,14
 50 58 50 58 50 125.5 c 128,-1,15
 50 193 50 193 92.5 232 c 128,-1,16
 135 271 135 271 199.5 271 c 128,-1,17
 264 271 264 271 310 247 c 1,18,19
 311 258 311 258 311 283 c 0,20,21
 311 357 311 357 290.5 389.5 c 128,-1,22
 270 422 270 422 228 422 c 128,-1,23
 186 422 186 422 167 406 c 1,24,25
 175 390 175 390 175 366 c 128,-1,26
 175 342 175 342 159.5 324.5 c 128,-1,27
 144 307 144 307 116 307 c 0,28,29
 69 307 69 307 69 362.5 c 128,-1,30
 69 418 69 418 111 448 c 128,-1,31
 153 478 153 478 229 478 c 128,-1,32
 305 478 305 478 346.5 442.5 c 128,-1,33
 388 407 388 407 388 345 c 1,0,-1
306 184 m 1,34,35
 265 219 265 219 218 219 c 0,36,37
 128 219 128 219 128 139 c 0,38,39
 128 57 128 57 199 57 c 0,40,41
 225 57 225 57 254.5 70.5 c 128,-1,42
 284 84 284 84 301 104 c 1,43,44
 306 164 306 164 306 184 c 1,34,35
339 528 m 1,45,-1
 225 591 l 1,46,47
 192 573 192 573 111 528 c 1,48,49
 95 546 95 546 91 565 c 1,50,51
 109 580 109 580 138 604 c 0,52,53
 199 655 199 655 225 682 c 1,54,55
 251 655 251 655 296 617.5 c 128,-1,56
 341 580 341 580 359 565 c 1,57,58
 354 544 354 544 339 528 c 1,45,-1
EndSplineSet
EndChar

StartChar: atilde
Encoding: 227 227 162
Width: 473
GlyphClass: 2
Flags: W
LayerCount: 2
Fore
SplineSet
388 345 m 1,0,-1
 384 201 l 1,1,2
 384 133 384 133 392 68 c 1,3,-1
 429 65 l 1,4,5
 431 49 431 49 431 35.5 c 128,-1,6
 431 22 431 22 428 7 c 1,7,8
 399 6 399 6 315 -3 c 1,9,10
 308 16 308 16 304 44 c 1,11,12
 226 -15 226 -15 169.5 -15 c 128,-1,13
 113 -15 113 -15 81.5 21.5 c 128,-1,14
 50 58 50 58 50 125.5 c 128,-1,15
 50 193 50 193 92.5 232 c 128,-1,16
 135 271 135 271 199.5 271 c 128,-1,17
 264 271 264 271 310 247 c 1,18,19
 311 258 311 258 311 283 c 0,20,21
 311 357 311 357 290.5 389.5 c 128,-1,22
 270 422 270 422 228 422 c 128,-1,23
 186 422 186 422 167 406 c 1,24,25
 175 390 175 390 175 366 c 128,-1,26
 175 342 175 342 159.5 324.5 c 128,-1,27
 144 307 144 307 116 307 c 0,28,29
 69 307 69 307 69 362.5 c 128,-1,30
 69 418 69 418 111 448 c 128,-1,31
 153 478 153 478 229 478 c 128,-1,32
 305 478 305 478 346.5 442.5 c 128,-1,33
 388 407 388 407 388 345 c 1,0,-1
306 184 m 1,34,35
 265 219 265 219 218 219 c 0,36,37
 128 219 128 219 128 139 c 0,38,39
 128 57 128 57 199 57 c 0,40,41
 225 57 225 57 254.5 70.5 c 128,-1,42
 284 84 284 84 301 104 c 1,43,44
 306 164 306 164 306 184 c 1,34,35
125 620.5 m 128,-1,46
 154 643 154 643 180 643 c 128,-1,47
 206 643 206 643 237.5 626.5 c 128,-1,48
 269 610 269 610 286 610 c 0,49,50
 311 610 311 610 336 650 c 1,51,52
 363 638 363 638 370 617 c 1,53,54
 356 590 356 590 327 567 c 128,-1,55
 298 544 298 544 271.5 544 c 128,-1,56
 245 544 245 544 213.5 560.5 c 128,-1,57
 182 577 182 577 160.5 577 c 128,-1,58
 139 577 139 577 114 537 c 1,59,60
 89 549 89 549 82 570 c 1,61,45
 96 598 96 598 125 620.5 c 128,-1,46
EndSplineSet
EndChar

StartChar: adieresis
Encoding: 228 228 163
Width: 473
GlyphClass: 2
Flags: W
LayerCount: 2
Fore
SplineSet
388 345 m 1,0,-1
 384 201 l 1,1,2
 384 133 384 133 392 68 c 1,3,-1
 429 65 l 1,4,5
 431 49 431 49 431 35.5 c 128,-1,6
 431 22 431 22 428 7 c 1,7,8
 399 6 399 6 315 -3 c 1,9,10
 308 16 308 16 304 44 c 1,11,12
 226 -15 226 -15 169.5 -15 c 128,-1,13
 113 -15 113 -15 81.5 21.5 c 128,-1,14
 50 58 50 58 50 125.5 c 128,-1,15
 50 193 50 193 92.5 232 c 128,-1,16
 135 271 135 271 199.5 271 c 128,-1,17
 264 271 264 271 310 247 c 1,18,19
 311 258 311 258 311 283 c 0,20,21
 311 357 311 357 290.5 389.5 c 128,-1,22
 270 422 270 422 228 422 c 128,-1,23
 186 422 186 422 167 406 c 1,24,25
 175 390 175 390 175 366 c 128,-1,26
 175 342 175 342 159.5 324.5 c 128,-1,27
 144 307 144 307 116 307 c 0,28,29
 69 307 69 307 69 362.5 c 128,-1,30
 69 418 69 418 111 448 c 128,-1,31
 153 478 153 478 229 478 c 128,-1,32
 305 478 305 478 346.5 442.5 c 128,-1,33
 388 407 388 407 388 345 c 1,0,-1
306 184 m 1,34,35
 265 219 265 219 218 219 c 0,36,37
 128 219 128 219 128 139 c 0,38,39
 128 57 128 57 199 57 c 0,40,41
 225 57 225 57 254.5 70.5 c 128,-1,42
 284 84 284 84 301 104 c 1,43,44
 306 164 306 164 306 184 c 1,34,35
202 599 m 0,45,46
 202 544 202 544 144 544 c 0,47,48
 99 544 99 544 99 590 c 0,49,50
 99 646 99 646 157 646 c 0,51,52
 202 646 202 646 202 599 c 0,45,46
352 599 m 0,53,54
 352 544 352 544 294 544 c 0,55,56
 249 544 249 544 249 590 c 0,57,58
 249 646 249 646 307 646 c 0,59,60
 352 646 352 646 352 599 c 0,53,54
EndSplineSet
EndChar

StartChar: aring
Encoding: 229 229 164
Width: 473
GlyphClass: 2
Flags: W
LayerCount: 2
Fore
SplineSet
388 345 m 1,0,-1
 384 201 l 1,1,2
 384 133 384 133 392 68 c 1,3,-1
 429 65 l 1,4,5
 431 49 431 49 431 35.5 c 128,-1,6
 431 22 431 22 428 7 c 1,7,8
 399 6 399 6 315 -3 c 1,9,10
 308 16 308 16 304 44 c 1,11,12
 226 -15 226 -15 169.5 -15 c 128,-1,13
 113 -15 113 -15 81.5 21.5 c 128,-1,14
 50 58 50 58 50 125.5 c 128,-1,15
 50 193 50 193 92.5 232 c 128,-1,16
 135 271 135 271 199.5 271 c 128,-1,17
 264 271 264 271 310 247 c 1,18,19
 311 258 311 258 311 283 c 0,20,21
 311 357 311 357 290.5 389.5 c 128,-1,22
 270 422 270 422 228 422 c 128,-1,23
 186 422 186 422 167 406 c 1,24,25
 175 390 175 390 175 366 c 128,-1,26
 175 342 175 342 159.5 324.5 c 128,-1,27
 144 307 144 307 116 307 c 0,28,29
 69 307 69 307 69 362.5 c 128,-1,30
 69 418 69 418 111 448 c 128,-1,31
 153 478 153 478 229 478 c 128,-1,32
 305 478 305 478 346.5 442.5 c 128,-1,33
 388 407 388 407 388 345 c 1,0,-1
306 184 m 1,34,35
 265 219 265 219 218 219 c 0,36,37
 128 219 128 219 128 139 c 0,38,39
 128 57 128 57 199 57 c 0,40,41
 225 57 225 57 254.5 70.5 c 128,-1,42
 284 84 284 84 301 104 c 1,43,44
 306 164 306 164 306 184 c 1,34,35
297 673.5 m 128,-1,46
 314 654 314 654 314 613.5 c 128,-1,47
 314 573 314 573 292.5 550 c 128,-1,48
 271 527 271 527 225 527 c 0,49,50
 150 527 150 527 150 610 c 128,-1,51
 150 693 150 693 239 693 c 0,52,45
 280 693 280 693 297 673.5 c 128,-1,46
237 656 m 0,53,54
 189 656 189 656 189 611 c 0,55,56
 189 585 189 585 198 574.5 c 128,-1,57
 207 564 207 564 227 564 c 0,58,59
 275 564 275 564 275 612 c 0,60,61
 275 656 275 656 237 656 c 0,53,54
EndSplineSet
EndChar

StartChar: ae
Encoding: 230 230 165
Width: 716
GlyphClass: 2
Flags: W
LayerCount: 2
Fore
SplineSet
167 406 m 1,0,1
 175 392 175 392 175 368 c 128,-1,2
 175 344 175 344 160.5 325.5 c 128,-1,3
 146 307 146 307 116 307 c 0,4,5
 69 307 69 307 69 361 c 0,6,7
 69 478 69 478 237 478 c 0,8,9
 325 478 325 478 364 410 c 1,10,11
 418 478 418 478 498 478 c 128,-1,12
 578 478 578 478 621.5 433.5 c 128,-1,13
 665 389 665 389 665 319 c 0,14,15
 665 284 665 284 653 246 c 1,16,17
 578 222 578 222 504 222 c 128,-1,18
 430 222 430 222 392 227 c 1,19,20
 392 107 392 107 444 73 c 0,21,22
 468 57 468 57 505 57 c 0,23,24
 565 57 565 57 629 119 c 1,25,26
 658 89 658 89 666 40 c 1,27,28
 586 -16 586 -16 497 -16 c 0,29,30
 387 -16 387 -16 344 66 c 1,31,32
 299 22 299 22 260.5 3.5 c 128,-1,33
 222 -15 222 -15 166.5 -15 c 128,-1,34
 111 -15 111 -15 80.5 22.5 c 128,-1,35
 50 60 50 60 50 129.5 c 128,-1,36
 50 199 50 199 95.5 235 c 128,-1,37
 141 271 141 271 203 271 c 128,-1,38
 265 271 265 271 310 247 c 1,39,40
 311 267 311 267 311 288.5 c 128,-1,41
 311 310 311 310 310.5 324 c 128,-1,42
 310 338 310 338 305.5 359.5 c 128,-1,43
 301 381 301 381 292 392 c 1,44,45
 271 422 271 422 228.5 422 c 128,-1,46
 186 422 186 422 167 406 c 1,0,1
199 57 m 0,47,48
 267 57 267 57 322 126 c 1,49,50
 318 143 318 143 314 177 c 1,51,52
 267 219 267 219 209 219 c 0,53,54
 173 219 173 219 150.5 199.5 c 128,-1,55
 128 180 128 180 128 139 c 0,56,57
 128 57 128 57 199 57 c 0,47,48
497 422 m 0,58,59
 403 422 403 422 393 285 c 1,60,61
 435 280 435 280 490 280 c 128,-1,62
 545 280 545 280 576 290 c 1,63,64
 580 326 580 326 580 327 c 0,65,66
 580 366 580 366 560 394 c 128,-1,67
 540 422 540 422 497 422 c 0,58,59
EndSplineSet
EndChar

StartChar: ccedilla
Encoding: 231 231 166
Width: 430
GlyphClass: 2
Flags: W
LayerCount: 2
Fore
SplineSet
293.5 324.5 m 128,-1,1
 278 342 278 342 278 367.5 c 128,-1,2
 278 393 278 393 285 406 c 1,3,4
 263 423 263 423 233 423 c 0,5,6
 127 423 127 423 127 235 c 0,7,8
 127 149 127 149 154 103 c 128,-1,9
 181 57 181 57 230.5 57 c 128,-1,10
 280 57 280 57 353 119 c 1,11,12
 382 89 382 89 390 40 c 1,13,14
 312 -12 312 -12 235 -15 c 1,15,-1
 237 -54 l 1,16,17
 338 -58 338 -58 338 -124 c 0,18,19
 338 -210 338 -210 227 -210 c 0,20,21
 182 -210 182 -210 153 -198 c 1,22,23
 152 -195 152 -195 152 -179.5 c 128,-1,24
 152 -164 152 -164 165 -144 c 1,25,26
 187 -164 187 -164 228.5 -164 c 128,-1,27
 270 -164 270 -164 270 -125 c 0,28,29
 270 -95 270 -95 225 -95 c 0,30,31
 205 -95 205 -95 177 -99 c 1,32,-1
 192 -13 l 1,33,34
 116 -3 116 -3 80.5 60 c 128,-1,35
 45 123 45 123 45 240 c 128,-1,36
 45 357 45 357 93 417.5 c 128,-1,37
 141 478 141 478 229 478 c 0,38,39
 298 478 298 478 341 445.5 c 128,-1,40
 384 413 384 413 384 360 c 128,-1,41
 384 307 384 307 337 307 c 0,42,0
 309 307 309 307 293.5 324.5 c 128,-1,1
EndSplineSet
EndChar

StartChar: egrave
Encoding: 232 232 167
Width: 451
GlyphClass: 2
Flags: W
LayerCount: 2
Fore
SplineSet
218 222 m 0,0,1
 169 222 169 222 127 227 c 1,2,3
 129 57 129 57 240 57 c 0,4,5
 296 57 296 57 364 119 c 1,6,7
 393 89 393 89 401 40 c 1,8,9
 319 -15 319 -15 227 -15 c 128,-1,10
 135 -15 135 -15 90 48.5 c 128,-1,11
 45 112 45 112 45 235 c 128,-1,12
 45 358 45 358 95.5 418 c 128,-1,13
 146 478 146 478 239 478 c 0,14,15
 308 478 308 478 353 436 c 128,-1,16
 398 394 398 394 398.5 333 c 128,-1,17
 399 272 399 272 388 246 c 1,18,19
 313 222 313 222 218 222 c 0,0,1
232 422 m 0,20,21
 139 422 139 422 128 285 c 1,22,23
 173 280 173 280 227 280 c 128,-1,24
 281 280 281 280 311 290 c 1,25,26
 315 315 315 315 315 327 c 0,27,28
 315 371 315 371 292.5 396.5 c 128,-1,29
 270 422 270 422 232 422 c 0,20,21
272 528 m 1,30,31
 148 579 148 579 88 603 c 1,32,33
 89 631 89 631 98 647.5 c 128,-1,34
 107 664 107 664 128 682 c 1,35,36
 174 643 174 643 223.5 610.5 c 128,-1,37
 273 578 273 578 292 565 c 1,38,39
 287 544 287 544 272 528 c 1,30,31
EndSplineSet
EndChar

StartChar: eacute
Encoding: 233 233 168
Width: 451
GlyphClass: 2
Flags: W
LayerCount: 2
Fore
SplineSet
218 222 m 0,0,1
 169 222 169 222 127 227 c 1,2,3
 129 57 129 57 240 57 c 0,4,5
 296 57 296 57 364 119 c 1,6,7
 393 89 393 89 401 40 c 1,8,9
 319 -15 319 -15 227 -15 c 128,-1,10
 135 -15 135 -15 90 48.5 c 128,-1,11
 45 112 45 112 45 235 c 128,-1,12
 45 358 45 358 95.5 418 c 128,-1,13
 146 478 146 478 239 478 c 0,14,15
 308 478 308 478 353 436 c 128,-1,16
 398 394 398 394 398.5 333 c 128,-1,17
 399 272 399 272 388 246 c 1,18,19
 313 222 313 222 218 222 c 0,0,1
232 422 m 0,20,21
 139 422 139 422 128 285 c 1,22,23
 173 280 173 280 227 280 c 128,-1,24
 281 280 281 280 311 290 c 1,25,26
 315 315 315 315 315 327 c 0,27,28
 315 371 315 371 292.5 396.5 c 128,-1,29
 270 422 270 422 232 422 c 0,20,21
169 528 m 1,30,31
 154 544 154 544 149 565 c 1,32,33
 168 578 168 578 197 597 c 128,-1,34
 226 616 226 616 240 626 c 0,35,36
 280 654 280 654 313 682 c 1,37,38
 334 664 334 664 343 647.5 c 128,-1,39
 352 631 352 631 353 603 c 1,40,41
 293 579 293 579 169 528 c 1,30,31
EndSplineSet
EndChar

StartChar: ecircumflex
Encoding: 234 234 169
Width: 451
GlyphClass: 2
Flags: W
LayerCount: 2
Fore
SplineSet
218 222 m 0,0,1
 169 222 169 222 127 227 c 1,2,3
 129 57 129 57 240 57 c 0,4,5
 296 57 296 57 364 119 c 1,6,7
 393 89 393 89 401 40 c 1,8,9
 319 -15 319 -15 227 -15 c 128,-1,10
 135 -15 135 -15 90 48.5 c 128,-1,11
 45 112 45 112 45 235 c 128,-1,12
 45 358 45 358 95.5 418 c 128,-1,13
 146 478 146 478 239 478 c 0,14,15
 308 478 308 478 353 436 c 128,-1,16
 398 394 398 394 398.5 333 c 128,-1,17
 399 272 399 272 388 246 c 1,18,19
 313 222 313 222 218 222 c 0,0,1
232 422 m 0,20,21
 139 422 139 422 128 285 c 1,22,23
 173 280 173 280 227 280 c 128,-1,24
 281 280 281 280 311 290 c 1,25,26
 315 315 315 315 315 327 c 0,27,28
 315 371 315 371 292.5 396.5 c 128,-1,29
 270 422 270 422 232 422 c 0,20,21
350 528 m 1,30,-1
 236 591 l 1,31,32
 203 573 203 573 122 528 c 1,33,34
 106 546 106 546 102 565 c 1,35,36
 120 580 120 580 150 604 c 1,37,38
 210 655 210 655 236 682 c 1,39,40
 262 655 262 655 307 617.5 c 128,-1,41
 352 580 352 580 370 565 c 1,42,43
 365 544 365 544 350 528 c 1,30,-1
EndSplineSet
EndChar

StartChar: edieresis
Encoding: 235 235 170
Width: 451
GlyphClass: 2
Flags: W
LayerCount: 2
Fore
SplineSet
218 222 m 0,0,1
 169 222 169 222 127 227 c 1,2,3
 129 57 129 57 240 57 c 0,4,5
 296 57 296 57 364 119 c 1,6,7
 393 89 393 89 401 40 c 1,8,9
 319 -15 319 -15 227 -15 c 128,-1,10
 135 -15 135 -15 90 48.5 c 128,-1,11
 45 112 45 112 45 235 c 128,-1,12
 45 358 45 358 95.5 418 c 128,-1,13
 146 478 146 478 239 478 c 0,14,15
 308 478 308 478 353 436 c 128,-1,16
 398 394 398 394 398.5 333 c 128,-1,17
 399 272 399 272 388 246 c 1,18,19
 313 222 313 222 218 222 c 0,0,1
232 422 m 0,20,21
 139 422 139 422 128 285 c 1,22,23
 173 280 173 280 227 280 c 128,-1,24
 281 280 281 280 311 290 c 1,25,26
 315 315 315 315 315 327 c 0,27,28
 315 371 315 371 292.5 396.5 c 128,-1,29
 270 422 270 422 232 422 c 0,20,21
217 607 m 0,30,31
 217 552 217 552 159 552 c 0,32,33
 114 552 114 552 114 598 c 0,34,35
 114 654 114 654 172 654 c 0,36,37
 217 654 217 654 217 607 c 0,30,31
367 607 m 0,38,39
 367 552 367 552 309 552 c 0,40,41
 264 552 264 552 264 598 c 0,42,43
 264 654 264 654 322 654 c 0,44,45
 367 654 367 654 367 607 c 0,38,39
EndSplineSet
EndChar

StartChar: igrave
Encoding: 236 236 171
Width: 263
GlyphClass: 2
Flags: W
LayerCount: 2
Fore
SplineSet
91 58 m 1,0,1
 100 156 100 156 100 237.5 c 128,-1,2
 100 319 100 319 92 407 c 1,3,-1
 55 410 l 1,4,5
 52 427 52 427 52 442.5 c 128,-1,6
 52 458 52 458 53 466 c 1,7,8
 111 468 111 468 177 475 c 1,9,-1
 182 470 l 1,10,11
 173 411 173 411 173 272 c 128,-1,12
 173 133 173 133 182 58 c 1,13,-1
 219 55 l 1,14,15
 221 39 221 39 221 27.5 c 128,-1,16
 221 16 221 16 218 -1 c 1,17,18
 183 0 183 0 137 0 c 128,-1,19
 91 0 91 0 57 -1 c 1,20,21
 54 14 54 14 54 25.5 c 128,-1,22
 54 37 54 37 56 55 c 1,23,-1
 91 58 l 1,0,1
198 528 m 1,24,25
 74 579 74 579 14 603 c 1,26,27
 15 631 15 631 24 647.5 c 128,-1,28
 33 664 33 664 54 682 c 1,29,30
 100 643 100 643 149.5 610.5 c 128,-1,31
 199 578 199 578 218 565 c 1,32,33
 213 544 213 544 198 528 c 1,24,25
EndSplineSet
EndChar

StartChar: iacute
Encoding: 237 237 172
Width: 263
GlyphClass: 2
Flags: W
LayerCount: 2
Fore
SplineSet
84 528 m 1,0,1
 69 544 69 544 64 565 c 1,2,3
 83 578 83 578 112 597 c 128,-1,4
 141 616 141 616 154 626 c 0,5,6
 195 654 195 654 228 682 c 1,7,8
 249 664 249 664 258 647.5 c 128,-1,9
 267 631 267 631 268 603 c 1,10,11
 208 579 208 579 84 528 c 1,0,1
91 58 m 1,12,13
 100 156 100 156 100 237.5 c 128,-1,14
 100 319 100 319 92 407 c 1,15,-1
 55 410 l 1,16,17
 52 427 52 427 52 442.5 c 128,-1,18
 52 458 52 458 53 466 c 1,19,20
 111 468 111 468 177 475 c 1,21,-1
 182 470 l 1,22,23
 173 411 173 411 173 272 c 128,-1,24
 173 133 173 133 182 58 c 1,25,-1
 219 55 l 1,26,27
 221 39 221 39 221 27.5 c 128,-1,28
 221 16 221 16 218 -1 c 1,29,30
 183 0 183 0 137 0 c 128,-1,31
 91 0 91 0 57 -1 c 1,32,33
 54 14 54 14 54 25.5 c 128,-1,34
 54 37 54 37 56 55 c 1,35,-1
 91 58 l 1,12,13
EndSplineSet
EndChar

StartChar: icircumflex
Encoding: 238 238 173
Width: 263
GlyphClass: 2
Flags: W
LayerCount: 2
Fore
SplineSet
91 58 m 1,0,1
 100 156 100 156 100 237.5 c 128,-1,2
 100 319 100 319 92 407 c 1,3,-1
 55 410 l 1,4,5
 52 427 52 427 52 442.5 c 128,-1,6
 52 458 52 458 53 466 c 1,7,8
 111 468 111 468 177 475 c 1,9,-1
 182 470 l 1,10,11
 173 411 173 411 173 272 c 128,-1,12
 173 133 173 133 182 58 c 1,13,-1
 219 55 l 1,14,15
 221 39 221 39 221 27.5 c 128,-1,16
 221 16 221 16 218 -1 c 1,17,18
 183 0 183 0 137 0 c 128,-1,19
 91 0 91 0 57 -1 c 1,20,21
 54 14 54 14 54 25.5 c 128,-1,22
 54 37 54 37 56 55 c 1,23,-1
 91 58 l 1,0,1
250 528 m 1,24,-1
 136 591 l 1,25,26
 103 573 103 573 22 528 c 1,27,28
 6 546 6 546 2 565 c 1,29,30
 20 580 20 580 50 604 c 1,31,32
 110 655 110 655 136 682 c 1,33,34
 162 655 162 655 207 617.5 c 128,-1,35
 252 580 252 580 270 565 c 1,36,37
 265 544 265 544 250 528 c 1,24,-1
EndSplineSet
EndChar

StartChar: idieresis
Encoding: 239 239 174
Width: 263
GlyphClass: 2
Flags: W
LayerCount: 2
Fore
SplineSet
91 58 m 1,0,1
 100 156 100 156 100 237.5 c 128,-1,2
 100 319 100 319 92 407 c 1,3,-1
 55 410 l 1,4,5
 52 427 52 427 52 442.5 c 128,-1,6
 52 458 52 458 53 466 c 1,7,8
 111 468 111 468 177 475 c 1,9,-1
 182 470 l 1,10,11
 173 411 173 411 173 272 c 128,-1,12
 173 133 173 133 182 58 c 1,13,-1
 219 55 l 1,14,15
 221 39 221 39 221 27.5 c 128,-1,16
 221 16 221 16 218 -1 c 1,17,18
 183 0 183 0 137 0 c 128,-1,19
 91 0 91 0 57 -1 c 1,20,21
 54 14 54 14 54 25.5 c 128,-1,22
 54 37 54 37 56 55 c 1,23,-1
 91 58 l 1,0,1
112 607 m 0,24,25
 112 552 112 552 54 552 c 0,26,27
 9 552 9 552 9 598 c 0,28,29
 9 654 9 654 67 654 c 0,30,31
 112 654 112 654 112 607 c 0,24,25
262 607 m 0,32,33
 262 552 262 552 204 552 c 0,34,35
 159 552 159 552 159 598 c 0,36,37
 159 654 159 654 217 654 c 0,38,39
 262 654 262 654 262 607 c 0,32,33
EndSplineSet
EndChar

StartChar: eth
Encoding: 240 240 175
Width: 486
GlyphClass: 2
Flags: W
LayerCount: 2
Fore
SplineSet
431 246 m 0,0,1
 431 111 431 111 385.5 48 c 128,-1,2
 340 -15 340 -15 243 -15 c 128,-1,3
 146 -15 146 -15 100.5 46 c 128,-1,4
 55 107 55 107 55 231 c 0,5,6
 55 478 55 478 234 478 c 0,7,8
 288 478 288 478 334 435 c 1,9,10
 302 520 302 520 249 569 c 1,11,12
 198 539 198 539 166 518 c 1,13,14
 145 529 145 529 145 561 c 1,15,16
 174 576 174 576 210 597 c 1,17,18
 176 617 176 617 123 637 c 1,19,20
 123 671 123 671 136 687 c 1,21,22
 207 665 207 665 263 627 c 1,23,24
 327 663 327 663 351 681 c 1,25,26
 371 668 371 668 373 636 c 1,27,28
 339 619 339 619 299 597 c 1,29,30
 431 474 431 474 431 246 c 0,0,1
243 57 m 128,-1,32
 349 57 349 57 349 239.5 c 128,-1,33
 349 422 349 422 243 422 c 128,-1,34
 137 422 137 422 137 239.5 c 128,-1,31
 137 57 137 57 243 57 c 128,-1,32
EndSplineSet
EndChar

StartChar: ntilde
Encoding: 241 241 176
Width: 533
GlyphClass: 2
Flags: W
LayerCount: 2
Fore
SplineSet
443 350 m 1,0,-1
 442 253 l 1,1,2
 442 148 442 148 454 58 c 1,3,-1
 489 55 l 1,4,5
 491 33 491 33 491 24.5 c 128,-1,6
 491 16 491 16 488 -1 c 1,7,8
 460 0 460 0 404 0 c 128,-1,9
 348 0 348 0 324 -1 c 1,10,11
 321 14 321 14 321 27.5 c 128,-1,12
 321 41 321 41 323 55 c 1,13,-1
 358 58 l 1,14,15
 366 175 366 175 366 258.5 c 128,-1,16
 366 342 366 342 349.5 378 c 128,-1,17
 333 414 333 414 293 414 c 0,18,19
 239 414 239 414 174 349 c 1,20,21
 173 323 173 323 173 227.5 c 128,-1,22
 173 132 173 132 182 58 c 1,23,-1
 219 55 l 1,24,25
 221 33 221 33 221 24.5 c 128,-1,26
 221 16 221 16 218 -1 c 1,27,28
 190 0 190 0 136 0 c 128,-1,29
 82 0 82 0 57 -1 c 1,30,31
 54 14 54 14 54 27.5 c 128,-1,32
 54 41 54 41 56 55 c 1,33,-1
 91 58 l 1,34,35
 100 158 100 158 100 241.5 c 128,-1,36
 100 325 100 325 92 407 c 1,37,-1
 55 410 l 1,38,39
 52 427 52 427 52 443.5 c 128,-1,40
 52 460 52 460 53 466 c 1,41,42
 104 467 104 467 177 475 c 1,43,-1
 182 470 l 1,44,45
 180 458 180 458 176 410 c 1,46,47
 207 441 207 441 248 459.5 c 128,-1,48
 289 478 289 478 325 478 c 0,49,50
 443 478 443 478 443 350 c 1,0,-1
165 620.5 m 128,-1,52
 194 643 194 643 220 643 c 128,-1,53
 246 643 246 643 277.5 626.5 c 128,-1,54
 309 610 309 610 326 610 c 0,55,56
 351 610 351 610 376 650 c 1,57,58
 403 638 403 638 410 617 c 1,59,60
 396 590 396 590 367 567 c 128,-1,61
 338 544 338 544 311.5 544 c 128,-1,62
 285 544 285 544 253.5 560.5 c 128,-1,63
 222 577 222 577 200.5 577 c 128,-1,64
 179 577 179 577 154 537 c 1,65,66
 129 549 129 549 122 570 c 1,67,51
 136 598 136 598 165 620.5 c 128,-1,52
EndSplineSet
EndChar

StartChar: ograve
Encoding: 242 242 177
Width: 466
GlyphClass: 2
Flags: W
LayerCount: 2
Fore
SplineSet
233 478 m 128,-1,1
 421 478 421 478 421 237 c 0,2,3
 421 126 421 126 386 61 c 0,4,5
 346 -15 346 -15 233 -15 c 128,-1,6
 120 -15 120 -15 80 61 c 0,7,8
 45 126 45 126 45 237 c 0,9,0
 45 478 45 478 233 478 c 128,-1,1
233 57 m 128,-1,11
 339 57 339 57 339 239.5 c 128,-1,12
 339 422 339 422 233 422 c 128,-1,13
 127 422 127 422 127 239.5 c 128,-1,10
 127 57 127 57 233 57 c 128,-1,11
285 528 m 1,14,15
 161 579 161 579 101 603 c 1,16,17
 102 631 102 631 111 647.5 c 128,-1,18
 120 664 120 664 141 682 c 1,19,20
 187 643 187 643 236.5 610.5 c 128,-1,21
 286 578 286 578 305 565 c 1,22,23
 300 544 300 544 285 528 c 1,14,15
EndSplineSet
EndChar

StartChar: oacute
Encoding: 243 243 178
Width: 466
GlyphClass: 2
Flags: W
LayerCount: 2
Fore
SplineSet
233 478 m 128,-1,1
 421 478 421 478 421 237 c 0,2,3
 421 126 421 126 386 61 c 0,4,5
 346 -15 346 -15 233 -15 c 128,-1,6
 120 -15 120 -15 80 61 c 0,7,8
 45 126 45 126 45 237 c 0,9,0
 45 478 45 478 233 478 c 128,-1,1
233 57 m 128,-1,11
 339 57 339 57 339 239.5 c 128,-1,12
 339 422 339 422 233 422 c 128,-1,13
 127 422 127 422 127 239.5 c 128,-1,10
 127 57 127 57 233 57 c 128,-1,11
181 528 m 1,14,15
 166 544 166 544 161 565 c 1,16,17
 180 578 180 578 209 597 c 128,-1,18
 238 616 238 616 252 626 c 0,19,20
 292 654 292 654 325 682 c 1,21,22
 346 664 346 664 355 647.5 c 128,-1,23
 364 631 364 631 365 603 c 1,24,25
 305 579 305 579 181 528 c 1,14,15
EndSplineSet
EndChar

StartChar: ocircumflex
Encoding: 244 244 179
Width: 466
GlyphClass: 2
Flags: W
LayerCount: 2
Fore
SplineSet
233 478 m 128,-1,1
 421 478 421 478 421 237 c 0,2,3
 421 126 421 126 386 61 c 0,4,5
 346 -15 346 -15 233 -15 c 128,-1,6
 120 -15 120 -15 80 61 c 0,7,8
 45 126 45 126 45 237 c 0,9,0
 45 478 45 478 233 478 c 128,-1,1
233 57 m 128,-1,11
 339 57 339 57 339 239.5 c 128,-1,12
 339 422 339 422 233 422 c 128,-1,13
 127 422 127 422 127 239.5 c 128,-1,10
 127 57 127 57 233 57 c 128,-1,11
347 528 m 1,14,-1
 233 591 l 1,15,16
 200 573 200 573 119 528 c 1,17,18
 103 546 103 546 99 565 c 1,19,20
 117 580 117 580 146 604 c 0,21,22
 207 655 207 655 233 682 c 1,23,24
 259 655 259 655 304 617.5 c 128,-1,25
 349 580 349 580 367 565 c 1,26,27
 362 544 362 544 347 528 c 1,14,-1
EndSplineSet
EndChar

StartChar: otilde
Encoding: 245 245 180
Width: 466
GlyphClass: 2
Flags: W
LayerCount: 2
Fore
SplineSet
233 478 m 128,-1,1
 421 478 421 478 421 237 c 0,2,3
 421 126 421 126 386 61 c 0,4,5
 346 -15 346 -15 233 -15 c 128,-1,6
 120 -15 120 -15 80 61 c 0,7,8
 45 126 45 126 45 237 c 0,9,0
 45 478 45 478 233 478 c 128,-1,1
233 57 m 128,-1,11
 339 57 339 57 339 239.5 c 128,-1,12
 339 422 339 422 233 422 c 128,-1,13
 127 422 127 422 127 239.5 c 128,-1,10
 127 57 127 57 233 57 c 128,-1,11
132 620.5 m 128,-1,15
 161 643 161 643 187 643 c 128,-1,16
 213 643 213 643 244.5 626.5 c 128,-1,17
 276 610 276 610 293 610 c 0,18,19
 318 610 318 610 343 650 c 1,20,21
 370 638 370 638 377 617 c 1,22,23
 363 590 363 590 334 567 c 128,-1,24
 305 544 305 544 278.5 544 c 128,-1,25
 252 544 252 544 220.5 560.5 c 128,-1,26
 189 577 189 577 167.5 577 c 128,-1,27
 146 577 146 577 121 537 c 1,28,29
 96 549 96 549 89 570 c 1,30,14
 103 598 103 598 132 620.5 c 128,-1,15
EndSplineSet
EndChar

StartChar: odieresis
Encoding: 246 246 181
Width: 466
GlyphClass: 2
Flags: W
LayerCount: 2
Fore
SplineSet
233 478 m 128,-1,1
 421 478 421 478 421 237 c 0,2,3
 421 126 421 126 386 61 c 0,4,5
 346 -15 346 -15 233 -15 c 128,-1,6
 120 -15 120 -15 80 61 c 0,7,8
 45 126 45 126 45 237 c 0,9,0
 45 478 45 478 233 478 c 128,-1,1
233 57 m 128,-1,11
 339 57 339 57 339 239.5 c 128,-1,12
 339 422 339 422 233 422 c 128,-1,13
 127 422 127 422 127 239.5 c 128,-1,10
 127 57 127 57 233 57 c 128,-1,11
209 607 m 0,14,15
 209 552 209 552 151 552 c 0,16,17
 106 552 106 552 106 598 c 0,18,19
 106 654 106 654 164 654 c 0,20,21
 209 654 209 654 209 607 c 0,14,15
359 607 m 0,22,23
 359 552 359 552 301 552 c 0,24,25
 256 552 256 552 256 598 c 0,26,27
 256 654 256 654 314 654 c 0,28,29
 359 654 359 654 359 607 c 0,22,23
EndSplineSet
EndChar

StartChar: divide
Encoding: 247 247 182
Width: 601
GlyphClass: 2
Flags: W
LayerCount: 2
Fore
SplineSet
507 286 m 1,0,1
 415 295 415 295 328.5 295 c 128,-1,2
 242 295 242 295 175 290.5 c 128,-1,3
 108 286 108 286 90 281 c 1,4,5
 87 295 87 295 87 321 c 128,-1,6
 87 347 87 347 94 369 c 1,7,8
 163 360 163 360 261 360 c 0,9,10
 461 360 461 360 511 374 c 1,11,12
 514 360 514 360 514 334 c 128,-1,13
 514 308 514 308 507 286 c 1,0,1
365 500 m 0,14,15
 365 470 365 470 347 450 c 128,-1,16
 329 430 329 430 292 430 c 0,17,18
 235 430 235 430 235 488 c 0,19,20
 235 560 235 560 308 560 c 0,21,22
 365 560 365 560 365 500 c 0,14,15
365 165 m 0,23,24
 365 135 365 135 347 115 c 128,-1,25
 329 95 329 95 292 95 c 0,26,27
 235 95 235 95 235 153 c 0,28,29
 235 225 235 225 308 225 c 0,30,31
 365 225 365 225 365 165 c 0,23,24
EndSplineSet
EndChar

StartChar: oslash
Encoding: 248 248 183
Width: 466
GlyphClass: 2
Flags: W
LayerCount: 2
Fore
SplineSet
146 -81 m 0,0,1
 117 -81 117 -81 97 -65 c 1,2,3
 107 -40 107 -40 129 10 c 1,4,5
 45 61 45 61 45 237 c 0,6,7
 45 478 45 478 233 478 c 0,8,9
 268 478 268 478 297 469 c 1,10,-1
 320 541 l 1,11,12
 332 543 332 543 350 543 c 128,-1,13
 368 543 368 543 389 527 c 1,14,15
 376 499 376 499 352 441 c 1,16,17
 421 383 421 383 421 237 c 0,18,19
 421 126 421 126 386 61 c 0,20,21
 346 -15 346 -15 233 -15 c 0,22,23
 215 -15 215 -15 187 -11 c 1,24,25
 177 -41 177 -41 165 -79 c 1,26,27
 151 -81 151 -81 146 -81 c 0,0,1
127 237 m 0,28,29
 127 132 127 132 161 89 c 1,30,31
 217 231 217 231 277 411 c 1,32,33
 258 422 258 422 233 422 c 0,34,35
 127 422 127 422 127 237 c 0,28,29
233 57 m 0,36,37
 339 57 339 57 339 237 c 0,38,39
 339 316 339 316 319 362 c 1,40,41
 262 215 262 215 210 59 c 1,42,43
 217 57 217 57 233 57 c 0,36,37
EndSplineSet
EndChar

StartChar: ugrave
Encoding: 249 249 184
Width: 502
GlyphClass: 2
Flags: W
LayerCount: 2
Fore
SplineSet
82 129 m 2,0,-1
 83 236 l 2,1,2
 83 325 83 325 75 407 c 1,3,-1
 38 410 l 1,4,5
 35 426 35 426 35 443 c 128,-1,6
 35 460 35 460 36 466 c 1,7,8
 87 467 87 467 160 475 c 1,9,-1
 165 470 l 1,10,11
 156 411 156 411 156 259 c 2,12,-1
 156 212 l 2,13,14
 156 128 156 128 171.5 92.5 c 128,-1,15
 187 57 187 57 224 57 c 0,16,17
 276 57 276 57 337 118 c 1,18,19
 339 141 339 141 339 207 c 2,20,-1
 339 236 l 2,21,22
 339 325 339 325 331 407 c 1,23,-1
 294 410 l 1,24,25
 291 427 291 427 291 443.5 c 128,-1,26
 291 460 291 460 292 466 c 1,27,28
 343 467 343 467 416 475 c 1,29,-1
 421 470 l 1,30,31
 412 411 412 411 412 259 c 2,32,-1
 412 227 l 2,33,34
 412 145 412 145 421 67 c 1,35,-1
 458 65 l 1,36,37
 460 43 460 43 460 32.5 c 128,-1,38
 460 22 460 22 457 7 c 1,39,40
 418 5 418 5 348 -3 c 1,41,42
 340 15 340 15 336 47 c 1,43,44
 261 -15 261 -15 198 -15 c 128,-1,45
 135 -15 135 -15 108.5 20 c 128,-1,46
 82 55 82 55 82 129 c 2,0,-1
299 528 m 1,47,48
 175 579 175 579 115 603 c 1,49,50
 116 631 116 631 125 647.5 c 128,-1,51
 134 664 134 664 155 682 c 1,52,53
 201 643 201 643 250.5 610.5 c 128,-1,54
 300 578 300 578 319 565 c 1,55,56
 314 544 314 544 299 528 c 1,47,48
EndSplineSet
EndChar

StartChar: uacute
Encoding: 250 250 185
Width: 502
GlyphClass: 2
Flags: W
LayerCount: 2
Fore
SplineSet
82 129 m 2,0,-1
 83 236 l 2,1,2
 83 325 83 325 75 407 c 1,3,-1
 38 410 l 1,4,5
 35 426 35 426 35 443 c 128,-1,6
 35 460 35 460 36 466 c 1,7,8
 87 467 87 467 160 475 c 1,9,-1
 165 470 l 1,10,11
 156 411 156 411 156 259 c 2,12,-1
 156 212 l 2,13,14
 156 128 156 128 171.5 92.5 c 128,-1,15
 187 57 187 57 224 57 c 0,16,17
 276 57 276 57 337 118 c 1,18,19
 339 141 339 141 339 207 c 2,20,-1
 339 236 l 2,21,22
 339 325 339 325 331 407 c 1,23,-1
 294 410 l 1,24,25
 291 427 291 427 291 443.5 c 128,-1,26
 291 460 291 460 292 466 c 1,27,28
 343 467 343 467 416 475 c 1,29,-1
 421 470 l 1,30,31
 412 411 412 411 412 259 c 2,32,-1
 412 227 l 2,33,34
 412 145 412 145 421 67 c 1,35,-1
 458 65 l 1,36,37
 460 43 460 43 460 32.5 c 128,-1,38
 460 22 460 22 457 7 c 1,39,40
 418 5 418 5 348 -3 c 1,41,42
 340 15 340 15 336 47 c 1,43,44
 261 -15 261 -15 198 -15 c 128,-1,45
 135 -15 135 -15 108.5 20 c 128,-1,46
 82 55 82 55 82 129 c 2,0,-1
196 528 m 1,47,48
 181 544 181 544 176 565 c 1,49,50
 195 578 195 578 224 597 c 128,-1,51
 253 616 253 616 266 626 c 0,52,53
 307 654 307 654 340 682 c 1,54,55
 361 664 361 664 370 647.5 c 128,-1,56
 379 631 379 631 380 603 c 1,57,58
 320 579 320 579 196 528 c 1,47,48
EndSplineSet
EndChar

StartChar: ucircumflex
Encoding: 251 251 186
Width: 502
GlyphClass: 2
Flags: W
LayerCount: 2
Fore
SplineSet
82 129 m 2,0,-1
 83 236 l 2,1,2
 83 325 83 325 75 407 c 1,3,-1
 38 410 l 1,4,5
 35 426 35 426 35 443 c 128,-1,6
 35 460 35 460 36 466 c 1,7,8
 87 467 87 467 160 475 c 1,9,-1
 165 470 l 1,10,11
 156 411 156 411 156 259 c 2,12,-1
 156 212 l 2,13,14
 156 128 156 128 171.5 92.5 c 128,-1,15
 187 57 187 57 224 57 c 0,16,17
 276 57 276 57 337 118 c 1,18,19
 339 141 339 141 339 207 c 2,20,-1
 339 236 l 2,21,22
 339 325 339 325 331 407 c 1,23,-1
 294 410 l 1,24,25
 291 427 291 427 291 443.5 c 128,-1,26
 291 460 291 460 292 466 c 1,27,28
 343 467 343 467 416 475 c 1,29,-1
 421 470 l 1,30,31
 412 411 412 411 412 259 c 2,32,-1
 412 227 l 2,33,34
 412 145 412 145 421 67 c 1,35,-1
 458 65 l 1,36,37
 460 43 460 43 460 32.5 c 128,-1,38
 460 22 460 22 457 7 c 1,39,40
 418 5 418 5 348 -3 c 1,41,42
 340 15 340 15 336 47 c 1,43,44
 261 -15 261 -15 198 -15 c 128,-1,45
 135 -15 135 -15 108.5 20 c 128,-1,46
 82 55 82 55 82 129 c 2,0,-1
362 528 m 1,47,-1
 248 591 l 1,48,49
 215 573 215 573 134 528 c 1,50,51
 118 546 118 546 114 565 c 1,52,53
 132 580 132 580 162 604 c 1,54,55
 222 655 222 655 248 682 c 1,56,57
 274 655 274 655 319 617.5 c 128,-1,58
 364 580 364 580 382 565 c 1,59,60
 377 544 377 544 362 528 c 1,47,-1
EndSplineSet
EndChar

StartChar: udieresis
Encoding: 252 252 187
Width: 502
GlyphClass: 2
Flags: W
LayerCount: 2
Fore
SplineSet
82 129 m 2,0,-1
 83 236 l 2,1,2
 83 325 83 325 75 407 c 1,3,-1
 38 410 l 1,4,5
 35 426 35 426 35 443 c 128,-1,6
 35 460 35 460 36 466 c 1,7,8
 87 467 87 467 160 475 c 1,9,-1
 165 470 l 1,10,11
 156 411 156 411 156 259 c 2,12,-1
 156 212 l 2,13,14
 156 128 156 128 171.5 92.5 c 128,-1,15
 187 57 187 57 224 57 c 0,16,17
 276 57 276 57 337 118 c 1,18,19
 339 141 339 141 339 207 c 2,20,-1
 339 236 l 2,21,22
 339 325 339 325 331 407 c 1,23,-1
 294 410 l 1,24,25
 291 427 291 427 291 443.5 c 128,-1,26
 291 460 291 460 292 466 c 1,27,28
 343 467 343 467 416 475 c 1,29,-1
 421 470 l 1,30,31
 412 411 412 411 412 259 c 2,32,-1
 412 227 l 2,33,34
 412 145 412 145 421 67 c 1,35,-1
 458 65 l 1,36,37
 460 43 460 43 460 32.5 c 128,-1,38
 460 22 460 22 457 7 c 1,39,40
 418 5 418 5 348 -3 c 1,41,42
 340 15 340 15 336 47 c 1,43,44
 261 -15 261 -15 198 -15 c 128,-1,45
 135 -15 135 -15 108.5 20 c 128,-1,46
 82 55 82 55 82 129 c 2,0,-1
224 607 m 0,47,48
 224 552 224 552 166 552 c 0,49,50
 121 552 121 552 121 598 c 0,51,52
 121 654 121 654 179 654 c 0,53,54
 224 654 224 654 224 607 c 0,47,48
374 607 m 0,55,56
 374 552 374 552 316 552 c 0,57,58
 271 552 271 552 271 598 c 0,59,60
 271 654 271 654 329 654 c 0,61,62
 374 654 374 654 374 607 c 0,55,56
EndSplineSet
EndChar

